<svg width="20" height="14" viewBox="0 0 20 14" fill="none" xmlns="http://www.w3.org/2000/svg">
<path d="M18.387 14H1.613C1.18591 13.9995 0.776417 13.8313 0.474126 13.5322C0.171835 13.2331 0.00135983 12.8276 0 12.4042V1.59578C0.00135983 1.17243 0.171835 0.766863 0.474126 0.467801C0.776417 0.168739 1.18591 0.000537145 1.613 0H18.387C18.8141 0.000537145 19.2236 0.168739 19.5259 0.467801C19.8282 0.766863 19.9986 1.17243 20 1.59578V12.4042C19.9986 12.8276 19.8282 13.2331 19.5259 13.5322C19.2236 13.8313 18.8141 13.9995 18.387 14ZM1.613 0.407866C1.29496 0.408134 0.989968 0.533278 0.764787 0.755908C0.539605 0.978539 0.412568 1.28052 0.41148 1.59578V12.4042C0.411753 12.72 0.538429 13.0228 0.763699 13.2461C0.988969 13.4694 1.29442 13.5949 1.613 13.5952H18.387C18.7056 13.5949 19.011 13.4694 19.2363 13.2461C19.4616 13.0228 19.5882 12.72 19.5885 12.4042V1.59578C19.5882 1.27999 19.4616 0.977224 19.2363 0.753932C19.011 0.530641 18.7056 0.405077 18.387 0.404807L1.613 0.407866Z" fill="#C2C2C2"/>
<path d="M19.7943 5.2666H0.20574C0.151174 5.2666 0.0988435 5.24512 0.0602597 5.20687C0.021676 5.16863 0 5.11675 0 5.06267V3.1253C0 3.07122 0.021676 3.01935 0.0602597 2.9811C0.0988435 2.94286 0.151174 2.92137 0.20574 2.92137H19.7943C19.8488 2.92137 19.9012 2.94286 19.9397 2.9811C19.9783 3.01935 20 3.07122 20 3.1253V5.06267C20 5.11675 19.9783 5.16863 19.9397 5.20687C19.9012 5.24512 19.8488 5.2666 19.7943 5.2666ZM0.41148 4.85874H19.5885V3.32924H0.41148V4.85874Z" fill="#C2C2C2"/>
<path d="M13.9173 12.1187C13.477 12.1187 13.0466 11.9893 12.6805 11.7468C12.3144 11.5044 12.0291 11.1597 11.8606 10.7565C11.6921 10.3534 11.648 9.90969 11.7339 9.48166C11.8198 9.05363 12.0318 8.66046 12.3432 8.35187C12.6545 8.04328 13.0512 7.83312 13.483 7.74798C13.9148 7.66284 14.3624 7.70654 14.7692 7.87355C15.1759 8.04056 15.5236 8.32338 15.7682 8.68624C16.0128 9.04911 16.1434 9.47572 16.1434 9.91214C16.1428 10.4972 15.9081 11.0581 15.4908 11.4718C15.0734 11.8855 14.5075 12.1182 13.9173 12.1187ZM13.9173 8.11447C13.5583 8.11447 13.2074 8.21999 12.909 8.41767C12.6106 8.61536 12.378 8.89634 12.2407 9.22507C12.1034 9.55379 12.0675 9.9155 12.1376 10.2644C12.2077 10.6134 12.3806 10.9339 12.6345 11.1854C12.8884 11.4369 13.2118 11.6081 13.5639 11.6774C13.916 11.7467 14.2809 11.7109 14.6124 11.5746C14.944 11.4383 15.2273 11.2076 15.4266 10.9117C15.6258 10.6158 15.7321 10.2679 15.7319 9.91214C15.7314 9.43536 15.54 8.97827 15.1997 8.64123C14.8595 8.30419 14.3983 8.11474 13.9173 8.11447Z" fill="#C2C2C2"/>
<path d="M15.877 12.1187C15.4367 12.1189 15.0062 11.9897 14.64 11.7473C14.2738 11.505 13.9883 11.1604 13.8197 10.7573C13.651 10.3541 13.6068 9.91038 13.6926 9.48228C13.7783 9.05419 13.9903 8.66092 14.3016 8.35223C14.6128 8.04353 15.0095 7.83328 15.4413 7.74806C15.8732 7.66283 16.3208 7.70647 16.7277 7.87345C17.1345 8.04043 17.4822 8.32325 17.7269 8.68613C17.9715 9.04902 18.1021 9.47568 18.1021 9.91214C18.1016 10.497 17.867 11.0578 17.4499 11.4715C17.0327 11.8851 16.4671 12.1179 15.877 12.1187ZM15.877 8.11447C15.5181 8.11426 15.1671 8.21961 14.8685 8.41718C14.5699 8.61474 14.3372 8.89565 14.1997 9.22436C14.0622 9.55307 14.0262 9.91481 14.0962 10.2638C14.1662 10.6128 14.339 10.9334 14.5929 11.185C14.8467 11.4366 15.1701 11.608 15.5222 11.6773C15.8743 11.7467 16.2393 11.711 16.5709 11.5747C16.9025 11.4385 17.1859 11.2078 17.3852 10.9118C17.5846 10.6159 17.6908 10.268 17.6906 9.91214C17.6901 9.43553 17.4988 8.9786 17.1588 8.64159C16.8188 8.30458 16.3579 8.11501 15.877 8.11447Z" fill="#C2C2C2"/>
<path d="M9.99985 7.71985H2.16424C2.10967 7.71985 2.05734 7.69836 2.01876 7.66012C1.98017 7.62187 1.9585 7.57 1.9585 7.51591C1.9585 7.46183 1.98017 7.40996 2.01876 7.37171C2.05734 7.33347 2.10967 7.31198 2.16424 7.31198H9.99985C10.0544 7.31198 10.1067 7.33347 10.1453 7.37171C10.1839 7.40996 10.2056 7.46183 10.2056 7.51591C10.2056 7.57 10.1839 7.62187 10.1453 7.66012C10.1067 7.69836 10.0544 7.71985 9.99985 7.71985Z" fill="#C2C2C2"/>
<path d="M9.99985 10.0457H2.16424C2.10967 10.0457 2.05734 10.0242 2.01876 9.986C1.98017 9.94775 1.9585 9.89588 1.9585 9.8418C1.9585 9.78771 1.98017 9.73584 2.01876 9.69759C2.05734 9.65935 2.10967 9.63786 2.16424 9.63786H9.99985C10.0544 9.63786 10.1067 9.65935 10.1453 9.69759C10.1839 9.73584 10.2056 9.78771 10.2056 9.8418C10.2056 9.89588 10.1839 9.94775 10.1453 9.986C10.1067 10.0242 10.0544 10.0457 9.99985 10.0457Z" fill="#C2C2C2"/>
<path d="M8.04532 12.3716H2.16424C2.10967 12.3716 2.05734 12.3501 2.01876 12.3119C1.98017 12.2736 1.9585 12.2218 1.9585 12.1677C1.9585 12.1136 1.98017 12.0617 2.01876 12.0235C2.05734 11.9852 2.10967 11.9637 2.16424 11.9637H8.04532C8.09988 11.9637 8.15221 11.9852 8.1908 12.0235C8.22938 12.0617 8.25106 12.1136 8.25106 12.1677C8.25106 12.2218 8.22938 12.2736 8.1908 12.3119C8.15221 12.3501 8.09988 12.3716 8.04532 12.3716Z" fill="#C2C2C2"/>
</svg>
