<svg width="19" height="20" viewBox="0 0 19 20" fill="none" xmlns="http://www.w3.org/2000/svg">
<path d="M0 15.771C0 15.8974 0.102416 16 0.229028 16H18.5437C18.6701 16 18.7728 15.8976 18.7728 15.771V5.22903C18.7728 5.10262 18.6703 5 18.5437 5H0.229028C0.102624 5 0 5.10242 0 5.22903V15.771ZM0.457847 5.45806H18.3149V15.5422H0.457847V5.45806ZM2.11569 7.57479H6.0392C6.34206 7.57479 6.34206 8.03263 6.0392 8.03263H2.11569C1.81282 8.03263 1.81282 7.57479 2.11569 7.57479ZM2.11569 9.22909H6.0392C6.34206 9.22909 6.34206 9.68693 6.0392 9.68693H2.11569C1.81282 9.68693 1.81282 9.22909 2.11569 9.22909ZM16.3607 12.3099H2.11569C1.81282 12.3099 1.81282 11.8521 2.11569 11.8521H16.3607C16.6635 11.8521 16.6635 12.3099 16.3607 12.3099ZM16.3607 13.9715H12.4372C12.1343 13.9715 12.1343 13.5137 12.4372 13.5137H16.3607C16.6635 13.5137 16.6635 13.9715 16.3607 13.9715ZM16.5592 7.4997C14.4442 6.62113 14.46 6.57691 14.2335 6.67098L12.2386 7.4997C12.1212 7.54851 12.1408 7.65968 12.1408 7.78421C12.1408 7.87181 12.2119 7.94294 12.2995 7.94294H12.5905V9.45665H12.4313C12.321 9.45665 12.2315 9.54614 12.2315 9.65648V9.89135C12.2315 10.0017 12.321 10.0912 12.4313 10.0912H16.3431C16.4535 10.0912 16.543 10.0017 16.543 9.89135V9.65648C16.543 9.54614 16.4535 9.45665 16.3431 9.45665H16.1669V7.94294H16.4985C16.5861 7.94294 16.6573 7.87181 16.6573 7.78421C16.6573 7.65947 16.6765 7.5483 16.5592 7.4997ZM14.0912 9.45686H13.2062V7.94315H14.0912V9.45686ZM15.5511 9.45686H14.7068V7.94315H15.5511V9.45686Z" fill="#35B431"/>
</svg>
