<svg width="24" height="24" viewBox="0 0 24 24" fill="none" xmlns="http://www.w3.org/2000/svg">
<path d="M15.8916 7.89157C15.8916 8.66125 15.6633 9.41364 15.2357 10.0536C14.8081 10.6936 14.2003 11.1924 13.4892 11.4869C12.7781 11.7814 11.9957 11.8585 11.2408 11.7084C10.4859 11.5582 9.79249 11.1876 9.24825 10.6433C8.704 10.0991 8.33337 9.40566 8.18321 8.65077C8.03305 7.89588 8.11012 7.11342 8.40466 6.40233C8.69921 5.69124 9.198 5.08346 9.83796 4.65585C10.4779 4.22824 11.2303 4 12 4C13.0321 4 14.0219 4.41 14.7518 5.13981C15.4816 5.86962 15.8916 6.85946 15.8916 7.89157ZM24 12C24 14.3734 23.2962 16.6934 21.9776 18.6668C20.6591 20.6402 18.7849 22.1783 16.5922 23.0865C14.3995 23.9948 11.9867 24.2324 9.65892 23.7694C7.33115 23.3064 5.19295 22.1635 3.51472 20.4853C1.83649 18.807 0.693604 16.6689 0.230582 14.3411C-0.232441 12.0133 0.00519943 9.60051 0.913451 7.4078C1.8217 5.21508 3.35977 3.34094 5.33316 2.02236C7.30655 0.703787 9.62663 0 12 0C15.1815 0.00360591 18.2316 1.26905 20.4813 3.5187C22.731 5.76835 23.9964 8.81851 24 12ZM22.6667 12C22.6683 10.3047 22.2659 8.63343 21.4928 7.12471C20.7196 5.616 19.5979 4.31329 18.2208 3.3246C16.8437 2.3359 15.2507 1.68969 13.574 1.43953C11.8973 1.18937 10.185 1.34247 8.57929 1.88614C6.97354 2.42981 5.5205 3.34838 4.34062 4.56571C3.16074 5.78305 2.28801 7.26408 1.79478 8.88603C1.30155 10.508 1.20202 12.2241 1.50444 13.8922C1.80686 15.5603 2.50252 17.1323 3.53376 18.4779C4.40136 15.3763 7.86134 13.0579 12 13.0579C16.1387 13.0579 19.5986 15.3763 20.4662 18.4779C21.8949 16.6208 22.6686 14.343 22.6667 12Z" fill="#35B431"/>
</svg>
