<svg width="53" height="22" viewBox="0 0 53 22" fill="none" xmlns="http://www.w3.org/2000/svg">
<rect width="53" height="22" rx="5" fill="#FFFADF"/>
<path d="M15.5457 16L14.491 13.2812H11.0574L10.0086 16H9.00078L12.3523 7.39844H13.2488L16.577 16H15.5457ZM14.1922 12.3965L13.1902 9.69531C13.1668 9.625 13.1277 9.50977 13.073 9.34961C13.0223 9.18945 12.9695 9.02344 12.9148 8.85156C12.8602 8.67969 12.8152 8.54102 12.7801 8.43555C12.741 8.5957 12.698 8.75586 12.6512 8.91602C12.6082 9.07227 12.5652 9.21875 12.5223 9.35547C12.4793 9.48828 12.4422 9.60156 12.4109 9.69531L11.3914 12.3965H14.1922ZM20.3122 16.1172C19.7341 16.1172 19.2243 15.998 18.7829 15.7598C18.3415 15.5215 17.9977 15.1582 17.7516 14.6699C17.5055 14.1816 17.3825 13.5664 17.3825 12.8242C17.3825 12.0469 17.5114 11.4121 17.7692 10.9199C18.0309 10.4238 18.3903 10.0566 18.8473 9.81836C19.3044 9.58008 19.8239 9.46094 20.4059 9.46094C20.7263 9.46094 21.0348 9.49414 21.3317 9.56055C21.6325 9.62305 21.8786 9.70312 22.07 9.80078L21.777 10.6152C21.5817 10.5371 21.3552 10.4668 21.0973 10.4043C20.8434 10.3418 20.6052 10.3105 20.3825 10.3105C19.9372 10.3105 19.5661 10.4062 19.2692 10.5977C18.9763 10.7891 18.7555 11.0703 18.6071 11.4414C18.4626 11.8125 18.3903 12.2695 18.3903 12.8125C18.3903 13.332 18.4606 13.7754 18.6013 14.1426C18.7458 14.5098 18.9587 14.791 19.2399 14.9863C19.5251 15.1777 19.8805 15.2734 20.3063 15.2734C20.6462 15.2734 20.9528 15.2383 21.2263 15.168C21.4997 15.0938 21.7477 15.0078 21.9704 14.9102V15.7773C21.7555 15.8867 21.5153 15.9707 21.2497 16.0293C20.988 16.0879 20.6755 16.1172 20.3122 16.1172ZM25.688 15.3203C25.8482 15.3203 26.0123 15.3066 26.1802 15.2793C26.3482 15.252 26.4849 15.2188 26.5904 15.1797V15.9355C26.4771 15.9863 26.3189 16.0293 26.1158 16.0645C25.9166 16.0996 25.7213 16.1172 25.5298 16.1172C25.19 16.1172 24.8814 16.0586 24.6041 15.9414C24.3267 15.8203 24.1041 15.6172 23.9361 15.332C23.772 15.0469 23.69 14.6523 23.69 14.1484V10.3398H22.7759V9.86523L23.6959 9.48438L24.0826 8.08984H24.6685V9.57812H26.5494V10.3398H24.6685V14.1191C24.6685 14.5215 24.7603 14.8223 24.9439 15.0215C25.1314 15.2207 25.3795 15.3203 25.688 15.3203ZM28.9838 9.57812V16H28.0112V9.57812H28.9838ZM28.5092 7.17578C28.6694 7.17578 28.8061 7.22852 28.9194 7.33398C29.0366 7.43555 29.0952 7.5957 29.0952 7.81445C29.0952 8.0293 29.0366 8.18945 28.9194 8.29492C28.8061 8.40039 28.6694 8.45312 28.5092 8.45312C28.3413 8.45312 28.2006 8.40039 28.0873 8.29492C27.978 8.18945 27.9233 8.0293 27.9233 7.81445C27.9233 7.5957 27.978 7.43555 28.0873 7.33398C28.2006 7.22852 28.3413 7.17578 28.5092 7.17578ZM32.5784 16L30.1409 9.57812H31.1839L32.596 13.4629C32.6937 13.7285 32.7933 14.0215 32.8948 14.3418C32.9964 14.6621 33.0667 14.9199 33.1058 15.1152H33.1468C33.1937 14.9199 33.2718 14.6621 33.3812 14.3418C33.4905 14.0176 33.5902 13.7246 33.68 13.4629L35.0921 9.57812H36.1351L33.6917 16H32.5784ZM39.759 9.46094C40.3059 9.46094 40.7746 9.58203 41.1652 9.82422C41.5559 10.0664 41.8547 10.4062 42.0617 10.8438C42.2688 11.2773 42.3723 11.7852 42.3723 12.3672V12.9707H37.9367C37.9484 13.7246 38.1359 14.2988 38.4992 14.6934C38.8625 15.0879 39.3742 15.2852 40.0344 15.2852C40.4406 15.2852 40.8 15.248 41.1125 15.1738C41.425 15.0996 41.7492 14.9902 42.0852 14.8457V15.7012C41.7609 15.8457 41.4387 15.9512 41.1184 16.0176C40.802 16.084 40.427 16.1172 39.9934 16.1172C39.3762 16.1172 38.8371 15.9922 38.3762 15.7422C37.9191 15.4883 37.5637 15.1172 37.3098 14.6289C37.0559 14.1406 36.9289 13.543 36.9289 12.8359C36.9289 12.1445 37.0441 11.5469 37.2746 11.043C37.509 10.5352 37.8371 10.1445 38.259 9.87109C38.6848 9.59766 39.1848 9.46094 39.759 9.46094ZM39.7473 10.2578C39.2277 10.2578 38.8137 10.4277 38.5051 10.7676C38.1965 11.1074 38.0129 11.582 37.9543 12.1914H41.3527C41.3488 11.8086 41.2883 11.4727 41.1711 11.1836C41.0578 10.8906 40.884 10.6641 40.6496 10.5039C40.4152 10.3398 40.1145 10.2578 39.7473 10.2578Z" fill="#EFC602"/>
</svg>
