<svg width="20" height="21" viewBox="0 0 20 21" fill="none" xmlns="http://www.w3.org/2000/svg">
<path d="M10 2.5C9.95103 2.5032 9.91837 2.51443 9.9 2.52717L2.43333 7.39674C2.36828 7.43719 2.33862 7.52027 2.36111 7.59239C2.3836 7.66452 2.45628 7.71935 2.53333 7.71739H4.31111V15.3696H2.53333C2.44025 15.3696 2.35556 15.4524 2.35556 15.5435V16.7609H2.17778C2.0847 16.7609 2.00001 16.8437 2 16.9348V18.3261C2.00001 18.4171 2.0847 18.5 2.17778 18.5H17.8222C17.9153 18.5 18 18.4171 18 18.3261V16.9348C18 16.8437 17.9153 16.7609 17.8222 16.7609H17.6444V15.5435C17.6444 15.4524 17.5597 15.3696 17.4667 15.3696H15.6889V7.71739H17.4667C17.5437 7.71936 17.6164 7.66452 17.6389 7.59239C17.6614 7.52027 17.6317 7.43719 17.5667 7.39674L10.1 2.52717C10.0601 2.50007 10.0322 2.50086 10 2.5ZM10 2.88043L16.8833 7.36957H3.11667L10 2.88043ZM10 4.58696C9.51119 4.58696 9.11111 4.97833 9.11111 5.45652C9.11111 5.93471 9.51119 6.32609 10 6.32609C10.4888 6.32609 10.8889 5.93471 10.8889 5.45652C10.8889 4.97833 10.4888 4.58696 10 4.58696ZM10 4.93478C10.2967 4.93478 10.5333 5.16631 10.5333 5.45652C10.5333 5.74673 10.2967 5.97826 10 5.97826C9.70334 5.97826 9.46667 5.74673 9.46667 5.45652C9.46667 5.16631 9.70334 4.93478 10 4.93478ZM4.66667 7.71739H5.73333V15.3696H4.66667V7.71739ZM6.08889 7.71739H7.51111V15.3696H6.08889V7.71739ZM7.86667 7.71739H8.93333V15.3696H7.86667V7.71739ZM9.28889 7.71739H10.7111V15.3696H9.28889V7.71739ZM11.0667 7.71739H12.1333V15.3696H11.0667V7.71739ZM12.4889 7.71739H13.9111V15.3696H12.4889V7.71739ZM14.2667 7.71739H15.3333V15.3696H14.2667V7.71739ZM2.71111 15.7174H17.2889V16.7609H2.71111V15.7174ZM2.35556 17.1087H17.6444V18.1522H2.35556V17.1087Z" fill="#222222"/>
</svg>
