<svg width="16" height="16" viewBox="0 0 16 16" fill="none" xmlns="http://www.w3.org/2000/svg">
<path d="M8 0C7.95103 0.0032 7.91837 0.0144348 7.9 0.0271739L0.433333 4.89674C0.368283 4.93719 0.338617 5.02027 0.361111 5.09239C0.383604 5.16452 0.456277 5.21935 0.533333 5.21739H2.31111V12.8696H0.533333C0.440252 12.8696 0.355564 12.9524 0.355556 13.0435V14.2609H0.177778C0.0846969 14.2609 8.88889e-06 14.3437 0 14.4348V15.8261C8.88889e-06 15.9171 0.0846969 16 0.177778 16H15.8222C15.9153 16 16 15.9171 16 15.8261V14.4348C16 14.3437 15.9153 14.2609 15.8222 14.2609H15.6444V13.0435C15.6444 12.9524 15.5597 12.8696 15.4667 12.8696H13.6889V5.21739H15.4667C15.5437 5.21936 15.6164 5.16452 15.6389 5.09239C15.6614 5.02027 15.6317 4.93719 15.5667 4.89674L8.1 0.0271739C8.06012 7.13053e-05 8.03219 0.00086087 8 0ZM8 0.380435L14.8833 4.86957H1.11667L8 0.380435ZM8 2.08696C7.51119 2.08696 7.11111 2.47833 7.11111 2.95652C7.11111 3.43471 7.51119 3.82609 8 3.82609C8.48881 3.82609 8.88889 3.43471 8.88889 2.95652C8.88889 2.47833 8.48881 2.08696 8 2.08696ZM8 2.43478C8.29666 2.43478 8.53333 2.66631 8.53333 2.95652C8.53333 3.24673 8.29666 3.47826 8 3.47826C7.70334 3.47826 7.46667 3.24673 7.46667 2.95652C7.46667 2.66631 7.70334 2.43478 8 2.43478ZM2.66667 5.21739H3.73333V12.8696H2.66667V5.21739ZM4.08889 5.21739H5.51111V12.8696H4.08889V5.21739ZM5.86667 5.21739H6.93333V12.8696H5.86667V5.21739ZM7.28889 5.21739H8.71111V12.8696H7.28889V5.21739ZM9.06667 5.21739H10.1333V12.8696H9.06667V5.21739ZM10.4889 5.21739H11.9111V12.8696H10.4889V5.21739ZM12.2667 5.21739H13.3333V12.8696H12.2667V5.21739ZM0.711111 13.2174H15.2889V14.2609H0.711111V13.2174ZM0.355556 14.6087H15.6444V15.6522H0.355556V14.6087Z" fill="#C2C2C2"/>
</svg>
