<svg width="24" height="24" viewBox="0 0 24 24" fill="none" xmlns="http://www.w3.org/2000/svg">
<path d="M20.8167 18.7073C19.9001 18.1366 19.3308 17.106 19.3308 16.0177V11.6104C19.3308 9.76468 18.6203 8.02987 17.3301 6.72494C16.5851 5.97169 15.6748 5.40052 14.6828 5.06208V4.20779C14.6828 3.61792 14.4558 3.06364 14.0434 2.64649C13.6309 2.22961 13.0829 2 12.5 2C11.2964 2 10.3172 2.99039 10.3172 4.20779V5.06182C9.03631 5.5 7.88971 6.33091 7.06513 7.42442C6.15196 8.63558 5.66918 10.0831 5.66918 11.6104V16.0177C5.66918 17.106 5.09986 18.1366 4.18335 18.7073C4.03646 18.7984 3.96764 18.9774 4.01463 19.1449C4.06137 19.3127 4.21288 19.4286 4.38519 19.4286H9.59921C9.78796 20.8769 11.019 22 12.5 22C13.981 22 15.212 20.8769 15.4008 19.4286H20.6148C20.7871 19.4286 20.9386 19.3127 20.9854 19.1449C21.0324 18.9774 20.9635 18.7984 20.8167 18.7073ZM11.0876 4.20779C11.0876 3.42 11.7211 2.77922 12.5 2.77922C12.8772 2.77922 13.2319 2.92779 13.4987 3.19766C13.7655 3.46727 13.9124 3.82623 13.9124 4.20779V4.84935C13.9026 4.84727 13.8931 4.84519 13.8834 4.84338C13.8805 4.8426 13.878 4.84208 13.8752 4.84156C13.7786 4.82156 13.6813 4.80364 13.5837 4.78805C13.5639 4.78468 13.5441 4.78156 13.5241 4.7787C13.5043 4.77558 13.4846 4.77273 13.4645 4.76987C13.4448 4.76675 13.425 4.76416 13.405 4.76156L13.3626 4.7561C13.3366 4.75273 13.3107 4.74935 13.285 4.74649C13.2606 4.74364 13.2362 4.74104 13.2118 4.73844C13.1823 4.73532 13.1528 4.73247 13.1232 4.72987C13.0971 4.72727 13.0709 4.72519 13.0447 4.72312C13.0413 4.72286 13.038 4.7226 13.0347 4.72234C13.0087 4.72026 12.9828 4.71844 12.9568 4.71662C12.8929 4.71221 12.8287 4.70883 12.7642 4.70649C12.737 4.70545 12.7095 4.70442 12.6821 4.70364H12.6787C12.6538 4.70286 12.6287 4.70234 12.6037 4.70208C12.5693 4.70156 12.5347 4.7013 12.5 4.7013C12.4653 4.7013 12.4307 4.70156 12.3963 4.70208C12.3713 4.70234 12.3464 4.70286 12.3215 4.70364H12.3179C12.291 4.70442 12.2637 4.70545 12.2368 4.70623C12.2034 4.70753 12.17 4.70909 12.1366 4.71091C12.1092 4.71247 12.0817 4.71403 12.0542 4.71584C11.9951 4.71974 11.9358 4.72442 11.877 4.72987C11.8475 4.73247 11.8179 4.73532 11.7884 4.73844C11.764 4.74104 11.7396 4.74364 11.7152 4.74649C11.7101 4.74701 11.7052 4.74779 11.7001 4.74831C11.6708 4.75169 11.6413 4.75532 11.612 4.75922C11.5866 4.7626 11.5614 4.76597 11.536 4.76961C11.5321 4.77013 11.528 4.77091 11.5239 4.77143C11.498 4.77506 11.4718 4.77896 11.4458 4.78312C11.4163 4.78779 11.387 4.79273 11.3575 4.79766C11.3377 4.80104 11.318 4.80442 11.2982 4.80805C11.2784 4.81143 11.2586 4.81506 11.2389 4.81896C11.2132 4.8239 11.1878 4.82883 11.1621 4.83403C11.1379 4.8387 11.1135 4.8439 11.0894 4.84909C11.0889 4.84909 11.0881 4.84935 11.0876 4.84935V4.20779ZM12.5 21.2208C11.4484 21.2208 10.5681 20.4522 10.3812 19.4416H14.6188C14.4319 20.4522 13.5516 21.2208 12.5 21.2208ZM5.44191 18.6494C5.63451 18.4325 5.80374 18.194 5.94498 17.9382C6.26855 17.3525 6.43957 16.6886 6.43957 16.0177V11.6104C6.43957 8.89766 8.23664 6.4761 10.8098 5.72208C11.3562 5.56182 11.925 5.48052 12.5 5.48052C12.9317 5.48052 13.3595 5.52623 13.7768 5.61688C13.8084 5.62364 13.8402 5.63091 13.8716 5.63844C13.8913 5.64286 13.9106 5.64753 13.9301 5.65247C13.9661 5.66104 14.0018 5.67013 14.0374 5.67974C14.04 5.68026 14.0423 5.68078 14.0446 5.68156C14.0649 5.68675 14.0852 5.69221 14.1052 5.69792C14.1191 5.70182 14.133 5.70571 14.1468 5.70987C14.1615 5.71377 14.1761 5.71792 14.1905 5.72234C15.1656 6.00805 16.0631 6.54545 16.7854 7.2761C17.93 8.43351 18.5604 9.97299 18.5604 11.6104V16.0177C18.5604 16.6886 18.7315 17.3525 19.055 17.9382C19.1963 18.194 19.3655 18.4325 19.5581 18.6494H5.44191Z" fill="#252525"/>
<path d="M9.11512 11.4719H8.34473C8.34473 10.5301 8.64236 9.63739 9.20577 8.89038C9.75069 8.16752 10.5239 7.6309 11.3826 7.37921L11.5971 8.12752C10.1359 8.55583 9.11512 9.93116 9.11512 11.4719Z" fill="#252525"/>
</svg>
