<svg width="26" height="24" viewBox="0 0 26 24" fill="none" xmlns="http://www.w3.org/2000/svg">
<path d="M12.9976 24C13.4245 23.9999 13.8511 23.9771 14.2756 23.9316C14.5264 23.9048 14.7756 23.8672 15.0236 23.8248C17.717 23.3625 20.1731 21.9981 21.9887 19.9557C23.2761 18.5007 24.191 16.755 24.655 14.8685C25.1189 12.982 25.118 11.0111 24.6523 9.12504C24.1866 7.23898 23.27 5.49414 21.9813 4.04041C20.6926 2.58668 19.0702 1.4675 17.2536 0.77901C15.437 0.0905166 13.4804 -0.146715 11.5518 0.0876909C9.62332 0.322097 7.78053 1.02114 6.18173 2.12476C4.58294 3.22839 3.27594 4.70362 2.37299 6.42374C1.47004 8.14387 0.998133 10.0575 0.997803 12.0002C1.00077 15.1818 2.26598 18.2323 4.51574 20.4821C6.7655 22.7318 9.81598 23.997 12.9976 24ZM21.1055 19.7285C21.0383 19.7989 20.9703 19.8693 20.9015 19.9381C20.8327 20.0069 20.7591 20.0757 20.6867 20.1437C20.6143 20.2117 20.5447 20.2773 20.4719 20.3437C20.3991 20.4101 20.3235 20.4729 20.2487 20.5365C20.1739 20.6 20.0995 20.6628 20.0235 20.7236C19.9475 20.7844 19.8695 20.8436 19.7919 20.9032C19.7143 20.9628 19.6371 21.0232 19.5583 21.078C19.4795 21.1328 19.3983 21.1904 19.3183 21.2456C19.2383 21.3008 19.1583 21.3548 19.0783 21.4056C18.9983 21.4564 18.9115 21.5096 18.8279 21.5608C18.7443 21.612 18.6639 21.6612 18.5807 21.7088C18.4975 21.7564 18.4087 21.804 18.3219 21.8504C18.2351 21.8968 18.1543 21.942 18.0687 21.9852C17.9831 22.0284 17.8911 22.0716 17.8015 22.114C17.712 22.1564 17.6308 22.1964 17.544 22.234C17.4572 22.2716 17.3604 22.3116 17.268 22.3496C17.1756 22.3876 17.0948 22.4224 17.0068 22.456C16.9128 22.492 16.8176 22.5244 16.7224 22.558C16.6348 22.5888 16.5472 22.6212 16.4588 22.65C16.3608 22.682 16.2616 22.71 16.1628 22.7392C16.0756 22.7648 15.9892 22.792 15.9012 22.8156C15.7992 22.8432 15.6956 22.8664 15.5924 22.8908C15.5064 22.9116 15.4208 22.934 15.334 22.9524C15.2268 22.9752 15.1184 22.9924 15.0108 23.0132C14.9268 23.0288 14.8436 23.046 14.7596 23.0596C14.6448 23.078 14.5284 23.0912 14.4128 23.106C14.3328 23.116 14.2568 23.1284 14.178 23.1368C14.05 23.1504 13.9212 23.1588 13.7924 23.168C13.7252 23.1728 13.6584 23.18 13.5924 23.1836C13.3962 23.194 13.1991 23.1993 13.0012 23.1996C12.8034 23.1999 12.6068 23.1945 12.4116 23.1836C12.3448 23.18 12.2784 23.1728 12.2116 23.168C12.0828 23.1588 11.954 23.1504 11.826 23.1368C11.7488 23.1288 11.6728 23.1164 11.596 23.1068C11.4788 23.092 11.3616 23.078 11.2452 23.0596C11.1652 23.0464 11.0853 23.0296 11.0033 23.0148C10.8929 22.9948 10.7817 22.9748 10.6717 22.952C10.5885 22.9344 10.5061 22.912 10.4229 22.8928C10.3169 22.8676 10.2109 22.8436 10.1057 22.8152C10.0225 22.7928 9.94047 22.7668 9.85767 22.7428C9.75407 22.712 9.65007 22.6828 9.54767 22.6492C9.46528 22.6224 9.38448 22.5924 9.30288 22.5636C9.20168 22.528 9.10008 22.4932 8.99968 22.4548C8.91968 22.4236 8.83968 22.3892 8.75969 22.356C8.66089 22.316 8.56209 22.276 8.46449 22.2324C8.38449 22.1968 8.30449 22.158 8.22689 22.1208C8.1305 22.0752 8.0345 22.0304 7.9397 21.982C7.8597 21.942 7.7849 21.9 7.7073 21.8584C7.6141 21.808 7.5201 21.758 7.42731 21.7052C7.35051 21.6608 7.27531 21.614 7.19971 21.5684C7.10931 21.5136 7.01891 21.4588 6.93011 21.4016C6.85571 21.3532 6.78212 21.3024 6.70852 21.2524C6.62132 21.1932 6.53372 21.1324 6.44812 21.0716C6.37572 21.0192 6.30452 20.9648 6.23332 20.9116C6.14933 20.8476 6.06533 20.784 5.98333 20.7176C5.91253 20.6608 5.84373 20.6025 5.77453 20.5437C5.69453 20.4761 5.61453 20.4081 5.53453 20.3381C5.46614 20.2769 5.39934 20.2137 5.33214 20.1509C5.25614 20.0793 5.18054 20.0077 5.10654 19.9341C5.04014 19.8681 4.97494 19.8005 4.91014 19.7341C4.86574 19.6881 4.82255 19.6413 4.77895 19.5945C5.4033 17.9156 6.52624 16.4679 7.99707 15.4457C9.4679 14.4234 11.2162 13.8755 13.0074 13.8755C14.7986 13.8755 16.5469 14.4234 18.0178 15.4457C19.4886 16.4679 20.6115 17.9156 21.2359 19.5945C21.1919 19.639 21.1484 19.6837 21.1055 19.7285ZM12.9976 0.800348C15.0993 0.796866 17.1596 1.38508 18.9426 2.4977C20.7257 3.61031 22.1596 5.20238 23.0801 7.09176C24.0007 8.98113 24.3709 11.0915 24.1482 13.1814C23.9255 15.2713 23.1191 17.2563 21.8211 18.9093C21.0864 17.1787 19.8586 15.7026 18.2908 14.6649C16.723 13.6272 14.8845 13.0739 13.0044 13.0739C11.1243 13.0739 9.28581 13.6272 7.718 14.6649C6.1502 15.7026 4.92244 17.1787 4.18775 18.9093C2.89048 17.2572 2.08418 15.2734 1.86101 13.1848C1.63784 11.0961 2.00681 8.98677 2.92574 7.09788C3.84468 5.20899 5.2765 3.61674 7.05756 2.50312C8.83862 1.38949 10.8971 0.799421 12.9976 0.800348Z" fill="#6C6C6C"/>
<path d="M13.0045 12.4002C13.8298 12.4 14.6366 12.1551 15.3228 11.6965C16.0089 11.2378 16.5437 10.586 16.8594 9.82347C17.1751 9.06091 17.2577 8.22186 17.0966 7.4124C16.9354 6.60295 16.5379 5.85944 15.9543 5.2759C15.3706 4.69235 14.627 4.29498 13.8175 4.13402C13.0081 3.97307 12.169 4.05576 11.4065 4.37163C10.644 4.68751 9.99233 5.22239 9.53381 5.90865C9.0753 6.5949 8.83057 7.4017 8.83057 8.22703C8.83184 9.33357 9.27202 10.3944 10.0545 11.1768C10.837 11.9591 11.898 12.3991 13.0045 12.4002ZM13.0045 4.85388C13.6716 4.85388 14.3238 5.05172 14.8785 5.42236C15.4332 5.79301 15.8656 6.31982 16.1209 6.93618C16.3762 7.55255 16.443 8.23077 16.3128 8.8851C16.1827 9.53943 15.8614 10.1405 15.3897 10.6122C14.9179 11.084 14.3169 11.4052 13.6626 11.5354C13.0082 11.6655 12.33 11.5987 11.7137 11.3434C11.0973 11.0881 10.5705 10.6558 10.1998 10.1011C9.82919 9.54634 9.63135 8.89418 9.63135 8.22703C9.63241 7.33274 9.98814 6.47538 10.6205 5.84303C11.2529 5.21067 12.1102 4.85494 13.0045 4.85388Z" fill="#6C6C6C"/>
</svg>
