<svg width="25" height="24" viewBox="0 0 25 24" fill="none" xmlns="http://www.w3.org/2000/svg">
<path d="M8.00141 12.3995V11.9876C8.00141 11.8668 8.09196 11.7778 8.20366 11.7778H20.0398C20.1505 11.7778 20.242 11.8717 20.242 11.9876V12.3995C20.242 12.5203 20.1515 12.6093 20.0398 12.6093H8.20366C8.0929 12.6093 8.00141 12.5154 8.00141 12.3995ZM8.00141 17.3887V16.9769C8.00141 16.856 8.09196 16.767 8.20366 16.767H20.0398C20.1505 16.767 20.242 16.861 20.242 16.9769V17.3887C20.242 17.5096 20.1515 17.5986 20.0398 17.5986H8.20366C8.0929 17.5986 8.00141 17.5046 8.00141 17.3887ZM8.00141 7.41025V6.99838C8.00141 6.87753 8.09196 6.78854 8.20366 6.78854H20.0398C20.1505 6.78854 20.242 6.88249 20.242 6.99838V7.41025C20.242 7.53109 20.1515 7.62008 20.0398 7.62008H8.20366C8.0929 7.62008 8.00141 7.52614 8.00141 7.41025ZM5.14526 12.6112V11.7759C5.14526 11.6596 5.23576 11.5699 5.34739 11.5699H6.1672C6.2813 11.5699 6.36933 11.6621 6.36933 11.7759V12.6112C6.36933 12.7275 6.27883 12.8172 6.1672 12.8172H5.34739C5.2333 12.8172 5.14526 12.725 5.14526 12.6112ZM5.14526 17.6005V16.7651C5.14526 16.6489 5.23576 16.5592 5.34739 16.5592H6.1672C6.2813 16.5592 6.36933 16.6514 6.36933 16.7651V17.6005C6.36933 17.7168 6.27883 17.8065 6.1672 17.8065H5.34739C5.2333 17.8065 5.14526 17.7142 5.14526 17.6005ZM5.14526 7.622V6.78663C5.14526 6.67036 5.23576 6.58066 5.34739 6.58066H6.1672C6.2813 6.58066 6.36933 6.67287 6.36933 6.78663V7.622C6.36933 7.73827 6.27883 7.82797 6.1672 7.82797H5.34739C5.2333 7.82797 5.14526 7.73576 5.14526 7.622Z" fill="#6C6C6C"/>
<path d="M1.46829 0.774194C1.36109 0.774194 1.27419 0.864654 1.27419 0.968289V23.0317C1.27419 23.1389 1.36465 23.2258 1.46829 23.2258H23.5317C23.6389 23.2258 23.7258 23.1353 23.7258 23.0317V0.968289C23.7258 0.861093 23.6353 0.774194 23.5317 0.774194H1.46829ZM0.5 0.193187C0.5 0.0864926 0.586904 0 0.693187 0H24.3068C24.4135 0 24.5 0.0869035 24.5 0.193187V23.8068C24.5 23.9135 24.4131 24 24.3068 24H0.693187C0.586493 24 0.5 23.9131 0.5 23.8068V0.193187Z" fill="#6C6C6C"/>
</svg>
