<svg width="24" height="24" viewBox="0 0 24 24" fill="none" xmlns="http://www.w3.org/2000/svg">
<path d="M10.9714 10.5906C10.063 10.5906 9.15455 10.5906 8.24614 10.5906C6.55242 10.5906 4.85868 10.5906 3.16497 10.5906C2.23332 10.5906 1.30167 10.5906 0.370022 10.5906C0.369758 10.5906 0.369494 10.5906 0.369231 10.5906C0.492316 10.7135 0.615376 10.8364 0.738462 10.9594C0.738462 10.0519 0.738462 9.1445 0.738462 8.23708C0.738462 6.54523 0.738462 4.85335 0.738462 3.16149C0.738462 2.23087 0.738462 1.30024 0.738462 0.369616C0.738462 0.369352 0.738462 0.369089 0.738462 0.368825C0.615376 0.491776 0.492316 0.6147 0.369231 0.737651C1.27767 0.737651 2.18611 0.737651 3.09452 0.737651C4.78824 0.737651 6.48198 0.737651 8.17569 0.737651C9.10734 0.737651 10.039 0.737651 10.9706 0.737651C10.9709 0.737651 10.9712 0.737651 10.9714 0.737651C10.8483 0.6147 10.7253 0.491776 10.6022 0.368825C10.6022 1.27627 10.6022 2.18371 10.6022 3.09113C10.6022 4.78298 10.6022 6.47486 10.6022 8.16672C10.6022 9.09734 10.6022 10.028 10.6022 10.9586C10.6022 10.9589 10.6022 10.9591 10.6022 10.9594C10.6022 11.1604 10.7701 11.3282 10.9714 11.3282C11.1727 11.3282 11.3407 11.1604 11.3407 10.9594C11.3407 10.0519 11.3407 9.1445 11.3407 8.23708C11.3407 6.54523 11.3407 4.85335 11.3407 3.16149C11.3407 2.23087 11.3407 1.30024 11.3407 0.369616C11.3407 0.369352 11.3407 0.369089 11.3407 0.368825C11.3407 0.167763 11.1727 0 10.9714 0C10.063 0 9.15455 0 8.24614 0C6.55242 0 4.85868 0 3.16497 0C2.23332 0 1.30167 0 0.370022 0C0.369758 0 0.369494 0 0.369231 0C0.167947 0 0 0.167763 0 0.368825C0 1.27627 0 2.18371 0 3.09113C0 4.78298 0 6.47486 0 8.16672C0 9.09734 0 10.028 0 10.9586C0 10.9589 0 10.9591 0 10.9594C0 11.1604 0.167947 11.3282 0.369231 11.3282C1.27767 11.3282 2.18611 11.3282 3.09452 11.3282C4.78824 11.3282 6.48198 11.3282 8.17569 11.3282C9.10734 11.3282 10.039 11.3282 10.9706 11.3282C10.9709 11.3282 10.9712 11.3282 10.9714 11.3282C11.1727 11.3282 11.3407 11.1604 11.3407 10.9594C11.3407 10.7583 11.1727 10.5906 10.9714 10.5906Z" fill="#6C6C6C"/>
<path d="M23.6309 10.5906C22.7224 10.5906 21.814 10.5906 20.9056 10.5906C19.2118 10.5906 17.5181 10.5906 15.8244 10.5906C14.8927 10.5906 13.9611 10.5906 13.0294 10.5906C13.0292 10.5906 13.0289 10.5906 13.0287 10.5906C13.1517 10.7135 13.2748 10.8364 13.3979 10.9594C13.3979 10.0519 13.3979 9.1445 13.3979 8.23708C13.3979 6.54523 13.3979 4.85335 13.3979 3.16149C13.3979 2.23087 13.3979 1.30024 13.3979 0.369616C13.3979 0.369352 13.3979 0.369089 13.3979 0.368825C13.2748 0.491776 13.1517 0.6147 13.0287 0.737651C13.9371 0.737651 14.8455 0.737651 15.7539 0.737651C17.4477 0.737651 19.1414 0.737651 20.8351 0.737651C21.7668 0.737651 22.6984 0.737651 23.6301 0.737651C23.6304 0.737651 23.6306 0.737651 23.6309 0.737651C23.5078 0.6147 23.3847 0.491776 23.2616 0.368825C23.2616 1.27627 23.2616 2.18371 23.2616 3.09113C23.2616 4.78298 23.2616 6.47486 23.2616 8.16672C23.2616 9.09734 23.2616 10.028 23.2616 10.9586C23.2616 10.9589 23.2616 10.9591 23.2616 10.9594C23.2616 11.1604 23.4296 11.3282 23.6309 11.3282C23.8321 11.3282 24.0001 11.1604 24.0001 10.9594C24.0001 10.0519 24.0001 9.1445 24.0001 8.23708C24.0001 6.54523 24.0001 4.85335 24.0001 3.16149C24.0001 2.23087 24.0001 1.30024 24.0001 0.369616C24.0001 0.369352 24.0001 0.369089 24.0001 0.368825C24.0001 0.167763 23.8321 0 23.6309 0C22.7224 0 21.814 0 20.9056 0C19.2118 0 17.5181 0 15.8244 0C14.8927 0 13.9611 0 13.0294 0C13.0292 0 13.0289 0 13.0287 0C12.8274 0 12.6594 0.167763 12.6594 0.368825C12.6594 1.27627 12.6594 2.18371 12.6594 3.09113C12.6594 4.78298 12.6594 6.47486 12.6594 8.16672C12.6594 9.09734 12.6594 10.028 12.6594 10.9586C12.6594 10.9589 12.6594 10.9591 12.6594 10.9594C12.6594 11.1604 12.8274 11.3282 13.0287 11.3282C13.9371 11.3282 14.8455 11.3282 15.7539 11.3282C17.4477 11.3282 19.1414 11.3282 20.8351 11.3282C21.7668 11.3282 22.6984 11.3282 23.6301 11.3282C23.6304 11.3282 23.6306 11.3282 23.6309 11.3282C23.8321 11.3282 24.0001 11.1604 24.0001 10.9594C24.0001 10.7583 23.8321 10.5906 23.6309 10.5906Z" fill="#6C6C6C"/>
<path d="M10.9714 23.2624C10.063 23.2624 9.15455 23.2624 8.24614 23.2624C6.55242 23.2624 4.85868 23.2624 3.16497 23.2624C2.23332 23.2624 1.30167 23.2624 0.370022 23.2624C0.369758 23.2624 0.369494 23.2624 0.369231 23.2624C0.492316 23.3854 0.615376 23.5083 0.738462 23.6313C0.738462 22.7238 0.738462 21.8164 0.738462 20.909C0.738462 19.2171 0.738462 17.5252 0.738462 15.8333C0.738462 14.9027 0.738462 13.9721 0.738462 13.0415C0.738462 13.0412 0.738462 13.0409 0.738462 13.0407C0.615376 13.1637 0.492316 13.2866 0.369231 13.4095C1.27767 13.4095 2.18611 13.4095 3.09452 13.4095C4.78824 13.4095 6.48198 13.4095 8.17569 13.4095C9.10734 13.4095 10.039 13.4095 10.9706 13.4095C10.9709 13.4095 10.9712 13.4095 10.9714 13.4095C10.8483 13.2866 10.7253 13.1637 10.6022 13.0407C10.6022 13.9481 10.6022 14.8556 10.6022 15.763C10.6022 17.4549 10.6022 19.1467 10.6022 20.8386C10.6022 21.7692 10.6022 22.6998 10.6022 23.6305C10.6022 23.6308 10.6022 23.631 10.6022 23.6313C10.6022 23.8323 10.7701 24.0001 10.9714 24.0001C11.1727 24.0001 11.3407 23.8323 11.3407 23.6313C11.3407 22.7238 11.3407 21.8164 11.3407 20.909C11.3407 19.2171 11.3407 17.5252 11.3407 15.8333C11.3407 14.9027 11.3407 13.9721 11.3407 13.0415C11.3407 13.0412 11.3407 13.0409 11.3407 13.0407C11.3407 12.8396 11.1727 12.6719 10.9714 12.6719C10.063 12.6719 9.15455 12.6719 8.24614 12.6719C6.55242 12.6719 4.85868 12.6719 3.16497 12.6719C2.23332 12.6719 1.30167 12.6719 0.370022 12.6719C0.369758 12.6719 0.369494 12.6719 0.369231 12.6719C0.167947 12.6719 0 12.8396 0 13.0407C0 13.9481 0 14.8556 0 15.763C0 17.4549 0 19.1467 0 20.8386C0 21.7692 0 22.6998 0 23.6305C0 23.6308 0 23.631 0 23.6313C0 23.8323 0.167947 24.0001 0.369231 24.0001C1.27767 24.0001 2.18611 24.0001 3.09452 24.0001C4.78824 24.0001 6.48198 24.0001 8.17569 24.0001C9.10734 24.0001 10.039 24.0001 10.9706 24.0001C10.9709 24.0001 10.9712 24.0001 10.9714 24.0001C11.1727 24.0001 11.3407 23.8323 11.3407 23.6313C11.3407 23.4302 11.1727 23.2624 10.9714 23.2624Z" fill="#6C6C6C"/>
<path d="M23.6309 23.2624C22.7224 23.2624 21.814 23.2624 20.9056 23.2624C19.2118 23.2624 17.5181 23.2624 15.8244 23.2624C14.8927 23.2624 13.9611 23.2624 13.0294 23.2624C13.0292 23.2624 13.0289 23.2624 13.0287 23.2624C13.1517 23.3854 13.2748 23.5083 13.3979 23.6313C13.3979 22.7238 13.3979 21.8164 13.3979 20.909C13.3979 19.2171 13.3979 17.5252 13.3979 15.8333C13.3979 14.9027 13.3979 13.9721 13.3979 13.0415C13.3979 13.0412 13.3979 13.0409 13.3979 13.0407C13.2748 13.1637 13.1517 13.2866 13.0287 13.4095C13.9371 13.4095 14.8455 13.4095 15.7539 13.4095C17.4477 13.4095 19.1414 13.4095 20.8351 13.4095C21.7668 13.4095 22.6984 13.4095 23.6301 13.4095C23.6304 13.4095 23.6306 13.4095 23.6309 13.4095C23.5078 13.2866 23.3847 13.1637 23.2616 13.0407C23.2616 13.9481 23.2616 14.8556 23.2616 15.763C23.2616 17.4549 23.2616 19.1467 23.2616 20.8386C23.2616 21.7692 23.2616 22.6998 23.2616 23.6305C23.2616 23.6308 23.2616 23.631 23.2616 23.6313C23.2616 23.8323 23.4296 24.0001 23.6309 24.0001C23.8321 24.0001 24.0001 23.8323 24.0001 23.6313C24.0001 22.7238 24.0001 21.8164 24.0001 20.909C24.0001 19.2171 24.0001 17.5252 24.0001 15.8333C24.0001 14.9027 24.0001 13.9721 24.0001 13.0415C24.0001 13.0412 24.0001 13.0409 24.0001 13.0407C24.0001 12.8396 23.8321 12.6719 23.6309 12.6719C22.7224 12.6719 21.814 12.6719 20.9056 12.6719C19.2118 12.6719 17.5181 12.6719 15.8244 12.6719C14.8927 12.6719 13.9611 12.6719 13.0294 12.6719C13.0292 12.6719 13.0289 12.6719 13.0287 12.6719C12.8274 12.6719 12.6594 12.8396 12.6594 13.0407C12.6594 13.9481 12.6594 14.8556 12.6594 15.763C12.6594 17.4549 12.6594 19.1467 12.6594 20.8386C12.6594 21.7692 12.6594 22.6998 12.6594 23.6305C12.6594 23.6308 12.6594 23.631 12.6594 23.6313C12.6594 23.8323 12.8274 24.0001 13.0287 24.0001C13.9371 24.0001 14.8455 24.0001 15.7539 24.0001C17.4477 24.0001 19.1414 24.0001 20.8351 24.0001C21.7668 24.0001 22.6984 24.0001 23.6301 24.0001C23.6304 24.0001 23.6306 24.0001 23.6309 24.0001C23.8321 24.0001 24.0001 23.8323 24.0001 23.6313C24.0001 23.4302 23.8321 23.2624 23.6309 23.2624Z" fill="#6C6C6C"/>
</svg>
