<svg width="24" height="23" viewBox="0 0 24 23" fill="none" xmlns="http://www.w3.org/2000/svg">
<path d="M23.7449 8.5673L15.6086 7.68501L12.2607 0.169861C12.2147 0.0665405 12.1126 0 12 0C11.8874 0 11.7853 0.0665405 11.7393 0.169861L8.39136 7.68501L0.255144 8.5673C0.143137 8.57938 0.0488444 8.65659 0.013973 8.76426C-0.020759 8.87207 0.0104858 8.99027 0.0940379 9.06622L6.16112 14.5932L4.48059 22.6534C4.45744 22.7643 4.5011 22.8786 4.59218 22.9451C4.6834 23.0117 4.8049 23.018 4.90226 22.9618L12 18.8624L19.0977 22.9618C19.1418 22.9874 19.1909 23 19.2399 23C19.299 23 19.3579 22.9815 19.4078 22.9451C19.4989 22.8786 19.5426 22.7643 19.5194 22.6534L17.8389 14.5932L23.906 9.06622C23.9895 8.99027 24.0208 8.87207 23.986 8.76426C23.9512 8.65659 23.8569 8.57938 23.7449 8.5673ZM17.3339 14.2776C17.2586 14.3461 17.2251 14.4497 17.2461 14.5498L18.8295 22.144L12.1421 18.2817C12.0982 18.2563 12.0491 18.2435 12 18.2435C11.9509 18.2435 11.9018 18.2563 11.8579 18.2817L5.17049 22.144L6.75393 14.5498C6.77486 14.4497 6.74138 14.3461 6.66606 14.2776L0.949784 9.07029L8.61551 8.23895C8.7165 8.228 8.8041 8.16399 8.84566 8.07078L12 0.990247L15.1543 8.07078C15.1959 8.16399 15.2835 8.228 15.3845 8.23895L23.0502 9.07029L17.3339 14.2776Z" fill="#6C6C6C"/>
</svg>
