<svg width="375" height="224" viewBox="0 0 375 224" fill="none" xmlns="http://www.w3.org/2000/svg">
<rect width="380" height="312" transform="matrix(1 0 0 -1 0 312)" fill="url(#paint0_linear_108_965)"/>
<g opacity="0.5">
<path d="M374.168 90.1988H373.357V63.7595H374.168V90.1988Z" fill="#FF4124"/>
<path d="M361.402 148.876H360.59V15.6217H361.402V148.876Z" fill="#FF4124"/>
<path d="M348.636 111.841H347.824V78.2572H348.636V111.841Z" fill="#35B431"/>
<path d="M335.869 147.036H335.058V63.4938H335.869V147.036Z" fill="#FF4124"/>
<path d="M323.106 202.094H322.294V70.5151H323.106V202.094Z" fill="#FF4124"/>
<path d="M310.339 176.228H309.528V154.202H310.339V176.228Z" fill="#FF4124"/>
<path d="M297.573 182.588H296.761V162.461H297.573V182.588Z" fill="url(#paint1_linear_108_965)"/>
<path d="M284.809 182.605H283.998V154.505H284.809V182.605Z" fill="#35B431"/>
<path d="M272.043 170.402H271.231V129.77H272.043V170.402Z" fill="#35B431"/>
<path d="M259.277 176.762H258.465V136.698H259.277V176.762Z" fill="#FF4124"/>
<path d="M246.51 177.812H245.699V123.509H246.51V177.812Z" fill="#FF4124"/>
<path d="M233.744 146.996H232.933V104.847H233.744V146.996Z" fill="#35B431"/>
<path d="M220.98 133.195H220.169V97.5227H220.98V133.195Z" fill="#FF4124"/>
<path d="M208.214 123.529H207.403V96.3763H208.214V123.529Z" fill="#FF4124"/>
<path d="M195.448 122.688H194.636V86.2331H195.448V122.688Z" fill="#35B431"/>
<path d="M182.682 153.75H181.87V74.385H182.682V153.75Z" fill="#FF4124"/>
<path d="M169.918 137.444H169.106V95.2938H169.918V137.444Z" fill="#35B431"/>
<path d="M157.152 118.38H156.34V88.5358H157.152V118.38Z" fill="url(#paint2_linear_108_965)"/>
<path d="M144.385 112.537H143.574V77.529H144.385V112.537Z" fill="#35B431"/>
<path d="M131.619 126.567H130.807V44.3071H131.619V126.567Z" fill="#FF4124"/>
<path d="M118.855 112.699H118.044V73.2066H118.855V112.699Z" fill="#35B431"/>
<path d="M106.089 107.516H105.277V54.4946H106.089V107.516Z" fill="#35B431"/>
<path d="M93.3226 104.335H92.5112V42.1766H93.3226V104.335Z" fill="#FF4124"/>
<path d="M80.5563 114.692H79.7449V50.6592H80.5563V114.692Z" fill="#FF4124"/>
<path d="M67.7924 148.66H66.981V74.4932H67.7924V148.66Z" fill="#FF4124"/>
<path d="M55.0263 128.587H54.2148V58.5268H55.0263V128.587Z" fill="#35B431"/>
<path d="M42.2599 103.594H41.4485V40.3684H42.2599V103.594Z" fill="#35B431"/>
<path d="M29.4962 68.6159H28.6848V33.443H29.4962V68.6159Z" fill="#FF4124"/>
<path d="M16.7299 144.772H15.9185V25.8559H16.7299V144.772Z" fill="#FF4124"/>
<path d="M3.96351 195.469H3.1521V64.0794H3.96351V195.469Z" fill="#FF4124"/>
<path d="M377.817 80.9855H369.708V72.9728H377.817V80.9855Z" fill="#FF4124"/>
<path d="M365.051 110.443H356.941V54.0592H365.051V110.443Z" fill="#FF4124"/>
<path d="M352.285 100.135H344.175V89.9602H352.285V100.135Z" fill="#35B431"/>
<path d="M339.521 117.922H331.411V92.6073H339.521V117.922Z" fill="#FF4124"/>
<path d="M326.754 156.242H318.645V116.37H326.754V156.242Z" fill="#FF4124"/>
<path d="M313.988 168.555H305.879V161.88H313.988V168.555Z" fill="#FF4124"/>
<path d="M301.222 175.574H293.113V169.475H301.222V175.574Z" fill="#FF4124"/>
<path d="M288.458 172.811H280.349V164.296H288.458V172.811Z" fill="#35B431"/>
<path d="M275.692 156.242H267.583V143.929H275.692V156.242Z" fill="#35B431"/>
<path d="M262.926 162.801H254.816V150.66H262.926V162.801Z" fill="#FF4124"/>
<path d="M250.159 158.889H242.05V142.433H250.159V158.889Z" fill="#FF4124"/>
<path d="M237.395 132.307H229.286V119.534H237.395V132.307Z" fill="#35B431"/>
<path d="M224.629 120.764H216.52V109.954H224.629V120.764Z" fill="#FF4124"/>
<path d="M211.863 114.067H203.754V105.841H211.863V114.067Z" fill="#FF4124"/>
<path d="M199.097 109.983H190.987V98.9373H199.097V109.983Z" fill="#35B431"/>
<path d="M186.333 126.093H178.224V102.042H186.333V126.093Z" fill="#FF4124"/>
<path d="M173.567 122.757H165.457V109.983H173.567V122.757Z" fill="#35B431"/>
<path d="M160.8 107.981H152.691V98.9373H160.8V107.981Z" fill="#35B431"/>
<path d="M148.034 100.337H139.925V89.729H148.034V100.337Z" fill="#35B431"/>
<path d="M135.27 97.9016H127.161V72.9728H135.27V97.9016Z" fill="#FF4124"/>
<path d="M122.504 98.9349H114.395V86.9687H122.504V98.9349Z" fill="#35B431"/>
<path d="M109.738 89.0401H101.628V72.9728H109.738V89.0401Z" fill="#35B431"/>
<path d="M96.9715 82.6732H88.8623V63.8383H96.9715V82.6732Z" fill="#FF4124"/>
<path d="M84.2076 92.3761H76.0984V72.9728H84.2076V92.3761Z" fill="#FF4124"/>
<path d="M71.4413 122.813H63.332V100.337H71.4413V122.813Z" fill="#FF4124"/>
<path d="M58.6751 104.173H50.5659V82.9414H58.6751V104.173Z" fill="#35B431"/>
<path d="M45.9088 81.5612H37.7996V62.4015H45.9088V81.5612Z" fill="#35B431"/>
<path d="M33.1451 56.3594H25.0359V45.6995H33.1451V56.3594Z" fill="#FF4124"/>
<path d="M20.3788 106.33H12.2695V64.3008H20.3788V106.33Z" fill="#FF4124"/>
<path d="M7.61242 149.683H-0.496826V109.868H7.61242V149.683Z" fill="#FF4124"/>
</g>
<defs>
<linearGradient id="paint0_linear_108_965" x1="190" y1="0" x2="190" y2="344.78" gradientUnits="userSpaceOnUse">
<stop offset="0.15139" stop-color="#E0FFD2"/>
<stop offset="1" stop-color="white" stop-opacity="0"/>
</linearGradient>
<linearGradient id="paint1_linear_108_965" x1="297.167" y1="162.461" x2="297.167" y2="182.588" gradientUnits="userSpaceOnUse">
<stop stop-color="#FF2A00"/>
<stop offset="1" stop-color="#FF6A00"/>
</linearGradient>
<linearGradient id="paint2_linear_108_965" x1="156.746" y1="88.5358" x2="156.746" y2="118.38" gradientUnits="userSpaceOnUse">
<stop stop-color="#007C87"/>
<stop offset="1" stop-color="#00C795"/>
</linearGradient>
</defs>
</svg>
