<svg width="20" height="20" viewBox="0 0 20 20" fill="none" xmlns="http://www.w3.org/2000/svg">
<path d="M18 5V17.3333C18 17.7015 17.7015 18 17.3333 18H2.66667C2.29848 18 2 17.7015 2 17.3333V5H18Z" stroke="#6C6C6C" stroke-width="0.5" stroke-miterlimit="10" stroke-linecap="round" stroke-linejoin="round"/>
<path d="M18 4.99999V3.49999C18 3.1318 17.7015 2.83333 17.3333 2.83333H2.66667C2.29848 2.83333 2 3.1318 2 3.49999V4.99999H18Z" stroke="#6C6C6C" stroke-width="0.5" stroke-miterlimit="10" stroke-linecap="round" stroke-linejoin="round"/>
<path d="M5.67993 14.1833H3.92993V15.9333H5.67993V14.1833Z" stroke="#6C6C6C" stroke-width="0.5" stroke-miterlimit="10" stroke-linecap="round" stroke-linejoin="round"/>
<path d="M5.67993 7.06665H3.92993V8.81665H5.67993V7.06665Z" stroke="#6C6C6C" stroke-width="0.5" stroke-miterlimit="10" stroke-linecap="round" stroke-linejoin="round"/>
<path d="M5.67993 10.6267H3.92993V12.3733H5.67993V10.6267Z" stroke="#6C6C6C" stroke-width="0.5" stroke-miterlimit="10" stroke-linecap="round" stroke-linejoin="round"/>
<path d="M12.6067 7.06665H10.8567V8.81665H12.6067V7.06665Z" stroke="#6C6C6C" stroke-width="0.5" stroke-miterlimit="10" stroke-linecap="round" stroke-linejoin="round"/>
<path d="M9.14331 14.1833H7.39331V15.9333H9.14331V14.1833Z" stroke="#6C6C6C" stroke-width="0.5" stroke-miterlimit="10" stroke-linecap="round" stroke-linejoin="round"/>
<path d="M12.6067 10.6267H10.8567V12.3733H12.6067V10.6267Z" stroke="#6C6C6C" stroke-width="0.5" stroke-miterlimit="10" stroke-linecap="round" stroke-linejoin="round"/>
<path d="M9.14331 10.6267H7.39331V12.3733H9.14331V10.6267Z" stroke="#6C6C6C" stroke-width="0.5" stroke-miterlimit="10" stroke-linecap="round" stroke-linejoin="round"/>
<path d="M9.14331 7.06665H7.39331V8.81665H9.14331V7.06665Z" stroke="#6C6C6C" stroke-width="0.5" stroke-miterlimit="10" stroke-linecap="round" stroke-linejoin="round"/>
<path d="M16.0701 7.06665H14.3201V8.81665H16.0701V7.06665Z" stroke="#6C6C6C" stroke-width="0.5" stroke-miterlimit="10" stroke-linecap="round" stroke-linejoin="round"/>
<path d="M16.0701 14.1833H14.3201V15.9333H16.0701V14.1833Z" stroke="#6C6C6C" stroke-width="0.5" stroke-miterlimit="10" stroke-linecap="round" stroke-linejoin="round"/>
<path d="M12.6067 14.1833H10.8567V15.9333H12.6067V14.1833Z" stroke="#6C6C6C" stroke-width="0.5" stroke-miterlimit="10" stroke-linecap="round" stroke-linejoin="round"/>
<path d="M16.0701 10.6267H14.3201V12.3733H16.0701V10.6267Z" stroke="#6C6C6C" stroke-width="0.5" stroke-miterlimit="10" stroke-linecap="round" stroke-linejoin="round"/>
<path d="M4.42017 3.57292V2" stroke="#6C6C6C" stroke-width="0.5" stroke-miterlimit="10" stroke-linecap="round" stroke-linejoin="round"/>
<path d="M5.62842 3.57292V2" stroke="#6C6C6C" stroke-width="0.5" stroke-miterlimit="10" stroke-linecap="round" stroke-linejoin="round"/>
<path d="M14.3716 3.57292V2" stroke="#6C6C6C" stroke-width="0.5" stroke-miterlimit="10" stroke-linecap="round" stroke-linejoin="round"/>
<path d="M15.5798 3.57292V2" stroke="#6C6C6C" stroke-width="0.5" stroke-miterlimit="10" stroke-linecap="round" stroke-linejoin="round"/>
</svg>
