<svg width="20" height="20" viewBox="0 0 20 20" fill="none" xmlns="http://www.w3.org/2000/svg">
<rect x="2.35547" y="5.41943" width="15.9677" height="9.12903" fill="#013076"/>
<path d="M17.6465 5H2.99871C2.73384 5 2.47981 5.10536 2.29252 5.29289C2.10522 5.48043 2 5.73478 2 6V14C2 14.2652 2.10522 14.5196 2.29252 14.7071C2.47981 14.8946 2.73384 15 2.99871 15H17.6465C17.9113 15 18.1653 14.8946 18.3526 14.7071C18.5399 14.5196 18.6452 14.2652 18.6452 14V6C18.6452 5.73478 18.5399 5.48043 18.3526 5.29289C18.1653 5.10536 17.9113 5 17.6465 5ZM2.66581 6C2.66581 5.91159 2.70088 5.82681 2.76331 5.7643C2.82574 5.70179 2.91042 5.66667 2.99871 5.66667H17.6465C17.7347 5.66667 17.8194 5.70179 17.8818 5.7643C17.9443 5.82681 17.9794 5.91159 17.9794 6V12.3333H2.66581V6ZM17.9794 14C17.9794 14.0884 17.9443 14.1732 17.8818 14.2357C17.8194 14.2982 17.7347 14.3333 17.6465 14.3333H2.99871C2.91042 14.3333 2.82574 14.2982 2.76331 14.2357C2.70088 14.1732 2.66581 14.0884 2.66581 14V13H17.9794V14Z" fill="#013076"/>
<path d="M15.6593 7.00002C15.2991 6.99807 14.9483 7.11486 14.6613 7.33228C14.3743 7.11486 14.0235 6.99807 13.6633 7.00002C13.2222 7.00002 12.7991 7.17505 12.4872 7.4866C12.1752 7.79815 12 8.2207 12 8.66129C12 9.10189 12.1752 9.52444 12.4872 9.83598C12.7991 10.1475 13.2222 10.3226 13.6633 10.3226C14.0235 10.3245 14.3743 10.2077 14.6613 9.9903C14.9483 10.2077 15.2991 10.3245 15.6593 10.3226C16.1004 10.3226 16.5235 10.1475 16.8354 9.83598C17.1473 9.52444 17.3226 9.10189 17.3226 8.66129C17.3226 8.2207 17.1473 7.79815 16.8354 7.4866C16.5235 7.17505 16.1004 7.00002 15.6593 7.00002ZM13.6633 9.65805C13.3986 9.65805 13.1448 9.55304 12.9576 9.36611C12.7705 9.17918 12.6653 8.92565 12.6653 8.66129C12.6653 8.39693 12.7705 8.1434 12.9576 7.95647C13.1448 7.76955 13.3986 7.66453 13.6633 7.66453C13.8627 7.66507 14.0574 7.72524 14.2222 7.8373C14.0715 8.08823 13.9919 8.37533 13.9919 8.66794C13.9919 8.96054 14.0715 9.24765 14.2222 9.49857C14.0559 9.60593 13.8613 9.66145 13.6633 9.65805ZM15.6593 9.65805C15.4599 9.65751 15.2652 9.59734 15.1004 9.48528C15.2511 9.23436 15.3307 8.94725 15.3307 8.65465C15.3307 8.36204 15.2511 8.07493 15.1004 7.82401C15.2667 7.71665 15.4613 7.66113 15.6593 7.66453C15.924 7.66453 16.1778 7.76955 16.365 7.95647C16.5521 8.1434 16.6573 8.39693 16.6573 8.66129C16.6573 8.92565 16.5521 9.17918 16.365 9.36611C16.1778 9.55304 15.924 9.65805 15.6593 9.65805Z" fill="white"/>
<path d="M8.98893 8.32251H3.6556C3.56719 8.32251 3.48241 8.35819 3.4199 8.42172C3.35738 8.48524 3.32227 8.57139 3.32227 8.66122C3.32227 8.75105 3.35738 8.8372 3.4199 8.90072C3.48241 8.96424 3.56719 8.99993 3.6556 8.99993H8.98893C9.07734 8.99993 9.16212 8.96424 9.22463 8.90072C9.28715 8.8372 9.32227 8.75105 9.32227 8.66122C9.32227 8.57139 9.28715 8.48524 9.22463 8.42172C9.16212 8.35819 9.07734 8.32251 8.98893 8.32251Z" fill="white"/>
<path d="M6.98893 9.67749H3.6556C3.56719 9.67749 3.48241 9.71148 3.4199 9.77197C3.35738 9.83247 3.32227 9.91452 3.32227 10.0001C3.32227 10.0856 3.35738 10.1677 3.4199 10.2282C3.48241 10.2887 3.56719 10.3227 3.6556 10.3227H6.98893C7.07734 10.3227 7.16212 10.2887 7.22463 10.2282C7.28715 10.1677 7.32227 10.0856 7.32227 10.0001C7.32227 9.91452 7.28715 9.83247 7.22463 9.77197C7.16212 9.71148 7.07734 9.67749 6.98893 9.67749Z" fill="white"/>
<rect x="2.0332" y="12.3547" width="16.6129" height="0.612903" fill="white"/>
</svg>
