<svg width="20" height="20" viewBox="0 0 20 20" fill="none" xmlns="http://www.w3.org/2000/svg">
<path d="M12.5635 2.0675C12.5419 2.04597 12.5163 2.02892 12.488 2.01733C12.4598 2.00574 12.4295 1.99985 12.399 2H3.59054C3.52916 2 3.4703 2.02427 3.4269 2.06747C3.3835 2.11066 3.35912 2.16925 3.35912 2.23033V2.78888L1.20546 3.03176C1.14447 3.03861 1.08872 3.0693 1.05046 3.11707C1.0122 3.16483 0.994577 3.22577 1.00146 3.28647L2.65391 17.7955C2.66037 17.8518 2.68739 17.9037 2.72983 17.9414C2.77227 17.9791 2.82715 18 2.88404 18C2.89272 18.0001 2.90139 17.9996 2.91 17.9985L11.2113 17.0619H14.9089C14.9393 17.062 14.9694 17.056 14.9975 17.0445C15.0256 17.0329 15.0511 17.0159 15.0726 16.9945C15.0941 16.9731 15.1112 16.9477 15.1228 16.9198C15.1345 16.8918 15.1405 16.8619 15.1405 16.8316V4.72722C15.1406 4.69683 15.1346 4.66673 15.123 4.63863C15.1113 4.61053 15.0942 4.58499 15.0727 4.56348L12.5635 2.0675ZM12.6313 2.78669L14.3495 4.49689H12.6313V2.78669ZM3.08786 17.515L1.48769 3.46386L3.35912 3.25281V16.832C3.35912 16.8931 3.3835 16.9516 3.4269 16.9948C3.4703 17.038 3.52916 17.0623 3.59054 17.0623H7.10016L3.08786 17.515ZM3.82214 16.6015V2.4603H12.1686V4.72722C12.1686 4.78836 12.193 4.84699 12.2365 4.89022C12.2799 4.93345 12.3388 4.95774 12.4002 4.95774H14.6778V16.6016L3.82214 16.6015ZM13.3484 8.65085C13.3484 8.68112 13.3424 8.71108 13.3307 8.73904C13.3191 8.767 13.302 8.7924 13.2805 8.81379C13.259 8.83518 13.2335 8.85214 13.2054 8.8637C13.1773 8.87527 13.1472 8.88121 13.1168 8.88118H5.38264C5.32236 8.8795 5.26513 8.85448 5.22309 8.81145C5.18106 8.76843 5.15754 8.71078 5.15754 8.65076C5.15754 8.59075 5.18106 8.5331 5.22309 8.49007C5.26513 8.44704 5.32236 8.42203 5.38264 8.42034H13.1168C13.1472 8.42034 13.1773 8.42631 13.2055 8.4379C13.2336 8.4495 13.2591 8.4665 13.2806 8.48792C13.3021 8.50935 13.3192 8.53478 13.3308 8.56277C13.3424 8.59075 13.3484 8.62057 13.3484 8.65085ZM13.3484 10.0905C13.3484 10.1516 13.324 10.2103 13.2805 10.2535C13.2371 10.2967 13.1782 10.321 13.1168 10.321H5.38264C5.32236 10.3193 5.26513 10.2943 5.22309 10.2513C5.18106 10.2083 5.15754 10.1506 5.15754 10.0906C5.15754 10.0306 5.18106 9.97294 5.22309 9.92991C5.26513 9.88688 5.32236 9.86187 5.38264 9.86018H13.1168C13.1472 9.86016 13.1774 9.86611 13.2055 9.8777C13.2336 9.88928 13.2592 9.90628 13.2807 9.92771C13.3022 9.94914 13.3192 9.97458 13.3309 10.0026C13.3425 10.0306 13.3484 10.0606 13.3484 10.0909V10.0905ZM13.3484 11.5304C13.3484 11.5915 13.324 11.6501 13.2805 11.6934C13.2371 11.7366 13.1782 11.7609 13.1168 11.7609H5.38264C5.32236 11.7592 5.26513 11.7342 5.22309 11.6911C5.18106 11.6481 5.15754 11.5905 5.15754 11.5304C5.15754 11.4704 5.18106 11.4128 5.22309 11.3698C5.26513 11.3267 5.32236 11.3017 5.38264 11.3H13.1168C13.1472 11.3 13.1773 11.3059 13.2054 11.3175C13.2335 11.3291 13.2591 11.3461 13.2806 11.3675C13.3021 11.3889 13.3192 11.4143 13.3308 11.4423C13.3424 11.4703 13.3484 11.5001 13.3484 11.5304ZM13.3484 12.9702C13.3484 13.0313 13.324 13.09 13.2805 13.1332C13.2371 13.1764 13.1782 13.2007 13.1168 13.2007H5.38264C5.32121 13.2007 5.26231 13.1764 5.21887 13.1332C5.17544 13.09 5.15104 13.0313 5.15104 12.9702C5.15104 12.9091 5.17544 12.8504 5.21887 12.8072C5.26231 12.764 5.32121 12.7397 5.38264 12.7397H13.1168C13.1472 12.7397 13.1773 12.7457 13.2055 12.7572C13.2336 12.7688 13.2591 12.7858 13.2806 12.8073C13.3021 12.8287 13.3192 12.8541 13.3308 12.8821C13.3424 12.9101 13.3484 12.9401 13.3484 12.9704V12.9702ZM7.06269 6.58752C7.06269 6.52638 7.08709 6.46775 7.13052 6.42452C7.17395 6.38129 7.23286 6.357 7.29428 6.357H11.75C11.781 6.35614 11.8118 6.36146 11.8406 6.37265C11.8695 6.38384 11.8958 6.40067 11.918 6.42216C11.9402 6.44364 11.9578 6.46933 11.9699 6.49772C11.9819 6.52611 11.9881 6.55661 11.9881 6.58743C11.9881 6.61824 11.9819 6.64875 11.9699 6.67713C11.9578 6.70552 11.9402 6.73122 11.918 6.7527C11.8958 6.77418 11.8695 6.79101 11.8406 6.8022C11.8118 6.81339 11.781 6.81871 11.75 6.81785H7.29428C7.26388 6.81787 7.23377 6.81193 7.20567 6.80037C7.17757 6.7888 7.15204 6.77184 7.13053 6.75045C7.10902 6.72906 7.09196 6.70366 7.08032 6.6757C7.06868 6.64775 7.06269 6.61778 7.06269 6.58752ZM7.06269 5.47134C7.06269 5.44108 7.06868 5.41111 7.08032 5.38316C7.09196 5.3552 7.10902 5.3298 7.13053 5.30841C7.15204 5.28702 7.17757 5.27006 7.20567 5.25849C7.23377 5.24693 7.26388 5.24099 7.29428 5.24101H9.99121C10.0222 5.24014 10.053 5.24546 10.0818 5.25665C10.1107 5.26784 10.137 5.28468 10.1592 5.30616C10.1814 5.32764 10.199 5.35334 10.2111 5.38172C10.2231 5.41011 10.2293 5.44062 10.2293 5.47143C10.2293 5.50225 10.2231 5.53275 10.2111 5.56114C10.199 5.58953 10.1814 5.61522 10.1592 5.6367C10.137 5.65818 10.1107 5.67502 10.0818 5.68621C10.053 5.6974 10.0222 5.70272 9.99121 5.70185H7.29428C7.23286 5.70185 7.17395 5.67757 7.13052 5.63434C7.08709 5.59111 7.06269 5.53248 7.06269 5.47134ZM5.15122 6.58115V6.37611C5.15035 6.3453 5.1557 6.31464 5.16694 6.28593C5.17818 6.25721 5.1951 6.23104 5.21668 6.20894C5.23826 6.18685 5.26408 6.16928 5.2926 6.15729C5.32112 6.1453 5.35177 6.13912 5.38273 6.13912C5.41369 6.13912 5.44434 6.1453 5.47286 6.15729C5.50138 6.16928 5.52719 6.18685 5.54878 6.20894C5.57036 6.23104 5.58727 6.25721 5.59852 6.28593C5.60976 6.31464 5.61511 6.3453 5.61424 6.37611V6.58079C5.61305 6.60632 5.61857 6.63173 5.63023 6.6545C5.6419 6.67728 5.65931 6.69664 5.68077 6.71069C5.74669 6.75312 5.82403 6.77457 5.9025 6.77218C5.9142 6.77218 6.19278 6.77 6.19278 6.58079V6.18271C6.19278 6.10994 6.12075 6.07027 5.842 5.99386C5.56781 5.91854 5.15122 5.80447 5.15122 5.36072V4.96265C5.15267 4.81486 5.20525 4.67209 5.30011 4.55838C5.39497 4.44468 5.52631 4.367 5.672 4.33843V4.1383C5.67369 4.07831 5.69883 4.02134 5.74206 3.9795C5.78529 3.93766 5.84321 3.91426 5.90351 3.91426C5.9638 3.91426 6.02172 3.93766 6.06495 3.9795C6.10818 4.02134 6.13332 4.07831 6.13501 4.1383V4.33843C6.22937 4.36174 6.31852 4.40241 6.39787 4.45832C6.47861 4.51509 6.54427 4.59054 6.5892 4.67817C6.63413 4.7658 6.65698 4.863 6.65579 4.96137V5.16605C6.65666 5.19686 6.65131 5.22752 6.64007 5.25623C6.62883 5.28495 6.61191 5.31112 6.59033 5.33322C6.56875 5.35531 6.54293 5.37288 6.51441 5.38487C6.48589 5.39686 6.45524 5.40304 6.42428 5.40304C6.39332 5.40304 6.36267 5.39686 6.33415 5.38487C6.30563 5.37288 6.27982 5.35531 6.25823 5.33322C6.23665 5.31112 6.21974 5.28495 6.20849 5.25623C6.19725 5.22752 6.19191 5.19686 6.19278 5.16605V4.96265C6.19396 4.93711 6.18844 4.91171 6.17678 4.88893C6.16511 4.86616 6.1477 4.84679 6.12624 4.83275C6.06032 4.79032 5.98298 4.76887 5.90451 4.77125C5.89263 4.77125 5.61424 4.77343 5.61424 4.96265V5.36054C5.61424 5.43332 5.68626 5.47298 5.96502 5.54939C6.24012 5.62471 6.65579 5.7386 6.65579 6.18253V6.5806C6.65434 6.72837 6.60175 6.87112 6.50688 6.98479C6.41202 7.09846 6.28069 7.17611 6.13501 7.20464V7.40477C6.13588 7.43558 6.13054 7.46624 6.11929 7.49496C6.10805 7.52367 6.09114 7.54985 6.06955 7.57194C6.04797 7.59404 6.02216 7.6116 5.99364 7.62359C5.96511 7.63558 5.93447 7.64176 5.90351 7.64176C5.87254 7.64176 5.8419 7.63558 5.81338 7.62359C5.78486 7.6116 5.75904 7.59404 5.73746 7.57194C5.71587 7.54985 5.69896 7.52367 5.68772 7.49496C5.67647 7.46624 5.67113 7.43558 5.672 7.40477V7.20464C5.57764 7.18133 5.48849 7.14066 5.40914 7.08475C5.32829 7.02789 5.26256 6.95229 5.21762 6.86449C5.17268 6.77668 5.1499 6.67931 5.15122 6.58079V6.58115ZM13.0923 14.5734C13.0734 14.6316 13.0321 14.6799 12.9774 14.7077C12.9227 14.7356 12.8592 14.7407 12.8007 14.7219C12.7227 14.6966 12.6401 14.6881 12.5585 14.6972C12.4769 14.7062 12.3982 14.7325 12.3277 14.7743C11.6645 15.0508 11.3883 14.9495 11.1814 14.8327L11.1688 14.8256C10.9958 14.9098 10.8183 14.9666 10.6714 14.8632C10.5111 14.7506 10.535 14.5618 10.5544 14.4099C10.5564 14.3942 10.5586 14.378 10.5604 14.3615L10.4507 14.4342C9.82834 14.8461 9.577 14.9937 9.40591 15.0017H9.39476C9.33543 15.0012 9.27855 14.9781 9.23583 14.9372C9.19311 14.8962 9.16782 14.8405 9.16517 14.7815C9.16253 14.7225 9.18272 14.6647 9.22159 14.6201C9.26047 14.5755 9.31505 14.5475 9.3741 14.5418C9.65999 14.3996 9.93423 14.2354 10.1943 14.0505C10.6164 13.7711 10.6706 13.7354 10.792 13.7627C10.823 13.7698 10.8523 13.7831 10.8781 13.8017C10.9039 13.8203 10.9256 13.8438 10.9421 13.871C11.0248 14.0285 11.0537 14.2086 11.0244 14.384C11.0877 14.3601 11.156 14.352 11.2232 14.3603C11.2904 14.3685 11.3546 14.393 11.4102 14.4315C11.5016 14.4832 11.6402 14.5614 12.1493 14.3491C12.2708 14.2865 12.4036 14.2484 12.5399 14.2371C12.6763 14.2257 12.8136 14.2414 12.9439 14.283C12.9728 14.2924 12.9995 14.3073 13.0226 14.327C13.0457 14.3467 13.0647 14.3707 13.0785 14.3976C13.0923 14.4246 13.1006 14.454 13.103 14.4842C13.1053 14.5143 13.1017 14.5446 13.0923 14.5734ZM17.4192 7.23284V6.4396C17.4192 6.30697 17.3278 5.58705 16.9256 5.58705H16.4036C16.0014 5.58705 15.91 6.30697 15.91 6.4396V13.8751C15.9102 13.9056 15.9164 13.9357 15.9283 13.9637L16.4511 15.2126C16.4687 15.2545 16.4984 15.2903 16.5364 15.3155C16.5744 15.3407 16.6191 15.3542 16.6648 15.3542C16.7105 15.3542 16.7551 15.3407 16.7932 15.3155C16.8312 15.2903 16.8609 15.2545 16.8785 15.2126L17.4011 13.9637C17.4129 13.9357 17.4192 13.9056 17.4194 13.8751V7.7621C17.5108 7.82414 17.5369 7.8638 17.5369 7.88945V9.34494C17.536 9.37574 17.5414 9.40641 17.5526 9.43512C17.5639 9.46383 17.5808 9.49001 17.6024 9.51211C17.6239 9.5342 17.6498 9.55176 17.6783 9.56376C17.7068 9.57575 17.7374 9.58193 17.7684 9.58193C17.7994 9.58193 17.83 9.57575 17.8585 9.56376C17.8871 9.55176 17.9129 9.5342 17.9344 9.51211C17.956 9.49001 17.9729 9.46383 17.9842 9.43512C17.9954 9.40641 18.0008 9.37574 17.9999 9.34494V7.88945C17.9997 7.54814 17.6548 7.3491 17.4192 7.23284ZM16.3738 13.6448V6.89208H16.9562V13.6448H16.3738ZM16.4725 6.0479H16.8575C16.914 6.16844 16.9474 6.29846 16.9558 6.43123H16.374C16.3824 6.29844 16.4158 6.16839 16.4725 6.0479ZM16.6653 14.5248L16.4899 14.1064H16.8406L16.6653 14.5248Z" fill="#222222"/>
</svg>
