<svg width="18" height="14" viewBox="0 0 18 14" fill="none" xmlns="http://www.w3.org/2000/svg">
<path d="M11.1398 0.000697167C11.0904 0.00683679 11.0505 0.0485564 11.0155 0.0673163L0.506118 10.773C0.475794 10.8035 0.454972 10.8436 0.447271 10.8863L0.00256666 13.7509C-0.020244 13.8849 0.112958 14.0206 0.244527 13.9974L3.05665 13.5444C3.1008 13.5378 3.14272 13.5165 3.17434 13.4844L13.6772 2.77872C13.7537 2.69991 13.7537 2.55774 13.6772 2.47893L11.3098 0.0673163C11.2668 0.0206403 11.2024 -0.00460892 11.1398 0.000697167ZM11.166 0.520327L13.2391 2.63215L12.1992 3.6914L10.1261 1.57957L11.166 0.520327ZM9.83184 1.87936L11.9049 3.99119L3.32477 12.7316L1.25167 10.6198L9.83184 1.87936ZM0.957372 10.9196L3.02394 13.0314L2.9193 13.138L0.4669 13.5311L0.846186 11.0328L0.957372 10.9196ZM6.07147 13.571C5.95589 13.571 5.8622 13.6665 5.8622 13.7842C5.8622 13.9019 5.95589 13.9974 6.07147 13.9974H17.7907C17.9063 13.9974 18 13.9019 18 13.7842C18 13.6665 17.9063 13.571 17.7907 13.571H6.07147Z" fill="#6C6C6C"/>
</svg>
