<svg width="20" height="20" viewBox="0 0 20 20" fill="none" xmlns="http://www.w3.org/2000/svg">
<path d="M19 10C19 14.9706 14.9706 19 10 19C5.02944 19 1 14.9706 1 10C1 5.02944 5.02944 1 10 1C14.9706 1 19 5.02944 19 10Z" stroke="#494949" stroke-linecap="round" stroke-linejoin="round"/>
<path d="M6.90499 11.475C6.94031 11.2985 6.95796 11.2102 6.99025 11.1279C7.01891 11.0548 7.05608 10.9853 7.10098 10.921C7.15157 10.8484 7.21523 10.7848 7.34255 10.6574L11.5 6.5C12.0523 5.94772 12.9477 5.94772 13.5 6.5C14.0523 7.05228 14.0523 7.94772 13.5 8.5L9.34255 12.6574C9.21523 12.7848 9.15156 12.8484 9.07903 12.899C9.01465 12.9439 8.94521 12.9811 8.87214 13.0097C8.78982 13.042 8.70153 13.0597 8.52497 13.095L6.5 13.5L6.90499 11.475Z" stroke="#494949" stroke-linecap="round" stroke-linejoin="round"/>
</svg>
