<svg width="20" height="12" viewBox="0 0 20 12" fill="none" xmlns="http://www.w3.org/2000/svg">
<path d="M20 0.2C20 0.171429 20 0.171429 19.9711 0.142857V0.114286C19.9711 0.114286 19.9711 0.114285 19.9421 0.0857141C19.9421 0.0571426 19.9132 0.0571431 19.9132 0.0571431C19.8842 0.0571431 19.8842 0.0285715 19.8553 0.0285715C19.8263 0.0285715 19.8263 0.0285714 19.7974 0C19.7685 0 19.7684 0 19.7395 0H19.7106H0.289436H0.260492C0.231548 0 0.231549 0 0.202605 0C0.173662 0 0.173661 1.08566e-07 0.144718 0.0285715C0.115774 0.0285715 0.115774 0.0571431 0.0868307 0.0571431C0.0578872 0.0571431 0.0578873 0.0857141 0.0578873 0.0857141C0.0578873 0.0857141 0.0578872 0.0857142 0.0289437 0.114286V0.142857C0.0289437 0.171429 0 0.171429 0 0.2C0 0.228572 0 0.228571 0 0.257143V0.285714V11.7143V11.7429C0 11.7714 0 11.7714 0 11.8C0 11.8286 1.0998e-07 11.8286 0.0289437 11.8571V11.8857C0.0289437 11.8857 0.0289438 11.8857 0.0578873 11.8857C0.0868309 11.9143 0.115774 11.9429 0.115774 11.9429C0.115774 11.9429 0.144718 11.9429 0.144718 11.9714C0.173661 12 0.231548 12 0.260492 12H19.7106C19.7684 12 19.7974 12 19.8263 11.9714C19.8263 11.9714 19.8553 11.9714 19.8553 11.9429C19.8842 11.9143 19.9132 11.9143 19.9132 11.8857V11.8571C19.9132 11.8286 19.9421 11.8286 19.9421 11.8C19.9421 11.7714 19.9421 11.7714 19.9421 11.7429V11.7143V0.285714V0.257143C20 0.228571 20 0.2 20 0.2ZM0.578871 0.8L8.24891 5.91429L0.578871 11.1714V0.8ZM10.1592 6.51429L1.24457 0.571429H18.8133L10.1592 6.51429ZM8.7699 6.25714L9.98553 7.08571C10.0434 7.11429 10.1013 7.14286 10.1592 7.14286C10.2171 7.14286 10.275 7.11429 10.3328 7.08571L11.6064 6.2C11.6064 6.2 11.6064 6.22857 11.6353 6.22857L18.8712 11.4286H1.21563L8.7699 6.25714ZM12.0984 5.85714L19.4501 0.8V11.1429L12.0984 5.85714Z" fill="#222222"/>
</svg>
