<svg width="30" height="30" viewBox="0 0 30 30" fill="none" xmlns="http://www.w3.org/2000/svg">
<path d="M10.5 20.625V13.875M19.5 20.625V17.25M15 20.625V9.375M11.4 24H18.6C20.4902 24 21.4353 24 22.1572 23.6321C22.7923 23.3086 23.3086 22.7923 23.6321 22.1572C24 21.4353 24 20.4902 24 18.6V11.4C24 9.50982 24 8.56473 23.6321 7.84278C23.3086 7.20774 22.7923 6.69143 22.1572 6.36785C21.4353 6 20.4902 6 18.6 6H11.4C9.50982 6 8.56473 6 7.84278 6.36785C7.20774 6.69143 6.69143 7.20774 6.36785 7.84278C6 8.56473 6 9.50982 6 11.4V18.6C6 20.4902 6 21.4353 6.36785 22.1572C6.69143 22.7923 7.20774 23.3086 7.84278 23.6321C8.56473 24 9.50982 24 11.4 24Z" stroke="#EF682E" stroke-linecap="round" stroke-linejoin="round"/>
</svg>
