<svg width="30" height="30" viewBox="0 0 30 30" fill="none" xmlns="http://www.w3.org/2000/svg">
<path d="M5 15.1075V17.8621C5 20.3606 5 21.6099 5.48624 22.5642C5.91394 23.4036 6.59641 24.0861 7.43584 24.5138C8.39013 25 9.63937 25 12.1379 25H17.9374C20.4358 25 21.6851 25 22.6394 24.5138C23.4788 24.0861 24.1613 23.4036 24.589 22.5642C25.0752 21.6099 25.0752 20.3606 25.0752 17.8621V15.1075C25.0752 13.8264 25.0752 13.1858 24.9101 12.5959C24.7638 12.0733 24.5235 11.5819 24.2008 11.1456C23.8365 10.6531 23.3309 10.2598 22.3196 9.47325L19.4198 7.21788C17.8525 5.99886 17.0689 5.38934 16.2035 5.15505C15.44 4.94832 14.6352 4.94832 13.8717 5.15505C13.0064 5.38934 12.2227 5.99885 10.6554 7.21788L7.75564 9.47325C6.74436 10.2598 6.23872 10.6531 5.87445 11.1456C5.55177 11.5819 5.31139 12.0733 5.16512 12.5959C5 13.1858 5 13.8264 5 15.1075Z" fill="#001C46"/>
<path d="M11.6917 20.5388H18.3835M5 17.8621V15.1075C5 13.8264 5 13.1858 5.16512 12.5959C5.31139 12.0733 5.55177 11.5819 5.87445 11.1456C6.23872 10.6531 6.74436 10.2598 7.75564 9.47325L10.6554 7.21788C12.2227 5.99885 13.0064 5.38934 13.8717 5.15505C14.6352 4.94832 15.44 4.94832 16.2035 5.15505C17.0689 5.38934 17.8525 5.99886 19.4198 7.21788L22.3196 9.47325C23.3309 10.2598 23.8365 10.6531 24.2008 11.1456C24.5235 11.5819 24.7638 12.0733 24.9101 12.5959C25.0752 13.1858 25.0752 13.8264 25.0752 15.1075V17.8621C25.0752 20.3606 25.0752 21.6099 24.589 22.5642C24.1613 23.4036 23.4788 24.0861 22.6394 24.5138C21.6851 25 20.4358 25 17.9374 25H12.1379C9.63937 25 8.39013 25 7.43584 24.5138C6.59641 24.0861 5.91394 23.4036 5.48624 22.5642C5 21.6099 5 20.3606 5 17.8621Z" stroke="white" stroke-linecap="round" stroke-linejoin="round"/>
</svg>
