<svg width="30" height="30" viewBox="0 0 30 30" fill="none" xmlns="http://www.w3.org/2000/svg">
<path d="M14.6195 6.08049C14.8941 5.46459 15.0313 5.15663 15.2225 5.06179C15.3885 4.9794 15.5835 4.9794 15.7496 5.06179C15.9407 5.15663 16.078 5.46459 16.3525 6.08049L18.5393 10.9863C18.6204 11.1684 18.661 11.2594 18.7238 11.3291C18.7794 11.3908 18.8473 11.4402 18.9231 11.4739C19.0088 11.5121 19.108 11.5226 19.3062 11.5435L24.6476 12.1073C25.3182 12.178 25.6535 12.2134 25.8028 12.3659C25.9325 12.4984 25.9927 12.6838 25.9657 12.8672C25.9346 13.0783 25.6841 13.304 25.1832 13.7554L21.1932 17.3511C21.0451 17.4846 20.9711 17.5513 20.9242 17.6326C20.8827 17.7045 20.8568 17.7843 20.8481 17.8669C20.8382 17.9602 20.8589 18.0577 20.9003 18.2527L22.0147 23.5069C22.1546 24.1666 22.2246 24.4964 22.1257 24.6855C22.0398 24.8497 21.882 24.9644 21.6993 24.9953C21.4889 25.0309 21.1968 24.8625 20.6127 24.5256L15.96 21.842C15.7873 21.7424 15.701 21.6926 15.6092 21.6731C15.528 21.6559 15.4441 21.6559 15.3628 21.6731C15.2711 21.6926 15.1847 21.7424 15.012 21.842L10.3594 24.5256C9.77522 24.8625 9.48316 25.0309 9.27277 24.9953C9.09002 24.9644 8.93225 24.8497 8.84635 24.6855C8.74746 24.4964 8.81742 24.1666 8.95733 23.5069L10.0718 18.2527C10.1131 18.0577 10.1338 17.9602 10.124 17.8669C10.1153 17.7843 10.0894 17.7045 10.0479 17.6326C10.0009 17.5513 9.92691 17.4846 9.77882 17.3511L5.78887 13.7554C5.28795 13.304 5.03749 13.0783 5.00635 12.8672C4.97931 12.6838 5.03957 12.4984 5.16923 12.3659C5.3185 12.2134 5.6538 12.178 6.3244 12.1073L11.6658 11.5435C11.8641 11.5226 11.9632 11.5121 12.0489 11.4739C12.1248 11.4402 12.1927 11.3908 12.2482 11.3291C12.311 11.2594 12.3516 11.1684 12.4328 10.9863L14.6195 6.08049Z" fill="#001C46"/>
</svg>
