<svg width="16" height="16" viewBox="0 0 16 16" fill="none" xmlns="http://www.w3.org/2000/svg">
<path d="M12.4651 0C12.2596 0 12.093 0.162805 12.093 0.363636C12.093 0.564467 12.2596 0.727272 12.4651 0.727272H14.7267L11.9709 3.41477C11.2257 2.86975 10.3024 2.54545 9.30233 2.54545C8.41104 2.54545 7.58154 2.80263 6.88372 3.24432C6.1859 2.80263 5.3564 2.54545 4.46512 2.54545C2.00351 2.54545 0 4.50344 0 6.90909C0 9.19137 1.8061 11.0689 4.09302 11.2557V13.2727H2.4186C2.2131 13.2727 2.04651 13.4355 2.04651 13.6364C2.04651 13.8372 2.2131 14 2.4186 14H4.09302V15.6364C4.09302 15.8372 4.25961 16 4.46512 16C4.67062 16 4.83721 15.8372 4.83721 15.6364V14H6.51163C6.71713 14 6.88372 13.8372 6.88372 13.6364C6.88372 13.4355 6.71713 13.2727 6.51163 13.2727H4.83721V11.2557C5.58638 11.1945 6.28475 10.953 6.88372 10.5739C7.58154 11.0155 8.41104 11.2727 9.30233 11.2727C11.7639 11.2727 13.7674 9.31475 13.7674 6.90909C13.7674 5.7438 13.2994 4.68127 12.5349 3.89772L15.2558 1.23864L15.25 3.45454H15.2558C15.2558 3.65537 15.4224 3.81818 15.6279 3.81818C15.8334 3.81818 16 3.65537 16 3.45454H15.9942L16 0.363636C16 0.267197 15.9608 0.174716 15.891 0.106523C15.8212 0.03833 15.7266 9.63285e-06 15.6279 0H12.4651ZM4.46512 3.27272C5.11617 3.27272 5.72422 3.43604 6.25581 3.72159C5.38312 4.5186 4.83721 5.6528 4.83721 6.90909C4.83721 8.16539 5.38312 9.29957 6.25581 10.0966C5.72422 10.3821 5.11617 10.5455 4.46512 10.5455C2.4057 10.5455 0.744186 8.9217 0.744186 6.90909C0.744186 4.89649 2.4057 3.27272 4.46512 3.27272ZM9.30233 3.27272C11.3617 3.27272 13.0233 4.89649 13.0233 6.90909C13.0233 8.9217 11.3617 10.5455 9.30233 10.5455C8.65127 10.5455 8.04323 10.3821 7.51163 10.0966C8.38432 9.29957 8.93023 8.16539 8.93023 6.90909C8.93023 5.6528 8.38432 4.5186 7.51163 3.72159C8.04323 3.43604 8.65127 3.27272 9.30233 3.27272ZM6.88372 4.14772C7.67942 4.81396 8.18605 5.80158 8.18605 6.90909C8.18605 8.01659 7.67942 9.00422 6.88372 9.67046C6.08802 9.00422 5.5814 8.01659 5.5814 6.90909C5.5814 5.80158 6.08802 4.81396 6.88372 4.14772Z" fill="#6C6C6C"/>
</svg>
