<svg width="40" height="32" viewBox="0 0 40 32" fill="none" xmlns="http://www.w3.org/2000/svg">
<path d="M22.268 13.0663C24.0989 13.0663 25.597 11.5683 25.597 9.73732C25.597 7.90637 24.0989 6.40833 22.268 6.40833C20.437 6.40833 18.939 7.90637 18.939 9.73732C18.939 11.5683 20.3954 13.0663 22.268 13.0663Z" fill="#6C6C6C"/>
<path d="M26.3877 16.7699L22.9338 21.0143L28.718 28.1301H34.3773C35.2095 28.1301 35.8753 27.4643 35.8753 26.5904V24.4266L29.6334 16.7699C28.8428 15.7295 27.2615 15.7295 26.3877 16.7699Z" fill="#6C6C6C"/>
<path d="M10.2836 12.0676L4.04175 19.7243V26.5904C4.04175 27.4226 4.70755 28.13 5.5398 28.13H26.6373L13.571 12.0676C12.6971 11.0689 11.1159 11.0689 10.2836 12.0676Z" fill="#6C6C6C"/>
<path d="M34.3772 0H5.58139C2.6269 0 0.213379 2.41352 0.213379 5.36801V26.632C0.213379 29.5865 2.6269 32 5.58139 32H34.4188C37.3733 32 39.7868 29.5865 39.7868 26.632V5.36801C39.7452 2.41352 37.3317 0 34.3772 0ZM37.5398 26.5904C37.5398 28.3381 36.125 29.7529 34.3772 29.7529H5.58139C3.83366 29.7529 2.41884 28.3381 2.41884 26.5904V5.36801C2.41884 3.62029 3.83366 2.20546 5.58139 2.20546H34.4188C36.1666 2.20546 37.5814 3.62029 37.5814 5.36801V26.5904H37.5398Z" fill="#6C6C6C"/>
</svg>
