<svg width="16" height="16" viewBox="0 0 16 16" fill="none" xmlns="http://www.w3.org/2000/svg">
<path d="M15.6169 16C15.715 16 15.813 15.9626 15.8878 15.8878C16.0374 15.7382 16.0374 15.4956 15.8878 15.346L11.7798 11.2381C11.6302 11.0885 11.3876 11.0885 11.238 11.2381C11.0884 11.3877 11.0884 11.6302 11.238 11.7799L15.346 15.8878C15.4208 15.9626 15.5189 16 15.6169 16Z" fill="#222222"/>
<path d="M1.75225 7.95516C1.85384 7.95516 1.95126 7.91478 2.02313 7.84295L7.84287 2.02329C7.9147 1.95146 7.95508 1.854 7.95508 1.7524C7.95508 1.65081 7.9147 1.55335 7.84287 1.48152L6.47352 0.112169C6.32385 -0.0373895 6.08135 -0.0373895 5.93172 0.112169L0.11205 5.93187C-0.0375462 6.08147 -0.0375462 6.32404 0.11205 6.47364L1.48136 7.84299C1.55323 7.91482 1.65065 7.95516 1.75225 7.95516ZM7.03019 1.7524L1.75229 7.0303L0.924697 6.20272L6.2026 0.924816L7.03019 1.7524Z" fill="#222222"/>
<path d="M7.91423 15.4865C8.0123 15.4865 8.1103 15.4491 8.18511 15.3743L15.3741 8.18529C15.5237 8.03569 15.5237 7.79312 15.3741 7.64352L14.8606 7.13003C13.8284 6.09775 12.4557 5.52925 10.9956 5.52925C10.7408 5.52925 10.4848 5.54714 10.2321 5.58254L6.98692 2.33739C6.83729 2.18779 6.59479 2.18779 6.44512 2.33739L2.33714 6.44537C2.26531 6.5172 2.22493 6.61466 2.22493 6.71625C2.22493 6.81785 2.26531 6.91531 2.33714 6.98713L5.58233 10.2323C5.34439 11.9288 5.91489 13.6458 7.12985 14.8608L7.64335 15.3743C7.71817 15.4491 7.81616 15.4865 7.91423 15.4865ZM14.5614 7.9144L7.91423 14.5616L7.67162 14.319C6.58583 13.2333 6.09865 11.681 6.36843 10.1667C6.39038 10.0433 6.35073 9.91712 6.2622 9.82859L3.14982 6.71621L6.71604 3.14996L9.82841 6.26233C9.91698 6.35086 10.0432 6.39055 10.1665 6.3686C10.4392 6.31998 10.7182 6.29535 10.9956 6.29535C12.2511 6.29535 13.4313 6.78417 14.3189 7.67175L14.5614 7.9144Z" fill="#222222"/>
<path d="M9.28391 8.63982C9.38194 8.63982 9.48002 8.60239 9.55479 8.52761C9.70439 8.37801 9.70439 8.13544 9.55479 7.98581L5.44681 3.87782C5.29718 3.72823 5.05468 3.72823 4.90501 3.87782C4.75541 4.02742 4.75541 4.26999 4.90501 4.41963L9.01303 8.52765C9.08781 8.60243 9.18588 8.63982 9.28391 8.63982Z" fill="#222222"/>
</svg>
