<svg width="20" height="11" viewBox="0 0 20 11" fill="none" xmlns="http://www.w3.org/2000/svg">
<path d="M6.33325 8.9375H1.33325V9.625H6.33325V8.9375Z" fill="#C2C2C2"/>
<path d="M8.00008 2.40625H4.66675V3.09375H8.00008V2.40625Z" fill="#C2C2C2"/>
<path d="M2.66659 4.46875C1.93325 4.46875 1.33325 3.85 1.33325 3.09375C1.33325 2.3375 1.93325 1.71875 2.66659 1.71875C3.39992 1.71875 3.99992 2.3375 3.99992 3.09375C3.99992 3.85 3.39992 4.46875 2.66659 4.46875ZM2.66659 2.40625C2.29992 2.40625 1.99992 2.71562 1.99992 3.09375C1.99992 3.47187 2.29992 3.78125 2.66659 3.78125C3.03325 3.78125 3.33325 3.47187 3.33325 3.09375C3.33325 2.71562 3.03325 2.40625 2.66659 2.40625Z" fill="#C2C2C2"/>
<path d="M7.33341 3.4375H4.66675V4.125H7.33341V3.4375Z" fill="#C2C2C2"/>
<path d="M0 0V9.96875C0 10.5531 0.433333 11 1 11H19C19.5667 11 20 10.5531 20 9.96875V0H0ZM19.3333 0.6875V7.21875H16V7.73438C16 8.21562 15.6333 8.59375 15.1667 8.59375C14.7 8.59375 14.3333 8.21562 14.3333 7.73438V7.21875H0.666667V0.6875H19.3333ZM19 10.3125H1C0.8 10.3125 0.666667 10.175 0.666667 9.96875V7.90625H13.6667C13.7333 8.6625 14.4 9.28125 15.1667 9.28125C15.9333 9.28125 16.5667 8.6625 16.6667 7.90625H19.3333V9.96875C19.3333 10.175 19.2 10.3125 19 10.3125Z" fill="#C2C2C2"/>
</svg>
