<svg width="20" height="20" viewBox="0 0 20 20" fill="none" xmlns="http://www.w3.org/2000/svg">
<path d="M20 4.2C20 4.17143 20 4.17143 19.9711 4.14286V4.11429C19.9711 4.11429 19.9711 4.11429 19.9421 4.08571C19.9421 4.05714 19.9132 4.05714 19.9132 4.05714C19.8842 4.05714 19.8842 4.02857 19.8553 4.02857C19.8263 4.02857 19.8263 4.02857 19.7974 4C19.7685 4 19.7684 4 19.7395 4H19.7106H0.289436H0.260492C0.231548 4 0.231549 4 0.202605 4C0.173662 4 0.173661 4 0.144718 4.02857C0.115774 4.02857 0.115774 4.05714 0.0868307 4.05714C0.0578872 4.05714 0.0578873 4.08571 0.0578873 4.08571C0.0578873 4.08571 0.0578872 4.08571 0.0289437 4.11429V4.14286C0.0289437 4.17143 0 4.17143 0 4.2C0 4.22857 0 4.22857 0 4.25714V4.28571V15.7143V15.7429C0 15.7714 0 15.7714 0 15.8C0 15.8286 1.0998e-07 15.8286 0.0289437 15.8571V15.8857C0.0289437 15.8857 0.0289438 15.8857 0.0578873 15.8857C0.0868309 15.9143 0.115774 15.9429 0.115774 15.9429C0.115774 15.9429 0.144718 15.9429 0.144718 15.9714C0.173661 16 0.231548 16 0.260492 16H19.7106C19.7684 16 19.7974 16 19.8263 15.9714C19.8263 15.9714 19.8553 15.9714 19.8553 15.9429C19.8842 15.9143 19.9132 15.9143 19.9132 15.8857V15.8571C19.9132 15.8286 19.9421 15.8286 19.9421 15.8C19.9421 15.7714 19.9421 15.7714 19.9421 15.7429V15.7143V4.28571V4.25714C20 4.22857 20 4.2 20 4.2ZM0.578871 4.8L8.24891 9.91429L0.578871 15.1714V4.8ZM10.1592 10.5143L1.24457 4.57143H18.8133L10.1592 10.5143ZM8.7699 10.2571L9.98553 11.0857C10.0434 11.1143 10.1013 11.1429 10.1592 11.1429C10.2171 11.1429 10.275 11.1143 10.3328 11.0857L11.6064 10.2C11.6064 10.2 11.6064 10.2286 11.6353 10.2286L18.8712 15.4286H1.21563L8.7699 10.2571ZM12.0984 9.85714L19.4501 4.8V15.1429L12.0984 9.85714Z" fill="#C2C2C2"/>
</svg>
