<svg width="20" height="19" viewBox="0 0 20 19" fill="none" xmlns="http://www.w3.org/2000/svg">
<path d="M16.399 4.3745C16.399 4.85211 16.399 5.32972 16.399 5.80734C16.399 6.93498 16.399 8.06265 16.399 9.1903C16.399 10.5102 16.399 11.8301 16.399 13.1501C16.399 14.2045 16.399 15.2589 16.399 16.3133C16.399 16.5979 16.399 16.8825 16.399 17.167C16.399 17.2236 16.399 17.2802 16.399 17.3368C16.399 17.3408 16.399 17.3447 16.399 17.3486C16.399 17.3491 16.399 17.3496 16.399 17.3501C16.399 17.3781 16.3971 17.4059 16.3948 17.4337C16.3994 17.3786 16.3834 17.4816 16.3804 17.493C16.3737 17.5191 16.3645 17.5445 16.3552 17.5699C16.3258 17.6503 16.38 17.524 16.3407 17.5999C16.3284 17.6236 16.3138 17.6462 16.2993 17.6687C16.2968 17.6725 16.2438 17.742 16.2814 17.6969C16.247 17.7381 16.2069 17.7747 16.1654 17.8094C16.0988 17.8649 16.2106 17.7811 16.1374 17.8288C16.1067 17.8487 16.0739 17.8656 16.0409 17.8819C15.9614 17.9213 16.0934 17.8655 16.0089 17.8956C15.9823 17.9051 15.9547 17.9122 15.9273 17.9193C15.8994 17.9265 15.871 17.9312 15.8426 17.9359C15.9052 17.9256 15.8106 17.9361 15.8052 17.9364C15.7928 17.9369 15.7803 17.9368 15.7678 17.9368C15.747 17.9368 15.7262 17.9368 15.7054 17.9368C15.6053 17.9368 15.5051 17.9368 15.405 17.9368C15.0086 17.9368 14.6123 17.9368 14.2159 17.9368C12.9419 17.9368 11.6678 17.9368 10.3938 17.9368C9.05572 17.9368 7.7176 17.9368 6.37947 17.9368C5.67031 17.9368 4.96118 17.9368 4.25202 17.9368C4.23214 17.9368 4.2123 17.9366 4.19239 17.9364C4.1875 17.9363 4.09168 17.9274 4.155 17.9359C4.12644 17.9321 4.09835 17.9257 4.07032 17.9193C4.04261 17.913 4.01559 17.9043 3.98867 17.8956C3.9032 17.868 4.03738 17.919 3.95669 17.8819C3.93153 17.8704 3.90754 17.8567 3.88364 17.843C3.87951 17.8407 3.80569 17.7908 3.85358 17.8261C3.80251 17.7884 3.75774 17.7437 3.71624 17.6969C3.755 17.7406 3.70113 17.6728 3.69828 17.6687C3.68306 17.6466 3.67 17.6232 3.65696 17.5999C3.61514 17.5251 3.6744 17.6493 3.64244 17.5699C3.63235 17.5448 3.62478 17.5189 3.61724 17.493C3.60958 17.4669 3.60458 17.4401 3.59958 17.4134C3.61059 17.4722 3.59939 17.3833 3.59913 17.3782C3.59864 17.3684 3.59866 17.3585 3.59866 17.3486C3.59866 17.3361 3.59866 17.3236 3.59866 17.311C3.59866 17.1078 3.59866 16.9047 3.59866 16.7015C3.59866 15.7464 3.59866 14.7913 3.59866 13.8362C3.59866 12.5308 3.59866 11.2255 3.59866 9.92022C3.59866 8.72248 3.59866 7.52474 3.59866 6.32702C3.59866 5.69465 3.59866 5.06227 3.59866 4.42989C3.59866 4.4134 3.59866 4.39689 3.59866 4.38039C3.59866 4.37842 3.59866 4.37643 3.59866 4.37446C3.59866 4.34646 3.60052 4.31873 3.60289 4.29085C3.59793 4.34954 3.60924 4.26352 3.6105 4.25779C3.61634 4.23144 3.62481 4.20568 3.63323 4.17999C3.63909 4.16308 3.6455 4.14636 3.65247 4.12981C3.64071 4.15636 3.64221 4.15465 3.65696 4.12464C3.66923 4.10097 3.68377 4.0784 3.69828 4.0559C3.70079 4.05202 3.75385 3.98259 3.71624 4.02764C3.7506 3.98645 3.79071 3.94984 3.83224 3.91519C3.89882 3.85964 3.78696 3.94351 3.86023 3.8958C3.88321 3.88084 3.90758 3.86787 3.93189 3.85493C3.93632 3.85258 4.01918 3.81624 3.96221 3.83842C3.99729 3.82476 4.0338 3.81473 4.07034 3.80528C4.09818 3.79808 4.12663 3.79337 4.15502 3.78866C4.09245 3.79902 4.18705 3.78848 4.19241 3.78824C4.20449 3.7877 4.21672 3.7878 4.22887 3.7878C4.25349 3.7878 4.27814 3.7878 4.30277 3.7878C4.90604 3.7878 5.50929 3.7878 6.11256 3.7878C6.23724 3.7878 6.36192 3.7878 6.48658 3.7878C6.38681 3.69393 6.28705 3.60009 6.18728 3.50622C6.18728 3.74958 6.18728 3.99297 6.18728 4.23633C6.18728 4.34908 6.18728 4.46183 6.18728 4.57458C6.18728 4.78787 6.36092 4.96961 6.59345 4.96961C6.88162 4.96961 7.16979 4.96961 7.45797 4.96961C8.77271 4.96961 10.0874 4.96961 11.4021 4.96961C11.9323 4.96961 12.4625 4.96961 12.9926 4.96961C13.1173 4.96961 13.242 4.96961 13.3667 4.96961C13.4254 4.96961 13.4847 4.9683 13.5399 4.94638C13.6992 4.88317 13.8104 4.75607 13.8104 4.58721C13.8104 4.55189 13.8104 4.51657 13.8104 4.48126C13.8104 4.15626 13.8104 3.83124 13.8104 3.50624C13.7106 3.60011 13.6109 3.69395 13.5111 3.78782C14.0312 3.78782 14.5513 3.78782 15.0714 3.78782C15.2991 3.78782 15.5268 3.78782 15.7544 3.78782C15.7911 3.78782 15.8276 3.78907 15.8643 3.7918C15.8019 3.78713 15.8933 3.79777 15.8994 3.79896C15.9274 3.80445 15.9548 3.81242 15.9821 3.82034C15.9872 3.82183 16.0718 3.85485 16.0157 3.83108C16.0498 3.84552 16.0821 3.86334 16.114 3.88154C16.1181 3.8839 16.192 3.93381 16.1441 3.89844C16.1659 3.91461 16.1862 3.93257 16.2064 3.95049C16.2267 3.96843 16.2452 3.98802 16.2636 4.00757C16.3227 4.0702 16.2335 3.96497 16.2842 4.03391C16.3001 4.05554 16.3139 4.07846 16.3276 4.10133C16.3301 4.10548 16.3688 4.18345 16.3452 4.12985C16.3708 4.18798 16.3865 4.24944 16.3981 4.31123C16.3878 4.25634 16.3988 4.36304 16.399 4.3745C16.4016 4.52794 16.5332 4.65608 16.6983 4.65608C16.8595 4.65608 17.0002 4.528 16.9976 4.3745C16.9886 3.83987 16.5934 3.36095 16.0303 3.25037C15.8161 3.20832 15.5856 3.22465 15.3681 3.22465C14.7705 3.22465 14.1729 3.22465 13.5753 3.22465C13.5539 3.22465 13.5325 3.22465 13.5111 3.22465C13.3479 3.22465 13.2118 3.35272 13.2118 3.50622C13.2118 3.69045 13.2118 3.8747 13.2118 4.05893C13.2118 4.1812 13.2118 4.30346 13.2118 4.42573C13.2118 4.46583 13.2118 4.50592 13.2118 4.54602C13.2118 4.55724 13.2118 4.56844 13.2118 4.57967C13.2118 4.62263 13.2044 4.53982 13.2226 4.51766C13.2584 4.48399 13.2942 4.4503 13.33 4.41666C13.3534 4.39964 13.4403 4.40646 13.3979 4.40646C13.3849 4.40646 13.3719 4.40646 13.3589 4.40646C13.3089 4.40646 13.259 4.40646 13.209 4.40646C13.0244 4.40646 12.8397 4.40646 12.655 4.40646C12.0552 4.40646 11.4553 4.40646 10.8555 4.40646C9.60238 4.40646 8.34932 4.40646 7.09624 4.40646C6.9721 4.40646 6.84797 4.40646 6.72384 4.40646C6.69049 4.40646 6.65714 4.40646 6.62379 4.40646C6.5498 4.40646 6.63589 4.39359 6.66766 4.41666C6.70345 4.45032 6.73924 4.48399 6.77502 4.51766C6.80087 4.54914 6.78586 4.62965 6.78586 4.55433C6.78586 4.51635 6.78586 4.47838 6.78586 4.44041C6.78586 4.31326 6.78586 4.18609 6.78586 4.05893C6.78586 3.8747 6.78586 3.69045 6.78586 3.50622C6.78586 3.35272 6.64972 3.22465 6.48656 3.22465C5.96643 3.22465 5.44633 3.22465 4.92622 3.22465C4.69856 3.22465 4.4709 3.22465 4.24321 3.22465C3.77675 3.22465 3.33442 3.46562 3.12777 3.86419C2.99468 4.12086 3.00003 4.37784 3.00003 4.65066C3.00003 4.96802 3.00003 5.2854 3.00003 5.60275C3.00003 6.69524 3.00003 7.78775 3.00003 8.88024C3.00003 10.2016 3.00003 11.523 3.00003 12.8444C3.00003 13.9369 3.00003 15.0294 3.00003 16.1219C3.00003 16.4392 3.00003 16.7566 3.00003 17.074C3.00003 17.3501 3.0014 17.5965 3.12777 17.8605C3.31562 18.2528 3.77809 18.5 4.22651 18.5C4.28327 18.5 4.34006 18.5 4.39682 18.5C4.72466 18.5 5.05251 18.5 5.38035 18.5C6.59008 18.5 7.79982 18.5 9.00954 18.5C10.3804 18.5 11.7513 18.5 13.1222 18.5C13.9611 18.5 14.8 18.5 15.639 18.5C15.6843 18.5 15.7298 18.5 15.7751 18.5C16.3273 18.5 16.8121 18.1403 16.9576 17.6428C17.0147 17.4475 16.9976 17.229 16.9976 17.0277C16.9976 16.1976 16.9976 15.3674 16.9976 14.5373C16.9976 13.2654 16.9976 11.9935 16.9976 10.7216C16.9976 9.46574 16.9976 8.20985 16.9976 6.95399C16.9976 6.17191 16.9976 5.38984 16.9976 4.60776C16.9976 4.53001 16.9976 4.45228 16.9976 4.37452C16.9976 4.22102 16.8614 4.09295 16.6983 4.09295C16.5351 4.09295 16.399 4.221 16.399 4.3745Z" fill="#0F340D"/>
<path d="M13.4083 2.06698C12.6819 2.06698 11.9555 2.06698 11.2292 2.06698C11.3289 2.16084 11.4287 2.25469 11.5285 2.34855C11.5285 2.22526 11.5285 2.10197 11.5285 1.97868C11.5285 1.72983 11.4723 1.49894 11.3563 1.27535C11.0883 0.758898 10.4522 0.446712 9.85094 0.507532C9.31423 0.561836 8.82472 0.875188 8.60629 1.3458C8.45537 1.67096 8.46871 2.00272 8.46871 2.34853C8.56849 2.25467 8.66824 2.16082 8.76802 2.06696C8.24274 2.06696 7.71746 2.06696 7.19218 2.06696C6.99191 2.06696 6.79163 2.06696 6.59135 2.06696C6.35304 2.06696 6.18701 2.25479 6.18701 2.46882C6.18701 2.54762 6.18701 2.62642 6.18701 2.70523C6.18701 3.28404 6.18701 3.86286 6.18701 4.44166C6.18701 4.49152 6.18701 4.5414 6.18701 4.59128C6.18701 4.80465 6.37987 4.96957 6.60148 4.96957C6.70169 4.96957 6.80187 4.96957 6.90205 4.96957C8.09392 4.96957 9.28579 4.96957 10.4777 4.96957C11.4461 4.96957 12.4146 4.96957 13.3831 4.96957C13.5439 4.96957 13.658 4.90079 13.7553 4.78234C13.8196 4.70403 13.8101 4.58635 13.8101 4.4915C13.8101 4.23012 13.8101 3.96875 13.8101 3.70737C13.8101 3.39714 13.8101 3.08688 13.8101 2.77664C13.8101 2.68358 13.8101 2.5905 13.8101 2.49742C13.8101 2.48069 13.8101 2.46394 13.8101 2.4472C13.8101 2.26362 13.6833 2.14718 13.5151 2.08043C13.4795 2.07597 13.4439 2.07148 13.4083 2.06698C13.2461 2.04648 13.109 2.21056 13.109 2.34855C13.109 2.5175 13.2466 2.60969 13.4083 2.63013C13.399 2.63117 13.3898 2.6322 13.3805 2.63324C13.3365 2.60911 13.2925 2.58497 13.2484 2.56082C13.2028 2.52769 13.2115 2.39513 13.2115 2.46442C13.2115 2.4855 13.2115 2.50659 13.2115 2.52767C13.2115 2.60575 13.2115 2.68381 13.2115 2.76188C13.2115 3.01069 13.2115 3.25951 13.2115 3.5083C13.2115 3.75884 13.2115 4.00938 13.2115 4.25992C13.2115 4.34009 13.2115 4.42026 13.2115 4.50043C13.2115 4.52287 13.2115 4.54532 13.2115 4.56776C13.2115 4.62683 13.2006 4.54423 13.2224 4.51768C13.2582 4.48402 13.294 4.45033 13.3297 4.41668C13.3532 4.39966 13.4401 4.40648 13.3977 4.40648C13.3847 4.40648 13.3716 4.40648 13.3586 4.40648C13.3087 4.40648 13.2587 4.40648 13.2088 4.40648C13.0241 4.40648 12.8395 4.40648 12.6548 4.40648C12.0549 4.40648 11.4551 4.40648 10.8552 4.40648C9.60214 4.40648 8.34908 4.40648 7.096 4.40648C6.97185 4.40648 6.84773 4.40648 6.7236 4.40648C6.69025 4.40648 6.6569 4.40648 6.62355 4.40648C6.54955 4.40648 6.63565 4.39361 6.66742 4.41668C6.7032 4.45035 6.73899 4.48402 6.77478 4.51768C6.79528 4.54266 6.78562 4.62543 6.78562 4.57219C6.78562 4.55111 6.78562 4.53001 6.78562 4.50894C6.78562 4.43086 6.78562 4.3528 6.78562 4.27472C6.78562 4.02591 6.78562 3.7771 6.78562 3.52831C6.78562 3.27777 6.78562 3.02723 6.78562 2.77668C6.78562 2.69652 6.78562 2.61635 6.78562 2.53618C6.78562 2.51373 6.78562 2.49129 6.78562 2.46884C6.78562 2.3932 6.79537 2.52691 6.74872 2.56082C6.7047 2.58495 6.66068 2.60909 6.61664 2.63324C6.60253 2.63883 6.57465 2.63013 6.60608 2.63013C6.62812 2.63013 6.65019 2.63013 6.67223 2.63013C6.75133 2.63013 6.83043 2.63013 6.90953 2.63013C7.16227 2.63013 7.41501 2.63013 7.66773 2.63013C8.03449 2.63013 8.40124 2.63013 8.76798 2.63013C8.93114 2.63013 9.06728 2.50205 9.06728 2.34855C9.06728 2.23974 9.06728 2.13095 9.06728 2.02214C9.06728 1.85465 9.06848 1.79256 9.12295 1.63735C9.12909 1.62056 9.13563 1.60388 9.14258 1.58735C9.12062 1.64137 9.15637 1.56237 9.15863 1.55803C9.18335 1.5108 9.21315 1.46611 9.24443 1.42257C9.26501 1.39616 9.26602 1.39413 9.24746 1.4165C9.26456 1.39586 9.2831 1.37633 9.30164 1.35682C9.33868 1.31782 9.37984 1.28243 9.42208 1.2485C9.44906 1.22786 9.45082 1.22645 9.42736 1.24427C9.44975 1.22861 9.47322 1.21441 9.49668 1.20023C9.54386 1.17169 9.59399 1.14777 9.64481 1.12559C9.61648 1.13653 9.61879 1.13593 9.65169 1.12378C9.67827 1.11421 9.70548 1.10642 9.73268 1.09862C9.76011 1.09075 9.78809 1.08472 9.81601 1.07871C9.82097 1.07764 9.91438 1.06284 9.8509 1.0707C10.3046 1.01453 10.6803 1.22891 10.8674 1.61569C10.8576 1.59666 10.8597 1.60328 10.8735 1.63554C10.8848 1.66515 10.8936 1.69558 10.9023 1.72593C10.9111 1.75664 10.9172 1.78797 10.9233 1.81925C10.9147 1.77516 10.9283 1.87862 10.9279 1.87285C10.9315 1.92233 10.9298 1.97259 10.9298 2.02216C10.9298 2.13097 10.9298 2.23976 10.9298 2.34857C10.9298 2.50207 11.0659 2.63015 11.2291 2.63015C11.9555 2.63015 12.6819 2.63015 13.4083 2.63015C13.5714 2.63015 13.7076 2.50207 13.7076 2.34857C13.7076 2.19507 13.5715 2.06698 13.4083 2.06698Z" fill="#0F340D"/>
<path d="M9.99215 2.05129C9.94058 2.04212 9.93026 2.04123 9.96117 2.04861C9.93081 2.04167 9.90494 2.02751 9.88354 2.00613C9.90486 2.02695 9.89919 2.01943 9.86653 1.98355C9.86086 1.97021 9.8552 1.9569 9.84953 1.94359C9.8574 1.97265 9.85644 1.96293 9.84669 1.91442C9.85644 1.86593 9.85738 1.8562 9.84953 1.88528C9.85691 1.85672 9.87196 1.83238 9.89468 1.81225C9.87253 1.8323 9.88055 1.82695 9.91869 1.79624C9.93284 1.79091 9.94702 1.78558 9.96117 1.78025C9.93028 1.78765 9.9406 1.78675 9.99215 1.77758C10.0437 1.78675 10.054 1.78763 10.0231 1.78025C10.0535 1.78719 10.0794 1.80135 10.1008 1.82273C10.0795 1.80191 10.0851 1.80943 10.1178 1.84534C10.1235 1.85865 10.1291 1.87198 10.1348 1.8853C10.127 1.85624 10.1279 1.86595 10.1377 1.91444C10.1279 1.96295 10.127 1.97267 10.1348 1.94361C10.1274 1.97216 10.1124 1.9965 10.0897 2.01663C10.1118 1.99656 10.1038 2.00191 10.0656 2.03264C10.0515 2.03797 10.0373 2.0433 10.0231 2.04863C10.054 2.04123 10.0437 2.04212 9.99215 2.05129C10.155 2.04302 10.2915 1.92947 10.2915 1.76971C10.2915 1.62249 10.1552 1.47985 9.99215 1.48814C9.73629 1.50113 9.55286 1.67372 9.53904 1.91442C9.53257 2.02745 9.59388 2.12675 9.66638 2.21044C9.74341 2.29938 9.87619 2.33481 9.99217 2.34071C10.1123 2.3468 10.2179 2.28912 10.3068 2.22092C10.4014 2.14845 10.4391 2.02353 10.4453 1.91442C10.4518 1.80139 10.3905 1.70209 10.318 1.61841C10.2409 1.52947 10.1082 1.49403 9.99219 1.48814C9.82914 1.47985 9.69289 1.62249 9.69289 1.76971C9.69284 1.92947 9.82928 2.04302 9.99215 2.05129Z" fill="#0F340D"/>
<path d="M9.75735 1.91439C9.75724 1.91636 9.75711 1.91833 9.75701 1.92028C9.76058 1.89534 9.76413 1.87038 9.7677 1.84542C9.76667 1.8513 9.76519 1.85636 9.76289 1.86192C9.77293 1.83949 9.783 1.81708 9.79305 1.79466C9.7914 1.79806 9.78942 1.80128 9.78704 1.80429C9.80265 1.78529 9.81824 1.7663 9.83384 1.74731C9.82997 1.75178 9.8261 1.75542 9.82136 1.75906C9.84154 1.74438 9.86174 1.72972 9.88192 1.71503C9.87872 1.71725 9.8753 1.71914 9.87168 1.72069C9.89552 1.71123 9.91934 1.70176 9.94317 1.69231C9.93729 1.69448 9.93191 1.69587 9.92566 1.69683C9.9522 1.69347 9.97871 1.69013 10.0052 1.68678C10.001 1.6872 9.99686 1.6872 9.99269 1.68678C10.0192 1.69013 10.0457 1.69347 10.0723 1.69683C10.066 1.69587 10.0606 1.69448 10.0547 1.69231C10.0786 1.70176 10.1024 1.71123 10.1262 1.72069C10.1226 1.71914 10.1192 1.71727 10.116 1.71503C10.1362 1.72972 10.1564 1.74438 10.1766 1.75906C10.1718 1.75542 10.168 1.75178 10.1641 1.74731C10.1797 1.7663 10.1953 1.78531 10.2109 1.80429C10.2085 1.80128 10.2065 1.79806 10.2049 1.79466C10.2149 1.81708 10.225 1.83949 10.235 1.86192C10.2327 1.85638 10.2313 1.85132 10.2302 1.84542C10.2338 1.87038 10.2374 1.89532 10.2409 1.92028C10.2405 1.91634 10.2405 1.91242 10.2409 1.90848C10.2374 1.93342 10.2338 1.95838 10.2302 1.98333C10.2313 1.97746 10.2327 1.97239 10.235 1.96684C10.225 1.98927 10.2149 2.01167 10.2049 2.0341C10.2065 2.0307 10.2085 2.02748 10.2109 2.02446C10.1953 2.04345 10.1797 2.06246 10.1641 2.08144C10.168 2.07696 10.1718 2.07334 10.1766 2.0697C10.1564 2.08438 10.1362 2.09904 10.116 2.11372C10.1192 2.11151 10.1226 2.10964 10.1262 2.10809C10.1024 2.11755 10.0786 2.12702 10.0547 2.13647C10.0606 2.1343 10.066 2.13291 10.0723 2.13195C10.0457 2.1353 10.0192 2.13864 9.99269 2.142C9.99688 2.14158 10.0011 2.14158 10.0052 2.142C9.97871 2.13864 9.9522 2.1353 9.92566 2.13195C9.93191 2.13291 9.93729 2.1343 9.94317 2.13647C9.91934 2.12702 9.89552 2.11755 9.87168 2.10809C9.8753 2.10964 9.87872 2.11151 9.88192 2.11372C9.86174 2.09906 9.84154 2.08438 9.82136 2.0697C9.8261 2.07334 9.82997 2.07698 9.83384 2.08144C9.81824 2.06244 9.80265 2.04345 9.78704 2.02446C9.7894 2.02748 9.7914 2.0307 9.79305 2.0341C9.783 2.01167 9.77293 1.98927 9.76289 1.96684C9.76519 1.97237 9.76667 1.97744 9.7677 1.98333C9.76413 1.95838 9.76058 1.93344 9.75701 1.90848C9.75711 1.91045 9.75722 1.91244 9.75735 1.91439C9.76173 1.99051 9.78668 2.0586 9.84502 2.11348C9.90091 2.16606 9.97759 2.19596 10.0567 2.19596C10.2131 2.19596 10.3648 2.06779 10.356 1.91439C10.3541 1.88243 10.3528 1.84749 10.3401 1.81715C10.3103 1.74575 10.3056 1.73919 10.2534 1.67895C10.2327 1.655 10.2031 1.63611 10.1738 1.62185C10.1115 1.59142 10.0698 1.58217 9.99897 1.57857C9.96584 1.5769 9.92752 1.58167 9.89558 1.59345C9.81969 1.62149 9.81272 1.62598 9.74867 1.67503C9.72321 1.69456 9.70313 1.7224 9.68795 1.74989C9.65561 1.80854 9.64577 1.84784 9.64195 1.91441C9.64017 1.94558 9.64524 1.98163 9.65779 2.01165C9.68761 2.08303 9.69231 2.08963 9.7445 2.14985C9.76526 2.1738 9.79485 2.19271 9.82409 2.20697C9.88646 2.2374 9.92819 2.24665 9.99897 2.25025C10.0321 2.25192 10.0704 2.24715 10.1023 2.23534C10.1782 2.20729 10.1852 2.20286 10.2492 2.15377C10.2747 2.13424 10.2948 2.1064 10.3099 2.07891C10.3423 2.02024 10.3521 1.98098 10.3559 1.91439C10.3647 1.76099 10.2131 1.63281 10.0566 1.63281C9.97757 1.63281 9.90087 1.66272 9.845 1.7153C9.78666 1.77018 9.76171 1.83826 9.75735 1.91439Z" fill="#0F340D"/>
<path d="M5.59469 8.11289C6.31617 8.11289 7.03764 8.11289 7.75911 8.11289C9.13125 8.11289 10.5034 8.11289 11.8755 8.11289C12.7099 8.11289 13.5443 8.11289 14.3786 8.11289C14.3867 8.11289 14.3949 8.11289 14.403 8.11289C14.5662 8.11289 14.7023 7.98482 14.7023 7.83132C14.7023 7.67782 14.5662 7.54974 14.403 7.54974C13.6815 7.54974 12.9601 7.54974 12.2386 7.54974C10.8665 7.54974 9.49435 7.54974 8.12221 7.54974C7.28784 7.54974 6.45346 7.54974 5.61911 7.54974C5.61098 7.54974 5.60286 7.54974 5.59471 7.54974C5.43155 7.54974 5.29541 7.67782 5.29541 7.83132C5.29541 7.98482 5.43153 8.11289 5.59469 8.11289Z" fill="#0F340D"/>
<path d="M5.59469 11.3849C6.31617 11.3849 7.03764 11.3849 7.75911 11.3849C9.13125 11.3849 10.5034 11.3849 11.8755 11.3849C12.7099 11.3849 13.5443 11.3849 14.3786 11.3849C14.3867 11.3849 14.3949 11.3849 14.403 11.3849C14.5662 11.3849 14.7023 11.2569 14.7023 11.1034C14.7023 10.9499 14.5662 10.8218 14.403 10.8218C13.6815 10.8218 12.9601 10.8218 12.2386 10.8218C10.8665 10.8218 9.49435 10.8218 8.12221 10.8218C7.28784 10.8218 6.45346 10.8218 5.61911 10.8218C5.61098 10.8218 5.60286 10.8218 5.59471 10.8218C5.43155 10.8218 5.29541 10.9499 5.29541 11.1034C5.29541 11.2569 5.43153 11.3849 5.59469 11.3849Z" fill="#0F340D"/>
<path d="M5.59471 14.657C6.22349 14.657 6.85228 14.657 7.48106 14.657C7.64422 14.657 7.78036 14.5289 7.78036 14.3754C7.78036 14.2219 7.64422 14.0938 7.48106 14.0938C6.85228 14.0938 6.22349 14.0938 5.59471 14.0938C5.43155 14.0938 5.29541 14.2219 5.29541 14.3754C5.29541 14.5289 5.43155 14.657 5.59471 14.657Z" fill="#0F340D"/>
<path d="M14.1908 13.0439C13.4566 13.7346 12.7225 14.4253 11.9883 15.1159C11.6571 15.4275 11.3259 15.7391 10.9947 16.0507C11.1358 16.0507 11.2768 16.0507 11.4179 16.0507C10.928 15.5898 10.438 15.1289 9.94808 14.6679C9.6749 14.4109 9.25162 14.8092 9.5248 15.0662C10.0148 15.5271 10.5047 15.988 10.9947 16.4489C11.11 16.5574 11.3026 16.5574 11.4179 16.4489C12.1521 15.7583 12.8863 15.0676 13.6204 14.3769C13.9516 14.0653 14.2829 13.7538 14.6141 13.4421C14.8873 13.1851 14.464 12.7869 14.1908 13.0439Z" fill="#0F340D"/>
</svg>
