<svg width="20" height="20" viewBox="0 0 20 20" fill="none" xmlns="http://www.w3.org/2000/svg">
<path d="M17.9167 4H2.08333C0.934583 4 0 4.8972 0 6V14C0 15.1028 0.934583 16 2.08333 16H17.9167C19.0654 16 20 15.1028 20 14V6C20 4.8972 19.0654 4 17.9167 4ZM19.1667 14C19.1667 14.6616 18.6058 15.2 17.9167 15.2H2.08333C1.39417 15.2 0.833333 14.6616 0.833333 14V6C0.833333 5.3384 1.39417 4.8 2.08333 4.8H17.9167C18.6058 4.8 19.1667 5.3384 19.1667 6V14Z" fill="#C2C2C2"/>
<path d="M6.6385 9.99045C7.12725 9.59645 7.44517 9.01285 7.44517 8.35325C7.44517 7.16925 6.44184 6.20605 5.2085 6.20605C3.97517 6.20605 2.97184 7.16925 2.97184 8.35325C2.97184 9.01285 3.28976 9.59645 3.77851 9.99045C2.74351 10.4249 1.94142 11.3133 1.69017 12.4153C1.62559 12.6977 1.69601 12.9881 1.88351 13.2117C2.06809 13.4321 2.34309 13.5581 2.63767 13.5581H7.77934C8.07392 13.5581 8.34892 13.4321 8.5335 13.2117C8.721 12.9877 8.79142 12.6977 8.72684 12.4157C8.47559 11.3137 7.6735 10.4249 6.6385 9.99045ZM3.80517 8.35325C3.80517 7.61045 4.43475 7.00605 5.2085 7.00605C5.98225 7.00605 6.61184 7.61045 6.61184 8.35325C6.61184 9.09605 5.98225 9.70045 5.2085 9.70045C4.43475 9.70045 3.80517 9.09605 3.80517 8.35325ZM7.88434 12.7105C7.866 12.7325 7.83267 12.7585 7.77975 12.7585H2.63767C2.58434 12.7585 2.55101 12.7325 2.53309 12.7105C2.51642 12.6905 2.49017 12.6481 2.50434 12.5869C2.78017 11.3781 3.91725 10.5005 5.2085 10.5005C6.49975 10.5005 7.63725 11.3777 7.91309 12.5873C7.92684 12.6477 7.901 12.6905 7.88434 12.7105Z" fill="#C2C2C2"/>
<path d="M17.9167 12.3999H10.4167C10.1867 12.3999 10 12.5787 10 12.7999C10 13.0211 10.1867 13.1999 10.4167 13.1999H17.9167C18.1467 13.1999 18.3333 13.0211 18.3333 12.7999C18.3333 12.5787 18.1467 12.3999 17.9167 12.3999Z" fill="#C2C2C2"/>
<path d="M17.9167 9.6001H10.4167C10.1867 9.6001 10 9.7789 10 10.0001C10 10.2213 10.1867 10.4001 10.4167 10.4001H17.9167C18.1467 10.4001 18.3333 10.2213 18.3333 10.0001C18.3333 9.7789 18.1467 9.6001 17.9167 9.6001Z" fill="#C2C2C2"/>
<path d="M17.9167 6.80005H10.4167C10.1867 6.80005 10 6.97885 10 7.20005C10 7.42125 10.1867 7.60005 10.4167 7.60005H17.9167C18.1467 7.60005 18.3333 7.42125 18.3333 7.20005C18.3333 6.97885 18.1467 6.80005 17.9167 6.80005Z" fill="#C2C2C2"/>
</svg>
