<svg width="20" height="12" viewBox="0 0 20 12" fill="none" xmlns="http://www.w3.org/2000/svg">
<path d="M17.9167 0H2.08333C0.934583 0 0 0.8972 0 2V10C0 11.1028 0.934583 12 2.08333 12H17.9167C19.0654 12 20 11.1028 20 10V2C20 0.8972 19.0654 0 17.9167 0ZM19.1667 10C19.1667 10.6616 18.6058 11.2 17.9167 11.2H2.08333C1.39417 11.2 0.833333 10.6616 0.833333 10V2C0.833333 1.3384 1.39417 0.8 2.08333 0.8H17.9167C18.6058 0.8 19.1667 1.3384 19.1667 2V10Z" fill="#222222"/>
<path d="M6.63875 5.99039C7.1275 5.59639 7.44542 5.01279 7.44542 4.35319C7.44542 3.16919 6.44208 2.20599 5.20875 2.20599C3.97542 2.20599 2.97208 3.16919 2.97208 4.35319C2.97208 5.01279 3.29 5.59639 3.77875 5.99039C2.74375 6.42479 1.94167 7.31319 1.69042 8.41519C1.62583 8.69759 1.69625 8.98799 1.88375 9.21159C2.06833 9.43199 2.34333 9.55799 2.63792 9.55799H7.77958C8.07417 9.55799 8.34917 9.43199 8.53375 9.21159C8.72125 8.98759 8.79167 8.69759 8.72708 8.41559C8.47583 7.31359 7.67375 6.42479 6.63875 5.99039ZM3.80542 4.35319C3.80542 3.61039 4.435 3.00599 5.20875 3.00599C5.9825 3.00599 6.61208 3.61039 6.61208 4.35319C6.61208 5.09599 5.9825 5.70039 5.20875 5.70039C4.435 5.70039 3.80542 5.09599 3.80542 4.35319ZM7.88458 8.71039C7.86625 8.73239 7.83291 8.75839 7.78 8.75839H2.63792C2.58458 8.75839 2.55125 8.73239 2.53333 8.71039C2.51667 8.69039 2.49042 8.64799 2.50458 8.58679C2.78042 7.37799 3.9175 6.50039 5.20875 6.50039C6.5 6.50039 7.6375 7.37759 7.91333 8.58719C7.92708 8.64759 7.90125 8.69039 7.88458 8.71039Z" fill="#222222"/>
<path d="M17.9167 8.39999H10.4167C10.1867 8.39999 10 8.57879 10 8.79999C10 9.02119 10.1867 9.19999 10.4167 9.19999H17.9167C18.1467 9.19999 18.3333 9.02119 18.3333 8.79999C18.3333 8.57879 18.1467 8.39999 17.9167 8.39999Z" fill="#222222"/>
<path d="M17.9167 5.59999H10.4167C10.1867 5.59999 10 5.77879 10 5.99999C10 6.22119 10.1867 6.39999 10.4167 6.39999H17.9167C18.1467 6.39999 18.3333 6.22119 18.3333 5.99999C18.3333 5.77879 18.1467 5.59999 17.9167 5.59999Z" fill="#222222"/>
<path d="M17.9167 2.8H10.4167C10.1867 2.8 10 2.9788 10 3.2C10 3.4212 10.1867 3.6 10.4167 3.6H17.9167C18.1467 3.6 18.3333 3.4212 18.3333 3.2C18.3333 2.9788 18.1467 2.8 17.9167 2.8Z" fill="#222222"/>
</svg>
