<svg width="17" height="16" viewBox="0 0 17 16" fill="none" xmlns="http://www.w3.org/2000/svg">
<path fill-rule="evenodd" clip-rule="evenodd" d="M6.30891 3.86635C5.92044 4.89843 4.91449 5.0428 4.93102 6.53092C4.94507 7.78737 5.85696 8.50636 6.41612 9.12668C7.37317 10.1883 8.7555 11.5592 10.3585 10.9343C11.5399 10.4736 12.1565 8.41409 14.2539 10.5362C14.8648 11.1544 15.8261 11.851 15.0721 13.2162C13.939 15.2673 11.5824 15.7247 9.44782 15.106C4.66078 13.7189 -0.0823483 8.00428 0.709892 3.87578C0.975868 2.48936 1.52062 2.00203 2.25686 1.3394C3.80951 -0.0575109 4.93156 1.01244 5.97431 2.28205C6.28189 2.65648 6.5356 3.26399 6.30891 3.86635ZM6.97545 3.86635C7.30739 2.3649 6.20312 1.59862 5.60414 1.00551C4.77599 0.185531 3.92294 -0.415228 2.52497 0.358522C-3.2474 3.55308 1.78375 13.058 8.51922 15.4868C11.2252 16.4627 13.6823 16.0325 15.0756 14.3178C15.6686 13.5884 16.4535 12.3285 15.6757 11.1505C15.3354 10.6351 14.0075 9.31549 13.4083 9.10748C10.4938 8.09584 11.0079 12.4512 7.44162 9.27567C3.71493 5.95736 6.61791 5.48373 6.97545 3.86635ZM9.69389 3.59824C10.4378 3.76323 11.0179 4.06548 11.4435 4.49698C11.8685 4.92759 12.1462 5.49333 12.2859 6.18547C12.3197 6.35455 12.4842 6.46425 12.6532 6.43029C12.8223 6.39651 12.932 6.23205 12.8981 6.06297C12.7336 5.24886 12.4011 4.57752 11.8891 4.05855C11.3779 3.54046 10.6947 3.18043 9.8283 2.98842C9.65993 2.95126 9.49316 3.05758 9.456 3.22595C9.41884 3.39432 9.52516 3.56091 9.69353 3.59824H9.69389ZM7.98211 1.81553C8.7619 1.64289 9.51805 1.64591 10.2196 1.79241C11.2 1.99723 12.0745 2.48367 12.7581 3.16443C13.4424 3.84591 13.9358 4.72171 14.1533 5.70454C14.3117 6.42087 14.3238 7.1955 14.1568 7.99521C14.1216 8.16429 14.2302 8.32982 14.3993 8.36502C14.5684 8.40022 14.7339 8.29159 14.7691 8.12251C14.9546 7.23462 14.9405 6.37108 14.7633 5.56995C14.5192 4.46729 13.9662 3.48517 13.1991 2.72137C12.4313 1.95687 11.4489 1.41069 10.3471 1.18045C9.56286 1.01653 8.71817 1.01333 7.84752 1.20588C7.67915 1.24304 7.57283 1.40963 7.60999 1.57817C7.64715 1.74654 7.81374 1.85286 7.98229 1.8157L7.98211 1.81553Z" fill="#35B431"/>
</svg>
