<svg width="20" height="20" viewBox="0 0 20 20" fill="none" xmlns="http://www.w3.org/2000/svg">
<path d="M5.20786 7.09451H2.32733C2.14621 7.09451 2 6.95456 2 6.7812V3.89869C2 3.72532 2.14621 3.58537 2.32733 3.58537H5.20786C5.38898 3.58537 5.53519 3.72532 5.53519 3.89869V6.7812C5.53519 6.95456 5.38898 7.09451 5.20786 7.09451ZM2.65466 6.46788H4.88052V4.212H2.65466V6.46788Z" fill="#222222"/>
<path d="M11.4413 15.4663H8.56073C8.37961 15.4663 8.2334 15.3264 8.2334 15.153V7.84231C8.2334 7.66894 8.37961 7.52899 8.56073 7.52899H11.4413C11.6224 7.52899 11.7686 7.66894 11.7686 7.84231V15.153C11.7686 15.3264 11.6224 15.4663 11.4413 15.4663ZM8.88806 14.8397H11.1139V8.15562H8.88806V14.8397Z" fill="#222222"/>
<path d="M17.6717 11.2616H14.7912C14.6101 11.2616 14.4639 11.1217 14.4639 10.9483V5.79739C14.4639 5.62402 14.6101 5.48407 14.7912 5.48407H17.6717C17.8528 5.48407 17.9991 5.62402 17.9991 5.79739V10.9504C17.9991 11.1217 17.8528 11.2616 17.6717 11.2616ZM15.1185 10.635H17.3444V6.1107H15.1185V10.635Z" fill="#222222"/>
<path d="M4.09509 2H3.44043V3.89869H4.09509V2Z" fill="#222222"/>
<path d="M4.09509 6.78119H3.44043V18H4.09509V6.78119Z" fill="#222222"/>
<path d="M10.3275 15.153H9.67285V18H10.3275V15.153Z" fill="#222222"/>
<path d="M10.3275 2H9.67285V7.8423H10.3275V2Z" fill="#222222"/>
<path d="M16.559 10.9483H15.9043V18H16.559V10.9483Z" fill="#222222"/>
<path d="M16.559 2H15.9043V5.79739H16.559V2Z" fill="#222222"/>
</svg>
