<svg width="25" height="24" viewBox="0 0 25 24" fill="none" xmlns="http://www.w3.org/2000/svg">
<path d="M11.4527 0H0.762303C0.617781 0 0.500488 0.117293 0.500488 0.261814V10.9527C0.500488 11.0973 0.617781 11.2146 0.762303 11.2146H11.4527C11.5972 11.2146 11.7145 11.0973 11.7145 10.9527V0.261814C11.7145 0.117293 11.5972 0 11.4527 0Z" fill="#35B431"/>
<path d="M24.2379 0H13.5475C13.4029 0 13.2856 0.117293 13.2856 0.261814V10.9527C13.2856 11.0973 13.4029 11.2146 13.5475 11.2146H24.2379C24.3824 11.2146 24.4997 11.0973 24.4997 10.9527V0.261814C24.4997 0.117293 24.3824 0 24.2379 0Z" fill="#35B431"/>
<path d="M11.4527 12.7854H0.762303C0.617781 12.7854 0.500488 12.9027 0.500488 13.0472V23.7382C0.500488 23.8827 0.617781 24 0.762303 24H11.4527C11.5972 24 11.7145 23.8827 11.7145 23.7382V13.0472C11.7145 12.9027 11.5972 12.7854 11.4527 12.7854Z" fill="#35B431"/>
<path d="M24.2379 12.7854H13.5475C13.4029 12.7854 13.2856 12.9027 13.2856 13.0472V23.7382C13.2856 23.8827 13.4029 24 13.5475 24H24.2379C24.3824 24 24.4997 23.8827 24.4997 23.7382V13.0472C24.4997 12.9027 24.3824 12.7854 24.2379 12.7854Z" fill="#35B431"/>
</svg>
