<svg width="14" height="16" viewBox="0 0 14 16" fill="none" xmlns="http://www.w3.org/2000/svg">
<path fill-rule="evenodd" clip-rule="evenodd" d="M6.02405 0.456499C6.67954 0.457505 7.25937 0.87861 7.46645 1.51027C7.49638 1.60559 7.58742 1.66934 7.6887 1.66934H8.85288C9.02592 1.66934 9.15489 1.79503 9.15489 1.95852V3.15467C9.15489 3.31817 9.02592 3.44587 8.85288 3.44587H3.19522C3.02217 3.44587 2.89403 3.31817 2.89403 3.15467V1.95852C2.89403 1.79523 3.02217 1.66934 3.19522 1.66934H4.35898C4.46068 1.66934 4.5513 1.60559 4.58124 1.51027C4.78832 0.878812 5.36938 0.456499 6.02405 0.456499ZM6.02405 0C5.23365 0.00100551 4.56832 0.502752 4.25319 1.21163H1.21092C0.557277 1.21163 0 1.69025 0 2.30442V14.9074C0 15.5222 0.557482 16 1.21092 16H10.8378C11.4925 16 12.0487 15.5224 12.0487 14.9074V13.8748C12.0635 13.5572 11.5702 13.5572 11.5841 13.8748V14.9074C11.5841 15.2501 11.2682 15.5443 10.8376 15.5443H1.21092C0.781582 15.5443 0.464398 15.2501 0.464398 14.9074V2.30442C0.464398 1.96174 0.781582 1.66934 1.21092 1.66934H2.48909C2.45054 1.75843 2.42943 1.85596 2.42943 1.95852V3.15467C2.42943 3.56653 2.77552 3.90176 3.19502 3.90176H8.85267C9.27237 3.90176 9.62031 3.56653 9.62031 3.15467V1.95852C9.62031 1.85616 9.59899 1.75843 9.55942 1.66934H10.8376C11.2682 1.66934 11.5841 1.96174 11.5841 2.30442V4.18954C11.5702 4.50788 12.0635 4.50788 12.0487 4.18954V2.30442C12.0487 1.69025 11.4925 1.21163 10.8378 1.21163H7.7945C7.47937 0.502752 6.81404 0.00100551 6.02405 0Z" fill="#222222"/>
<path fill-rule="evenodd" clip-rule="evenodd" d="M6.02387 1.54908C6.26089 1.54908 6.45526 1.74073 6.45526 1.9911C6.45526 2.24127 6.26109 2.43191 6.02387 2.43191C5.78665 2.43191 5.59453 2.24127 5.59453 1.9911C5.59453 1.74073 5.78685 1.54908 6.02387 1.54908ZM6.02387 1.09338C5.5281 1.09338 5.12891 1.50162 5.12891 1.9911C5.12891 2.48118 5.5281 2.88741 6.02387 2.88741C6.51923 2.88741 6.91966 2.48118 6.91966 1.9911C6.91966 1.50182 6.51923 1.09338 6.02387 1.09338Z" fill="#222222"/>
<path fill-rule="evenodd" clip-rule="evenodd" d="M9.66694 7.55779C10.093 7.55779 10.4434 7.91092 10.4446 8.36441C10.4446 8.63469 10.3132 8.88707 10.0994 9.03468C10.0225 9.08797 9.98638 9.18228 10.0065 9.27238L10.3036 10.5126H9.02929L9.32638 9.27238C9.3477 9.18228 9.31039 9.08797 9.2335 9.03468C9.01965 8.88687 8.88946 8.63448 8.88823 8.36441C8.88966 7.91092 9.24006 7.55779 9.66694 7.55779ZM9.66694 7.10229C8.97741 7.10229 8.42383 7.67523 8.42383 8.36541C8.42383 8.70165 8.63132 8.97495 8.8628 9.21064L8.56797 10.4496C8.50502 10.7137 8.69734 10.9693 8.97926 10.9693H10.3536C10.6367 10.9693 10.8278 10.7137 10.7657 10.4496L10.4703 9.21064C10.7017 8.97495 10.9092 8.70165 10.9092 8.36541C10.9092 7.67523 10.3558 7.10229 9.66694 7.10229Z" fill="#222222"/>
<path d="M9.66708 5.07479L13.535 6.39341V7.74843C13.535 10.7139 12.009 12.4606 9.66708 13.7083C7.32541 12.4606 5.79956 10.7127 5.79956 7.74843V6.39341L9.66708 5.07479ZM9.59143 4.61789L5.49079 6.01614C5.39791 6.04751 5.33496 6.13459 5.33496 6.23092V7.74843C5.33496 10.9222 7.05928 12.8841 9.55944 14.1816C9.62669 14.2172 9.70809 14.2172 9.77616 14.1816C12.2751 12.8841 13.9998 10.9222 13.9998 7.74843V6.23092C13.9998 6.13459 13.9377 6.04751 13.844 6.01614L9.74418 4.61789C9.68759 4.59798 9.63633 4.6022 9.59143 4.61789Z" fill="#222222"/>
<path d="M1.83384 6.00247C1.51112 6.00247 1.51112 6.45817 1.83384 6.45817H4.30591C4.62822 6.45817 4.62822 6.00247 4.30591 6.00247H1.83384Z" fill="#222222"/>
<path d="M1.80998 7.37577C1.50038 7.37979 1.52294 7.83126 1.83356 7.83126H4.30563C4.62794 7.83126 4.62794 7.37255 4.30563 7.37577C3.47464 7.38401 2.63975 7.36531 1.80998 7.37577Z" fill="#222222"/>
<path d="M1.83384 8.74689C1.51112 8.74689 1.51112 9.20359 1.83384 9.20359H4.30591C4.62822 9.20359 4.62822 8.74689 4.30591 8.74689H1.83384Z" fill="#222222"/>
<path d="M1.80998 10.121C1.50038 10.1244 1.52294 10.5767 1.83356 10.5767C2.65779 10.5767 3.48099 10.5767 4.30563 10.5767C4.62794 10.5767 4.62794 10.1168 4.30563 10.121C3.47464 10.1295 2.63975 10.1094 1.80998 10.121Z" fill="#222222"/>
<path d="M1.83371 11.4919C1.52288 11.4919 1.52288 11.9496 1.83371 11.9496C2.99665 11.9496 4.15959 11.9496 5.32335 11.9496C5.63418 11.9496 5.63418 11.4919 5.32335 11.4919C4.15959 11.4919 2.99665 11.4919 1.83371 11.4919Z" fill="#222222"/>
<path d="M1.83384 12.8651C1.51112 12.8651 1.51112 13.3207 1.83384 13.3207C3.22621 13.3207 4.61858 13.3207 6.01219 13.3207C6.33491 13.3207 6.33491 12.8651 6.01219 12.8651C4.61858 12.8651 3.22621 12.8651 1.83384 12.8651Z" fill="#222222"/>
</svg>
