<svg width="20" height="20" viewBox="0 0 20 20" fill="none" xmlns="http://www.w3.org/2000/svg">
<path d="M16.2071 3.45432H16.0589V3.42387C16.0586 3.20421 15.975 2.99362 15.8264 2.83829C15.6777 2.68297 15.4762 2.59559 15.266 2.59531H7.57545C7.57417 2.58332 7.57192 2.57146 7.5687 2.55987C7.52205 2.39518 7.42479 2.25112 7.29195 2.14997C7.15911 2.04881 6.99809 1.99618 6.83376 2.00022C6.66944 2.00425 6.51095 2.06472 6.38281 2.17228C6.25466 2.27984 6.16398 2.42851 6.12478 2.59531H5.30073C5.09052 2.59559 4.88899 2.68297 4.74034 2.83829C4.59169 2.99362 4.50807 3.20421 4.50781 3.42387V9.18351C4.22708 9.23508 3.97269 9.38826 3.78923 9.6162C3.60577 9.84414 3.50496 10.1323 3.50447 10.4301V11.0178H3.49278C3.36218 11.0181 3.23702 11.0725 3.14467 11.169C3.05232 11.2655 3.0003 11.3963 3 11.5327V14.0903C3.00026 14.2268 3.05226 14.3577 3.14461 14.4542C3.23696 14.5507 3.36215 14.6051 3.49278 14.6054H4.50781V16.3124C4.50807 16.5321 4.59169 16.7427 4.74034 16.898C4.88899 17.0533 5.09052 17.1407 5.30073 17.141H5.44891V17.1714C5.44917 17.3911 5.5328 17.6017 5.68144 17.757C5.83009 17.9123 6.03162 17.9997 6.24184 18H16.2071C16.4173 17.9998 16.6189 17.9124 16.7675 17.7571C16.9162 17.6017 16.9998 17.3911 17 17.1714V4.28288C16.9997 4.06322 16.9161 3.85263 16.7675 3.6973C16.6188 3.54198 16.4173 3.4546 16.2071 3.45432ZM6.85135 2.43583C6.90673 2.4362 6.96115 2.45098 7.0097 2.47882C7.05824 2.50666 7.09939 2.5467 7.12943 2.59531H6.57277C6.60268 2.54645 6.64387 2.50623 6.69255 2.47836C6.74123 2.45049 6.79584 2.43587 6.85135 2.43583ZM5.51115 11.0183H4.92485V9.62927C5.093 9.67729 5.24142 9.78165 5.34733 9.92632C5.45324 10.071 5.51079 10.248 5.51115 10.4301V11.0183ZM3.92151 10.4301C3.92176 10.2479 3.97926 10.0708 4.08518 9.92601C4.1911 9.78123 4.33958 9.6768 4.50781 9.62876V11.0178H3.92151V10.4301ZM3.41704 14.0903V11.5333C3.41726 11.5123 3.42531 11.4923 3.43946 11.4776C3.45362 11.4628 3.47276 11.4543 3.49278 11.4541H5.94005C5.96005 11.4544 5.97917 11.4628 5.99332 11.4776C6.00746 11.4924 6.01553 11.5124 6.01578 11.5333V14.0903C6.01553 14.1113 6.00747 14.1312 5.99333 14.1461C5.97918 14.1609 5.96007 14.1693 5.94005 14.1696H3.49278C3.47274 14.1694 3.4536 14.1609 3.43945 14.1461C3.4253 14.1313 3.41726 14.1113 3.41704 14.0903ZM4.92485 16.3124V14.6054H5.94005C6.05432 14.6053 6.16497 14.5635 6.25287 14.4872C6.27726 14.4975 6.3033 14.5028 6.32959 14.5027H8.13623C8.19052 14.5011 8.24207 14.4775 8.27993 14.4368C8.31779 14.3961 8.33897 14.3416 8.33897 14.2848C8.33897 14.2281 8.31779 14.1736 8.27993 14.1329C8.24207 14.0922 8.19052 14.0685 8.13623 14.0669H6.43283V13.1666H10.1026C10.1569 13.165 10.2084 13.1414 10.2463 13.1007C10.2841 13.06 10.3053 13.0055 10.3053 12.9487C10.3053 12.892 10.2841 12.8375 10.2463 12.7968C10.2084 12.7561 10.1569 12.7324 10.1026 12.7309H6.43283V11.8306H14.2369C14.2648 11.8314 14.2926 11.8263 14.3186 11.8158C14.3445 11.8052 14.3682 11.7893 14.3882 11.7689C14.4082 11.7486 14.4241 11.7243 14.435 11.6975C14.4458 11.6706 14.4514 11.6418 14.4514 11.6127C14.4514 11.5835 14.4458 11.5547 14.435 11.5278C14.4241 11.501 14.4082 11.4767 14.3882 11.4564C14.3682 11.4361 14.3445 11.4201 14.3186 11.4096C14.2926 11.399 14.2648 11.394 14.2369 11.3948H6.41422C6.38513 11.2867 6.3231 11.1914 6.23753 11.1235C6.15195 11.0556 6.04751 11.0186 5.94005 11.0183H5.92819V10.4301C5.92782 10.1322 5.82706 9.84393 5.64359 9.61588C5.46012 9.38783 5.20566 9.23457 4.92485 9.18299V3.42387C4.92494 3.31973 4.96457 3.21988 5.03504 3.14624C5.10551 3.0726 5.20107 3.03119 5.30073 3.0311H6.10304V4.55402C6.10157 4.65767 6.11984 4.76059 6.15678 4.85679C6.19372 4.953 6.2486 5.04057 6.31823 5.11441C6.38785 5.18825 6.47083 5.24689 6.56234 5.28691C6.65385 5.32694 6.75206 5.34755 6.85127 5.34755C6.95047 5.34755 7.04868 5.32694 7.14019 5.28691C7.2317 5.24689 7.31469 5.18825 7.38431 5.11441C7.45394 5.04057 7.50881 4.953 7.54576 4.85679C7.5827 4.76059 7.60096 4.65767 7.59949 4.55402V3.77208C7.60027 3.74296 7.59546 3.71396 7.58533 3.68681C7.57521 3.65965 7.55997 3.6349 7.54053 3.61401C7.52109 3.59311 7.49784 3.57651 7.47215 3.56517C7.44646 3.55383 7.41886 3.54798 7.39097 3.54798C7.36308 3.54798 7.33548 3.55383 7.30979 3.56517C7.2841 3.57651 7.26085 3.59311 7.24141 3.61401C7.22197 3.6349 7.20673 3.65965 7.19661 3.68681C7.18648 3.71396 7.18167 3.74296 7.18245 3.77208V4.55367C7.18343 4.59977 7.17559 4.6456 7.15939 4.68849C7.14319 4.73138 7.11895 4.77045 7.0881 4.80341C7.05725 4.83637 7.02041 4.86257 6.97974 4.88045C6.93907 4.89833 6.89539 4.90754 6.85127 4.90754C6.80714 4.90754 6.76346 4.89833 6.72279 4.88045C6.68212 4.86257 6.64528 4.83637 6.61443 4.80341C6.58358 4.77045 6.55934 4.73138 6.54314 4.68849C6.52694 4.6456 6.5191 4.59977 6.52009 4.55367V3.0311H15.266C15.3656 3.03119 15.4612 3.0726 15.5317 3.14624C15.6021 3.21988 15.6418 3.31973 15.6419 3.42387V16.3124C15.6418 16.4166 15.6021 16.5164 15.5317 16.5901C15.4612 16.6637 15.3656 16.7051 15.266 16.7052H5.30073C5.20107 16.7051 5.10551 16.6637 5.03504 16.5901C4.96457 16.5164 4.92494 16.4166 4.92485 16.3124ZM16.583 17.1714C16.5829 17.2756 16.5432 17.3754 16.4728 17.4491C16.4023 17.5227 16.3067 17.5641 16.2071 17.5642H6.24184C6.14217 17.5641 6.04662 17.5227 5.97615 17.4491C5.90567 17.3754 5.86604 17.2756 5.86596 17.1714V17.141H15.266C15.4762 17.1407 15.6777 17.0533 15.8264 16.898C15.975 16.7427 16.0586 16.5321 16.0589 16.3124V3.89097H16.2071C16.3067 3.8911 16.4023 3.93253 16.4727 4.00616C16.5432 4.07979 16.5828 4.17961 16.583 4.28374V17.1714ZM9.70479 7.92846C9.84211 8.02274 9.99786 8.1294 10.1623 8.25207C10.1977 8.27837 10.24 8.2925 10.2834 8.2925C10.3267 8.2925 10.369 8.27837 10.4044 8.25207C10.569 8.1294 10.7246 8.02274 10.8619 7.92846C11.3988 7.56029 11.7867 7.29414 11.7867 6.6987V5.13999C11.7867 5.10951 11.7806 5.07936 11.7688 5.0515C11.7569 5.02364 11.7396 4.99869 11.718 4.97826C11.6963 4.95783 11.6708 4.94237 11.6431 4.93289C11.6154 4.92341 11.5861 4.92011 11.557 4.92322C11.343 4.94541 11.0378 4.7061 10.8425 4.47385C10.8229 4.4506 10.7988 4.43198 10.7717 4.41922C10.7447 4.40647 10.7154 4.39987 10.6857 4.39987H9.88096C9.85131 4.39989 9.822 4.4065 9.79498 4.41925C9.76796 4.43201 9.74384 4.45062 9.72422 4.47385C9.52912 4.7061 9.22239 4.94541 9.00967 4.92322C8.98065 4.92014 8.95134 4.92346 8.92363 4.93295C8.89591 4.94244 8.87041 4.95789 8.84877 4.97832C8.82713 4.99875 8.80982 5.02369 8.79797 5.05154C8.78613 5.07939 8.78 5.10952 8.77999 5.13999V6.6987C8.77999 7.29414 9.16789 7.56029 9.70479 7.92846ZM9.19703 5.34318C9.49602 5.2536 9.76475 5.07768 9.97234 4.83565H10.5944C10.802 5.07768 11.0707 5.2536 11.3697 5.34318V6.6987C11.3697 7.04519 11.1571 7.20485 10.6331 7.56425C10.5264 7.63736 10.4088 7.71805 10.2834 7.80855C10.1581 7.71805 10.0403 7.63736 9.93365 7.56425C9.40975 7.20485 9.19703 7.04519 9.19703 6.6987V5.34318ZM9.54904 6.39659C9.52907 6.3765 9.51314 6.35245 9.50217 6.32585C9.4912 6.29925 9.48541 6.27063 9.48515 6.24167C9.48488 6.2127 9.49014 6.18397 9.50063 6.15716C9.51111 6.13034 9.5266 6.10598 9.54619 6.08549C9.56579 6.06501 9.5891 6.0488 9.61475 6.03784C9.64041 6.02687 9.6679 6.02135 9.69562 6.02161C9.72334 6.02188 9.75073 6.02791 9.77619 6.03935C9.80165 6.0508 9.82468 6.06744 9.84392 6.08829L10.1238 6.38077L10.7233 5.75436C10.7426 5.73413 10.7656 5.71808 10.7909 5.70713C10.8162 5.69618 10.8433 5.69054 10.8707 5.69054C10.8981 5.69054 10.9252 5.69618 10.9505 5.70713C10.9758 5.71808 10.9988 5.73413 11.0182 5.75436C11.0375 5.77459 11.0529 5.79861 11.0634 5.82504C11.0738 5.85148 11.0792 5.87981 11.0792 5.90842C11.0792 5.93703 11.0738 5.96537 11.0634 5.9918C11.0529 6.01824 11.0375 6.04225 11.0182 6.06249L10.2713 6.84287C10.252 6.86312 10.229 6.87918 10.2037 6.89014C10.1783 6.90109 10.1512 6.90673 10.1238 6.90673C10.0964 6.90673 10.0693 6.90109 10.044 6.89014C10.0187 6.87918 9.99566 6.86312 9.97629 6.84287L9.54904 6.39659ZM8.73224 8.94059C8.73224 8.91197 8.73764 8.88363 8.74812 8.85719C8.75861 8.83076 8.77398 8.80674 8.79335 8.78651C8.81272 8.76629 8.83572 8.75025 8.86103 8.73931C8.88634 8.72837 8.91346 8.72276 8.94085 8.72278H14.2363C14.2642 8.72196 14.2919 8.72699 14.3179 8.73757C14.3439 8.74815 14.3676 8.76407 14.3876 8.78439C14.4076 8.8047 14.4235 8.829 14.4343 8.85584C14.4452 8.88269 14.4508 8.91153 14.4508 8.94067C14.4508 8.96981 14.4452 8.99866 14.4343 9.0255C14.4235 9.05234 14.4076 9.07664 14.3876 9.09695C14.3676 9.11727 14.3439 9.13319 14.3179 9.14377C14.2919 9.15435 14.2642 9.15938 14.2363 9.15856H8.94019C8.88498 9.15838 8.83209 9.13534 8.79311 9.09448C8.75413 9.05362 8.73224 8.99828 8.73224 8.94059ZM6.12264 8.94059C6.12264 8.88282 6.1446 8.82742 6.18369 8.78657C6.22278 8.74573 6.27579 8.72278 6.33108 8.72278H7.99678C8.05107 8.72437 8.10262 8.74803 8.14048 8.78872C8.17834 8.82941 8.19952 8.88392 8.19952 8.94067C8.19952 8.99742 8.17834 9.05194 8.14048 9.09262C8.10262 9.13331 8.05107 9.15697 7.99678 9.15856H6.33042C6.30303 9.15856 6.27591 9.15292 6.25061 9.14197C6.22531 9.13101 6.20233 9.11495 6.18297 9.09471C6.16361 9.07446 6.14826 9.05043 6.1378 9.02399C6.12733 8.99754 6.12196 8.9692 6.12198 8.94059H6.12264ZM11.6053 10.2767C11.6053 10.3053 11.5999 10.3336 11.5895 10.3601C11.579 10.3865 11.5636 10.4105 11.5443 10.4308C11.5249 10.451 11.5019 10.4671 11.4766 10.478C11.4513 10.489 11.4242 10.4946 11.3968 10.4946H6.33042C6.27613 10.4931 6.22457 10.4694 6.18671 10.4287C6.14885 10.388 6.12767 10.3335 6.12767 10.2768C6.12767 10.22 6.14885 10.1655 6.18671 10.1248C6.22457 10.0841 6.27613 10.0605 6.33042 10.0589H11.3957C11.451 10.0589 11.504 10.0818 11.5431 10.1227C11.5822 10.1635 11.6041 10.2189 11.6041 10.2767H11.6053ZM14.446 10.2767C14.446 10.3345 14.4241 10.3899 14.3849 10.4308C14.3458 10.4717 14.2928 10.4946 14.2374 10.4946H12.3391C12.2848 10.4931 12.2333 10.4694 12.1954 10.4287C12.1575 10.388 12.1364 10.3335 12.1364 10.2768C12.1364 10.22 12.1575 10.1655 12.1954 10.1248C12.2333 10.0841 12.2848 10.0605 12.3391 10.0589H14.2363C14.2637 10.0588 14.2909 10.0643 14.3163 10.0752C14.3416 10.0861 14.3647 10.1022 14.3841 10.1224C14.4035 10.1426 14.4189 10.1667 14.4295 10.1932C14.44 10.2196 14.4454 10.248 14.4454 10.2767H14.446ZM8.87235 14.2853C8.87235 14.2275 8.89431 14.1721 8.9334 14.1312C8.97249 14.0904 9.02551 14.0675 9.08079 14.0675H14.2363C14.2642 14.0666 14.2919 14.0717 14.3179 14.0822C14.3439 14.0928 14.3676 14.1087 14.3876 14.1291C14.4076 14.1494 14.4235 14.1737 14.4343 14.2005C14.4452 14.2274 14.4508 14.2562 14.4508 14.2853C14.4508 14.3145 14.4452 14.3433 14.4343 14.3702C14.4235 14.397 14.4076 14.4213 14.3876 14.4416C14.3676 14.4619 14.3439 14.4779 14.3179 14.4884C14.2919 14.499 14.2642 14.5041 14.2363 14.5032H9.07964C9.05221 14.5032 9.02505 14.4976 8.99972 14.4866C8.97439 14.4756 8.95138 14.4595 8.93202 14.4392C8.91265 14.4189 8.89731 14.3948 8.88688 14.3683C8.87644 14.3418 8.87111 14.3134 8.8712 14.2847L8.87235 14.2853ZM10.8374 12.9488C10.8374 12.891 10.8594 12.8356 10.8985 12.7947C10.9376 12.7538 10.9907 12.7309 11.046 12.7309H14.2363C14.2642 12.73 14.2919 12.7351 14.3179 12.7456C14.3439 12.7562 14.3676 12.7721 14.3876 12.7925C14.4076 12.8128 14.4235 12.8371 14.4343 12.8639C14.4452 12.8908 14.4508 12.9196 14.4508 12.9487C14.4508 12.9779 14.4452 13.0067 14.4343 13.0336C14.4235 13.0604 14.4076 13.0847 14.3876 13.105C14.3676 13.1253 14.3439 13.1413 14.3179 13.1518C14.2919 13.1624 14.2642 13.1675 14.2363 13.1666H11.046C11.0186 13.1667 10.9915 13.161 10.9662 13.1501C10.9409 13.1392 10.9179 13.1231 10.8985 13.1029C10.8791 13.0827 10.8637 13.0587 10.8533 13.0322C10.8428 13.0058 10.8374 12.9774 10.8374 12.9488ZM4.92485 13.5111V13.1467C5.0618 13.0954 5.17702 12.9952 5.25021 12.8638C5.3234 12.7324 5.34987 12.5783 5.32494 12.4285C5.30002 12.2787 5.22531 12.1429 5.11397 12.0451C5.00263 11.9472 4.86182 11.8936 4.71633 11.8936C4.57084 11.8936 4.43003 11.9472 4.31869 12.0451C4.20735 12.1429 4.13264 12.2787 4.10772 12.4285C4.0828 12.5783 4.10926 12.7324 4.18245 12.8638C4.25564 12.9952 4.37086 13.0954 4.50781 13.1467V13.5111C4.50703 13.5402 4.51184 13.5692 4.52197 13.5963C4.53209 13.6235 4.54733 13.6483 4.56677 13.6691C4.58621 13.69 4.60946 13.7066 4.63515 13.718C4.66084 13.7293 4.68844 13.7352 4.71633 13.7352C4.74422 13.7352 4.77182 13.7293 4.79751 13.718C4.8232 13.7066 4.84645 13.69 4.86589 13.6691C4.88533 13.6483 4.90057 13.6235 4.91069 13.5963C4.92082 13.5692 4.92564 13.5402 4.92485 13.5111ZM4.71641 12.3303C4.75611 12.3303 4.79491 12.3426 4.82792 12.3657C4.86092 12.3887 4.88665 12.4215 4.90184 12.4598C4.91703 12.4981 4.921 12.5403 4.91326 12.581C4.90551 12.6217 4.8864 12.659 4.85833 12.6884C4.83026 12.7177 4.7945 12.7377 4.75557 12.7457C4.71664 12.7538 4.67628 12.7497 4.63961 12.7338C4.60293 12.7179 4.57159 12.6911 4.54954 12.6566C4.52748 12.6221 4.51571 12.5815 4.51571 12.5401C4.51576 12.4845 4.53691 12.4311 4.57454 12.3918C4.61217 12.3525 4.6632 12.3304 4.71641 12.3303Z" fill="#222222"/>
</svg>
