<svg width="20" height="20" viewBox="0 0 20 20" fill="none" xmlns="http://www.w3.org/2000/svg">
<path d="M14.6987 12.3503C13.452 11.3017 11.736 10.7006 9.99777 10.7006C8.2595 10.7006 6.54357 11.3017 5.29684 12.3503C3.79093 13.6158 3 15.4599 3 17.6836C3 17.8599 3.13853 18 3.3128 18H16.6872C16.8615 18 17 17.8599 17 17.6836C17 15.4599 16.2091 13.6158 14.6987 12.3503ZM3.63007 17.3672C3.70156 15.478 4.41206 13.9186 5.69901 12.8384C6.83402 11.8802 8.40249 11.3333 10.0022 11.3333C11.5975 11.3333 13.166 11.8802 14.3055 12.8384C15.5924 13.9186 16.3029 15.4825 16.3744 17.3672H3.63007Z" fill="#222222"/>
<path d="M9.99779 9.71977C12.1025 9.71977 13.8139 7.9887 13.8139 5.85989C13.8139 3.73107 12.1025 2 9.99779 2C7.8931 2 6.18164 3.73107 6.18164 5.85989C6.18611 7.9887 7.89757 9.71977 9.99779 9.71977ZM9.99779 2.63277C11.7584 2.63277 13.1883 4.0791 13.1883 5.85989C13.1883 7.64068 11.7584 9.08701 9.99779 9.08701C8.23718 9.08701 6.80724 7.64068 6.80724 5.85989C6.81171 4.0791 8.24165 2.63277 9.99779 2.63277Z" fill="#222222"/>
</svg>
