<svg width="24" height="24" viewBox="0 0 24 24" fill="none" xmlns="http://www.w3.org/2000/svg">
<path d="M10.8032 19.6064C5.94905 19.6064 2 15.6573 2 10.8032C2 5.94905 5.94905 2 10.8032 2C15.6573 2 19.6064 5.94905 19.6064 10.8032C19.6064 15.6573 15.6573 19.6064 10.8032 19.6064ZM10.8032 2.85106C6.41843 2.85106 2.85106 6.41843 2.85106 10.8032C2.85106 15.188 6.41843 18.7553 10.8032 18.7553C15.188 18.7553 18.7553 15.188 18.7553 10.8032C18.7553 6.41843 15.188 2.85106 10.8032 2.85106Z" fill="#252525"/>
<path d="M21.5746 22.0001C21.4657 22.0001 21.3568 21.9586 21.2737 21.8754L16.4865 17.0882C16.3203 16.922 16.3203 16.6527 16.4865 16.4865C16.6527 16.3203 16.922 16.3203 17.0882 16.4865L21.8754 21.2737C22.0417 21.4399 22.0417 21.7092 21.8754 21.8754C21.7923 21.9586 21.6835 22.0001 21.5746 22.0001Z" fill="#252525"/>
</svg>
