<svg width="43" height="36" viewBox="0 0 43 36" fill="none" xmlns="http://www.w3.org/2000/svg">
<path d="M5.89773 5.45455C5.84943 4.96875 5.63494 4.58239 5.25426 4.29545C4.87358 4.00852 4.39489 3.86506 3.81818 3.86506C3.41193 3.86506 3.05398 3.93466 2.74432 4.07386C2.4375 4.21307 2.19602 4.40625 2.01989 4.65341C1.84659 4.89773 1.75994 5.17614 1.75994 5.48864C1.75994 5.71875 1.80966 5.92045 1.90909 6.09375C2.00852 6.26705 2.14205 6.41619 2.30966 6.54119C2.48011 6.66335 2.66761 6.76847 2.87216 6.85653C3.07955 6.9446 3.28835 7.01847 3.49858 7.07812L4.41903 7.34233C4.69744 7.41903 4.97585 7.51705 5.25426 7.63636C5.53267 7.75568 5.78693 7.90625 6.01705 8.08807C6.25 8.26705 6.43608 8.48722 6.57528 8.74858C6.71733 9.0071 6.78835 9.31818 6.78835 9.68182C6.78835 10.1477 6.66761 10.5668 6.42614 10.9389C6.18466 11.3111 5.83807 11.6065 5.38636 11.8253C4.93466 12.0412 4.39347 12.1491 3.76278 12.1491C3.16903 12.1491 2.65341 12.0511 2.21591 11.8551C1.77841 11.6562 1.43466 11.3821 1.18466 11.0327C0.934659 10.6832 0.794034 10.2784 0.762784 9.81818H1.58097C1.60938 10.1619 1.72301 10.4531 1.92188 10.6918C2.12074 10.9304 2.37926 11.1122 2.69744 11.2372C3.01562 11.3594 3.37074 11.4205 3.76278 11.4205C4.19744 11.4205 4.58381 11.348 4.92188 11.2031C5.26278 11.0554 5.52983 10.8509 5.72301 10.5895C5.91903 10.3253 6.01705 10.0185 6.01705 9.66903C6.01705 9.37358 5.94034 9.12642 5.78693 8.92756C5.63352 8.72585 5.41903 8.55682 5.14347 8.42045C4.87074 8.28409 4.55398 8.16335 4.19318 8.05824L3.14915 7.75142C2.46449 7.54687 1.93324 7.2642 1.5554 6.90341C1.17756 6.54261 0.988636 6.08239 0.988636 5.52273C0.988636 5.05398 1.11364 4.64205 1.36364 4.28693C1.61648 3.92898 1.95739 3.65057 2.38636 3.4517C2.81818 3.25 3.30256 3.14915 3.83949 3.14915C4.3821 3.14915 4.86222 3.24858 5.27983 3.44744C5.69744 3.64631 6.02841 3.92045 6.27273 4.26989C6.51989 4.61648 6.65199 5.01136 6.66903 5.45455H5.89773ZM11.1264 5.45455V6.11506H8.00284V5.45455H11.1264ZM8.97869 3.88636H9.74148V10.2912C9.74148 10.5639 9.78835 10.7784 9.8821 10.9347C9.97585 11.0881 10.098 11.1974 10.2486 11.2628C10.3991 11.3253 10.5597 11.3565 10.7301 11.3565C10.8295 11.3565 10.9148 11.3509 10.9858 11.3395C11.0568 11.3253 11.1193 11.3111 11.1733 11.2969L11.3352 11.983C11.2614 12.0114 11.1705 12.0369 11.0625 12.0597C10.9545 12.0852 10.821 12.098 10.6619 12.098C10.3835 12.098 10.1151 12.0369 9.85653 11.9148C9.60085 11.7926 9.39063 11.6108 9.22585 11.3693C9.06108 11.1278 8.97869 10.8281 8.97869 10.4702V3.88636ZM14.6772 12.1491C14.2823 12.1491 13.9215 12.0724 13.5948 11.919C13.2681 11.7628 13.0082 11.5384 12.815 11.2457C12.6218 10.9503 12.5252 10.5923 12.5252 10.1719C12.5252 9.84801 12.5863 9.57528 12.7085 9.35369C12.8306 9.1321 13.0039 8.95028 13.2283 8.80824C13.4528 8.66619 13.7184 8.55398 14.0252 8.47159C14.332 8.3892 14.6701 8.32528 15.0394 8.27983C15.4059 8.23437 15.7156 8.1946 15.9684 8.16051C16.2241 8.12642 16.4187 8.07244 16.5522 7.99858C16.6857 7.92472 16.7525 7.8054 16.7525 7.64062V7.48722C16.7525 7.04119 16.619 6.69034 16.3519 6.43466C16.0877 6.17614 15.707 6.04688 15.2099 6.04688C14.7383 6.04688 14.3533 6.15057 14.055 6.35795C13.7596 6.56534 13.5522 6.80966 13.4329 7.09091L12.7127 6.83097C12.8604 6.47301 13.065 6.1875 13.3263 5.97443C13.5877 5.75852 13.8803 5.60369 14.2042 5.50994C14.5281 5.41335 14.8562 5.36506 15.1886 5.36506C15.4386 5.36506 15.6985 5.39773 15.9684 5.46307C16.2411 5.52841 16.494 5.64205 16.7269 5.80398C16.9599 5.96307 17.1488 6.18608 17.2937 6.47301C17.4386 6.7571 17.511 7.1179 17.511 7.5554V12H16.7525V10.9645H16.7056C16.6147 11.1577 16.4798 11.3452 16.3008 11.527C16.1218 11.7088 15.8974 11.858 15.6275 11.9744C15.3576 12.0909 15.0408 12.1491 14.6772 12.1491ZM14.7795 11.4545C15.1829 11.4545 15.5323 11.3651 15.8278 11.1861C16.1232 11.0071 16.3505 10.7699 16.5096 10.4744C16.6715 10.1761 16.7525 9.84801 16.7525 9.49006V8.54403C16.6957 8.59801 16.6005 8.64631 16.467 8.68892C16.3363 8.73153 16.1843 8.76989 16.011 8.80398C15.8406 8.83523 15.6701 8.86222 15.4996 8.88494C15.3292 8.90767 15.1758 8.92756 15.0394 8.9446C14.6701 8.99006 14.3548 9.06108 14.0934 9.15767C13.832 9.25426 13.6317 9.38778 13.4925 9.55824C13.3533 9.72585 13.2837 9.94176 13.2837 10.206C13.2837 10.6037 13.4258 10.9119 13.7099 11.1307C13.994 11.3466 14.3505 11.4545 14.7795 11.4545ZM22.1069 5.45455V6.11506H18.9833V5.45455H22.1069ZM19.9592 3.88636H20.7219V10.2912C20.7219 10.5639 20.7688 10.7784 20.8626 10.9347C20.9563 11.0881 21.0785 11.1974 21.229 11.2628C21.3796 11.3253 21.5401 11.3565 21.7106 11.3565C21.81 11.3565 21.8952 11.3509 21.9663 11.3395C22.0373 11.3253 22.0998 11.3111 22.1538 11.2969L22.3157 11.983C22.2418 12.0114 22.1509 12.0369 22.043 12.0597C21.935 12.0852 21.8015 12.098 21.6424 12.098C21.364 12.098 21.0955 12.0369 20.837 11.9148C20.5813 11.7926 20.3711 11.6108 20.2063 11.3693C20.0415 11.1278 19.9592 10.8281 19.9592 10.4702V3.88636ZM27.9886 9.49858V5.45455H28.7472V12H27.9886V10.9134H27.929C27.7756 11.2486 27.5327 11.5284 27.2003 11.7528C26.8679 11.9744 26.4616 12.0852 25.9815 12.0852C25.5639 12.0852 25.1932 11.9943 24.8693 11.8125C24.5455 11.6278 24.2912 11.358 24.1065 11.0028C23.9219 10.6477 23.8295 10.2116 23.8295 9.6946V5.45455H24.5881V9.64773C24.5881 10.1591 24.7386 10.571 25.0398 10.8835C25.3409 11.1932 25.7273 11.348 26.1989 11.348C26.4943 11.348 26.7784 11.277 27.0511 11.1349C27.3239 10.9929 27.5483 10.7855 27.7244 10.5128C27.9006 10.2372 27.9886 9.89915 27.9886 9.49858ZM35.1531 6.89062L34.4585 7.08665C34.3903 6.89062 34.2937 6.71307 34.1687 6.55398C34.0437 6.39489 33.8803 6.26847 33.6786 6.17472C33.4798 6.08097 33.2326 6.03409 32.9371 6.03409C32.494 6.03409 32.1303 6.1392 31.8462 6.34943C31.5621 6.55966 31.4201 6.83097 31.4201 7.16335C31.4201 7.4446 31.5167 7.6733 31.7099 7.84943C31.9059 8.02273 32.207 8.16051 32.6133 8.26278L33.6019 8.50568C34.1502 8.6392 34.5607 8.85085 34.8335 9.14062C35.109 9.4304 35.2468 9.79403 35.2468 10.2315C35.2468 10.6009 35.1445 10.929 34.94 11.2159C34.7354 11.5028 34.4499 11.7287 34.0835 11.8935C33.7198 12.0554 33.2979 12.1364 32.8178 12.1364C32.1786 12.1364 31.6516 11.9929 31.2369 11.706C30.8221 11.4162 30.5565 10.9986 30.44 10.4531L31.1687 10.2741C31.2624 10.6634 31.4457 10.9574 31.7184 11.1562C31.994 11.3551 32.3562 11.4545 32.805 11.4545C33.3079 11.4545 33.7099 11.3423 34.011 11.1179C34.3121 10.8906 34.4627 10.6065 34.4627 10.2656C34.4627 10.0014 34.3746 9.77983 34.1985 9.60085C34.0224 9.41903 33.7553 9.28551 33.3974 9.20028L32.3278 8.9446C31.7596 8.80824 31.3391 8.59233 31.0664 8.29688C30.7937 8.00142 30.6573 7.63494 30.6573 7.19744C30.6573 6.83665 30.7553 6.51989 30.9513 6.24716C31.1474 5.97159 31.4173 5.75568 31.761 5.59943C32.1048 5.44318 32.4968 5.36506 32.9371 5.36506C33.5366 5.36506 34.0153 5.50142 34.3732 5.77415C34.734 6.04403 34.994 6.41619 35.1531 6.89062Z" fill="#222222"/>
<path d="M1.97869 33H0.348011L4.01207 22.8182H5.78693L9.45099 33H7.82031L4.94176 24.6676H4.86222L1.97869 33ZM2.25213 29.0128H7.5419V30.3054H2.25213V29.0128ZM13.8956 33.1541C13.1565 33.1541 12.5201 32.9867 11.9865 32.652C11.4562 32.3139 11.0485 31.8482 10.7635 31.255C10.4785 30.6617 10.3359 29.9822 10.3359 29.2166C10.3359 28.4411 10.4818 27.7566 10.7734 27.1634C11.0651 26.5668 11.4761 26.1011 12.0064 25.7663C12.5367 25.4316 13.1615 25.2642 13.8807 25.2642C14.4607 25.2642 14.9777 25.3719 15.4318 25.5874C15.8859 25.7995 16.2521 26.0978 16.5305 26.4822C16.8123 26.8667 16.9796 27.3158 17.0327 27.8295H15.5859C15.5064 27.4716 15.3241 27.1634 15.0391 26.9048C14.7573 26.6463 14.3795 26.517 13.9055 26.517C13.4912 26.517 13.1283 26.6264 12.8168 26.8452C12.5085 27.0606 12.2682 27.3688 12.0959 27.7699C11.9235 28.1676 11.8374 28.6383 11.8374 29.1818C11.8374 29.7386 11.9219 30.2192 12.0909 30.6236C12.2599 31.0279 12.4986 31.3411 12.8068 31.5632C13.1184 31.7853 13.4846 31.8963 13.9055 31.8963C14.1873 31.8963 14.4425 31.8449 14.6712 31.7422C14.9032 31.6361 15.0971 31.4853 15.2528 31.2898C15.4119 31.0942 15.523 30.8589 15.5859 30.5838H17.0327C16.9796 31.0777 16.8189 31.5185 16.5504 31.9062C16.282 32.294 15.9223 32.599 15.4716 32.821C15.0241 33.0431 14.4988 33.1541 13.8956 33.1541ZM22.187 25.3636V26.5568H18.0158V25.3636H22.187ZM19.1344 23.5341H20.6209V30.7578C20.6209 31.0462 20.664 31.2633 20.7502 31.4091C20.8364 31.5516 20.9474 31.6494 21.0833 31.7024C21.2225 31.7521 21.3733 31.777 21.5357 31.777C21.655 31.777 21.7594 31.7687 21.8489 31.7521C21.9384 31.7356 22.008 31.7223 22.0577 31.7124L22.3262 32.9403C22.24 32.9735 22.1174 33.0066 21.9583 33.0398C21.7992 33.0762 21.6003 33.0961 21.3617 33.0994C20.9706 33.1061 20.606 33.0365 20.2679 32.8906C19.9299 32.7448 19.6564 32.5194 19.4476 32.2145C19.2388 31.9096 19.1344 31.5268 19.1344 31.0661V23.5341ZM23.8313 33V25.3636H25.3178V33H23.8313ZM24.582 24.1854C24.3235 24.1854 24.1014 24.0992 23.9158 23.9268C23.7335 23.7512 23.6424 23.5424 23.6424 23.3004C23.6424 23.0552 23.7335 22.8464 23.9158 22.674C24.1014 22.4983 24.3235 22.4105 24.582 22.4105C24.8406 22.4105 25.061 22.4983 25.2433 22.674C25.4289 22.8464 25.5217 23.0552 25.5217 23.3004C25.5217 23.5424 25.4289 23.7512 25.2433 23.9268C25.061 24.0992 24.8406 24.1854 24.582 24.1854ZM33.8503 25.3636L31.0811 33H29.4902L26.7161 25.3636H28.312L30.2459 31.2401H30.3255L32.2544 25.3636H33.8503ZM38.2788 33.1541C37.5264 33.1541 36.8784 32.9934 36.3349 32.6719C35.7946 32.3471 35.377 31.8913 35.082 31.3047C34.7904 30.7147 34.6445 30.0237 34.6445 29.2315C34.6445 28.4493 34.7904 27.7599 35.082 27.1634C35.377 26.5668 35.788 26.1011 36.315 25.7663C36.8453 25.4316 37.4651 25.2642 38.1744 25.2642C38.6052 25.2642 39.0228 25.3355 39.4272 25.478C39.8316 25.6205 40.1945 25.8442 40.516 26.1491C40.8375 26.4541 41.091 26.8501 41.2766 27.3374C41.4622 27.8213 41.555 28.4096 41.555 29.1023V29.6293H35.4847V28.5156H40.0984C40.0984 28.1245 40.0188 27.7782 39.8597 27.4766C39.7006 27.1716 39.4769 26.9313 39.1886 26.7557C38.9035 26.58 38.5688 26.4922 38.1843 26.4922C37.7667 26.4922 37.4021 26.5949 37.0906 26.8004C36.7823 27.0026 36.5437 27.2678 36.3746 27.5959C36.2089 27.9207 36.1261 28.2737 36.1261 28.6548V29.5249C36.1261 30.0353 36.2156 30.4695 36.3945 30.8274C36.5768 31.1854 36.8304 31.4588 37.1552 31.6477C37.48 31.8333 37.8595 31.9261 38.2937 31.9261C38.5754 31.9261 38.8323 31.8864 39.0643 31.8068C39.2963 31.724 39.4968 31.6013 39.6658 31.4389C39.8349 31.2765 39.9641 31.076 40.0536 30.8374L41.4606 31.0909C41.3479 31.5052 41.1457 31.8681 40.854 32.1797C40.5657 32.4879 40.2028 32.7282 39.7653 32.9006C39.3311 33.0696 38.8356 33.1541 38.2788 33.1541Z" fill="#EFC602"/>
</svg>
