<svg width="40" height="40" viewBox="0 0 40 40" fill="none" xmlns="http://www.w3.org/2000/svg">
<path fill-rule="evenodd" clip-rule="evenodd" d="M11 23.5194H13.5257V29H11V23.5194ZM16.1582 29H18.6838V18.5163H16.1582V29ZM21.3164 29C22.1582 29 23 29 23.842 29C23.842 26.1284 23.842 23.2567 23.842 20.3849C23.0002 20.3849 22.1584 20.3849 21.3164 20.3849C21.3164 23.2567 21.3164 26.1284 21.3164 29ZM26.4745 29H29V15.6514H26.4745V29ZM17.7153 14.6472L22.2482 16.3392C22.3349 16.3713 22.4284 16.353 22.4953 16.2988L27.8854 11.887L27.6109 13.2127C27.5834 13.3455 27.6705 13.4755 27.8052 13.5026C27.9399 13.5297 28.0717 13.4438 28.0992 13.3109L28.5155 11.3002C28.5188 11.2843 28.5204 11.2679 28.5204 11.2511C28.5204 11.1155 28.4088 11.0054 28.2713 11.0054L26.1906 11C26.0531 11 25.9416 11.1101 25.9416 11.2456C25.9416 11.3812 26.0531 11.4913 26.1906 11.4913L27.5825 11.4949L22.2882 15.8282L17.7516 14.1351C17.6685 14.1043 17.5712 14.1184 17.4996 14.1801L12.0675 18.8732C11.964 18.9625 11.9534 19.1178 12.044 19.22C12.1346 19.3221 12.292 19.3325 12.3956 19.2432L17.7153 14.6472Z" fill="#35B431"/>
<rect x="0.25" y="0.25" width="39.5" height="39.5" rx="3.75" stroke="#35B431" stroke-width="0.5"/>
</svg>
