<svg width="375" height="452" viewBox="0 0 375 452" fill="none" xmlns="http://www.w3.org/2000/svg">
<line x1="24.5" y1="87" x2="24.5" y2="39" stroke="#222222"/>
<rect x="23" y="39" width="3" height="32" rx="1.5" fill="#35B431"/>
<line x1="43.5" y1="109" x2="43.5" y2="38" stroke="#222222"/>
<rect x="42" y="61" width="3" height="26" rx="1.5" fill="#FF4124"/>
<line x1="65.5" y1="183" x2="65.5" y2="71" stroke="#222222"/>
<rect x="64" y="96" width="3" height="61" rx="1.5" fill="#FF4124"/>
<line x1="86.5" y1="183" x2="86.5" y2="63" stroke="#222222"/>
<rect x="85" y="80" width="3" height="47" rx="1.5" fill="#35B431"/>
<line x1="106.5" y1="175" x2="106.5" y2="63" stroke="#222222"/>
<rect x="105" y="97" width="3" height="31" rx="1.5" fill="#FF4124"/>
<line x1="127.5" y1="119" x2="127.5" y2="80" stroke="#222222"/>
<rect x="126" y="87" width="3" height="16" rx="1.5" fill="#35B431"/>
<line x1="148.5" y1="192" x2="148.5" y2="80" stroke="#222222"/>
<rect x="147" y="87" width="3" height="79" rx="1.5" fill="#FF4124"/>
<line x1="168.5" y1="192" x2="168.5" y2="105" stroke="#222222"/>
<rect x="167" y="105" width="3" height="61" rx="1.5" fill="#35B431"/>
<line x1="189.5" y1="220" x2="189.5" y2="105" stroke="#222222"/>
<rect x="188" y="105" width="3" height="94" rx="1.5" fill="#FF4124"/>
<line x1="210.5" y1="256" x2="210.5" y2="167" stroke="#222222"/>
<rect x="209" y="188" width="3" height="42" rx="1.5" fill="#FF4124"/>
<line x1="230.5" y1="262" x2="230.5" y2="150" stroke="#222222"/>
<rect x="229" y="175" width="3" height="16" rx="1.5" fill="#35B431"/>
<line x1="251.5" y1="230" x2="251.5" y2="167" stroke="#222222"/>
<rect x="250" y="192" width="3" height="32" rx="1.5" fill="#FF4124"/>
<line x1="272.5" y1="353" x2="272.5" y2="39" stroke="#35B431"/>
<rect x="268" y="185" width="9" height="61" rx="4.5" fill="#35B431"/>
<path d="M271 202.5C271 201.672 271.672 201 272.5 201V201C273.328 201 274 201.672 274 202.5V228.5C274 229.328 273.328 230 272.5 230V230C271.672 230 271 229.328 271 228.5V202.5Z" fill="#F1FFF0"/>
<path d="M324.363 17.2727V26H323.306V18.3807H323.255L321.125 19.7955V18.7216L323.306 17.2727H324.363ZM329.819 26.1193C329.461 26.1136 329.103 26.0455 328.745 25.9148C328.387 25.7841 328.06 25.5639 327.765 25.2543C327.47 24.9418 327.232 24.5199 327.053 23.9886C326.874 23.4545 326.785 22.7841 326.785 21.9773C326.785 21.2045 326.857 20.5199 327.002 19.9233C327.147 19.3239 327.357 18.8196 327.633 18.4105C327.908 17.9986 328.241 17.6861 328.63 17.473C329.022 17.2599 329.464 17.1534 329.955 17.1534C330.444 17.1534 330.879 17.2514 331.259 17.4474C331.643 17.6406 331.955 17.9105 332.197 18.2571C332.438 18.6037 332.595 19.0028 332.666 19.4545H331.626C331.529 19.0625 331.342 18.7372 331.063 18.4787C330.785 18.2202 330.416 18.0909 329.955 18.0909C329.279 18.0909 328.747 18.3849 328.357 18.973C327.971 19.5611 327.776 20.3864 327.773 21.4489H327.842C328.001 21.2074 328.19 21.0014 328.408 20.831C328.63 20.6577 328.874 20.5241 329.141 20.4304C329.408 20.3366 329.691 20.2898 329.989 20.2898C330.489 20.2898 330.947 20.4148 331.362 20.6648C331.776 20.9119 332.109 21.2543 332.359 21.6918C332.609 22.1264 332.734 22.625 332.734 23.1875C332.734 23.7273 332.613 24.2216 332.372 24.6705C332.13 25.1165 331.791 25.4716 331.353 25.7358C330.918 25.9972 330.407 26.125 329.819 26.1193ZM329.819 25.1818C330.177 25.1818 330.498 25.0923 330.782 24.9134C331.069 24.7344 331.295 24.4943 331.46 24.1932C331.627 23.892 331.711 23.5568 331.711 23.1875C331.711 22.8267 331.63 22.4986 331.468 22.2031C331.309 21.9048 331.089 21.6676 330.808 21.4915C330.529 21.3153 330.211 21.2273 329.853 21.2273C329.583 21.2273 329.332 21.2812 329.099 21.3892C328.866 21.4943 328.661 21.6392 328.485 21.8239C328.312 22.0085 328.175 22.2202 328.076 22.4588C327.977 22.6946 327.927 22.9432 327.927 23.2045C327.927 23.5511 328.008 23.875 328.17 24.1761C328.335 24.4773 328.559 24.7202 328.843 24.9048C329.13 25.0895 329.455 25.1818 329.819 25.1818ZM337.304 26.1193C336.662 26.1193 336.115 25.9446 335.663 25.5952C335.212 25.2429 334.867 24.733 334.628 24.0653C334.389 23.3949 334.27 22.5852 334.27 21.6364C334.27 20.6932 334.389 19.8878 334.628 19.2202C334.869 18.5497 335.216 18.0384 335.668 17.6861C336.122 17.331 336.668 17.1534 337.304 17.1534C337.94 17.1534 338.484 17.331 338.936 17.6861C339.391 18.0384 339.737 18.5497 339.976 19.2202C340.217 19.8878 340.338 20.6932 340.338 21.6364C340.338 22.5852 340.219 23.3949 339.98 24.0653C339.742 24.733 339.396 25.2429 338.945 25.5952C338.493 25.9446 337.946 26.1193 337.304 26.1193ZM337.304 25.1818C337.94 25.1818 338.435 24.875 338.787 24.2614C339.139 23.6477 339.315 22.7727 339.315 21.6364C339.315 20.8807 339.234 20.2372 339.073 19.706C338.913 19.1747 338.683 18.7699 338.382 18.4915C338.084 18.2131 337.725 18.0739 337.304 18.0739C336.673 18.0739 336.181 18.3849 335.825 19.0071C335.47 19.6264 335.293 20.5028 335.293 21.6364C335.293 22.392 335.372 23.0341 335.531 23.5625C335.69 24.0909 335.919 24.4929 336.217 24.7685C336.519 25.044 336.881 25.1818 337.304 25.1818ZM343.218 24.8068L343.15 25.267C343.101 25.5909 343.028 25.9375 342.928 26.3068C342.831 26.6761 342.731 27.0241 342.626 27.3509C342.52 27.6776 342.434 27.9375 342.366 28.1307H341.599C341.635 27.9489 341.684 27.7088 341.743 27.4105C341.803 27.1122 341.863 26.7784 341.922 26.4091C341.985 26.0426 342.036 25.6676 342.076 25.2841L342.127 24.8068H343.218ZM347.654 26.1193C347.012 26.1193 346.465 25.9446 346.013 25.5952C345.562 25.2429 345.217 24.733 344.978 24.0653C344.739 23.3949 344.62 22.5852 344.62 21.6364C344.62 20.6932 344.739 19.8878 344.978 19.2202C345.219 18.5497 345.566 18.0384 346.018 17.6861C346.472 17.331 347.018 17.1534 347.654 17.1534C348.29 17.1534 348.834 17.331 349.286 17.6861C349.741 18.0384 350.087 18.5497 350.326 19.2202C350.567 19.8878 350.688 20.6932 350.688 21.6364C350.688 22.5852 350.569 23.3949 350.33 24.0653C350.092 24.733 349.746 25.2429 349.295 25.5952C348.843 25.9446 348.296 26.1193 347.654 26.1193ZM347.654 25.1818C348.29 25.1818 348.785 24.875 349.137 24.2614C349.489 23.6477 349.665 22.7727 349.665 21.6364C349.665 20.8807 349.584 20.2372 349.422 19.706C349.263 19.1747 349.033 18.7699 348.732 18.4915C348.434 18.2131 348.074 18.0739 347.654 18.0739C347.023 18.0739 346.53 18.3849 346.175 19.0071C345.82 19.6264 345.643 20.5028 345.643 21.6364C345.643 22.392 345.722 23.0341 345.881 23.5625C346.04 24.0909 346.269 24.4929 346.567 24.7685C346.868 25.044 347.231 25.1818 347.654 25.1818ZM355.202 26.1193C354.56 26.1193 354.013 25.9446 353.561 25.5952C353.11 25.2429 352.765 24.733 352.526 24.0653C352.287 23.3949 352.168 22.5852 352.168 21.6364C352.168 20.6932 352.287 19.8878 352.526 19.2202C352.767 18.5497 353.114 18.0384 353.566 17.6861C354.02 17.331 354.566 17.1534 355.202 17.1534C355.838 17.1534 356.382 17.331 356.834 17.6861C357.289 18.0384 357.635 18.5497 357.874 19.2202C358.115 19.8878 358.236 20.6932 358.236 21.6364C358.236 22.5852 358.117 23.3949 357.878 24.0653C357.64 24.733 357.294 25.2429 356.843 25.5952C356.391 25.9446 355.844 26.1193 355.202 26.1193ZM355.202 25.1818C355.838 25.1818 356.333 24.875 356.685 24.2614C357.037 23.6477 357.213 22.7727 357.213 21.6364C357.213 20.8807 357.132 20.2372 356.97 19.706C356.811 19.1747 356.581 18.7699 356.28 18.4915C355.982 18.2131 355.622 18.0739 355.202 18.0739C354.571 18.0739 354.078 18.3849 353.723 19.0071C353.368 19.6264 353.191 20.5028 353.191 21.6364C353.191 22.392 353.27 23.0341 353.429 23.5625C353.588 24.0909 353.817 24.4929 354.115 24.7685C354.416 25.044 354.779 25.1818 355.202 25.1818Z" fill="#6C6C6C"/>
<path d="M324.551 63.2727V72H323.494V64.3807H323.443L321.312 65.7955V64.7216L323.494 63.2727H324.551ZM329.836 72.1193C329.336 72.1193 328.886 72.0199 328.485 71.821C328.085 71.6222 327.764 71.3494 327.522 71.0028C327.281 70.6562 327.148 70.2614 327.126 69.8182H328.148C328.188 70.2131 328.367 70.5398 328.685 70.7983C329.006 71.054 329.39 71.1818 329.836 71.1818C330.194 71.1818 330.512 71.098 330.791 70.9304C331.072 70.7628 331.292 70.5327 331.451 70.2401C331.613 69.9446 331.694 69.6108 331.694 69.2386C331.694 68.858 331.61 68.5185 331.443 68.2202C331.278 67.919 331.05 67.6818 330.761 67.5085C330.471 67.3352 330.14 67.2472 329.768 67.2443C329.501 67.2415 329.227 67.2827 328.945 67.3679C328.664 67.4503 328.433 67.5568 328.251 67.6875L327.262 67.5682L327.791 63.2727H332.325V64.2102H328.677L328.37 66.7841H328.421C328.6 66.642 328.825 66.5241 329.095 66.4304C329.364 66.3366 329.646 66.2898 329.938 66.2898C330.472 66.2898 330.948 66.4176 331.366 66.6733C331.786 66.9261 332.116 67.2727 332.354 67.7131C332.596 68.1534 332.717 68.6562 332.717 69.2216C332.717 69.7784 332.592 70.2756 332.342 70.7131C332.095 71.1477 331.754 71.4915 331.319 71.7443C330.884 71.9943 330.39 72.1193 329.836 72.1193ZM337.304 72.1193C336.662 72.1193 336.115 71.9446 335.663 71.5952C335.212 71.2429 334.867 70.733 334.628 70.0653C334.389 69.3949 334.27 68.5852 334.27 67.6364C334.27 66.6932 334.389 65.8878 334.628 65.2202C334.869 64.5497 335.216 64.0384 335.668 63.6861C336.122 63.331 336.668 63.1534 337.304 63.1534C337.94 63.1534 338.484 63.331 338.936 63.6861C339.391 64.0384 339.737 64.5497 339.976 65.2202C340.217 65.8878 340.338 66.6932 340.338 67.6364C340.338 68.5852 340.219 69.3949 339.98 70.0653C339.742 70.733 339.396 71.2429 338.945 71.5952C338.493 71.9446 337.946 72.1193 337.304 72.1193ZM337.304 71.1818C337.94 71.1818 338.435 70.875 338.787 70.2614C339.139 69.6477 339.315 68.7727 339.315 67.6364C339.315 66.8807 339.234 66.2372 339.073 65.706C338.913 65.1747 338.683 64.7699 338.382 64.4915C338.084 64.2131 337.725 64.0739 337.304 64.0739C336.673 64.0739 336.181 64.3849 335.825 65.0071C335.47 65.6264 335.293 66.5028 335.293 67.6364C335.293 68.392 335.372 69.0341 335.531 69.5625C335.69 70.0909 335.919 70.4929 336.217 70.7685C336.519 71.044 336.881 71.1818 337.304 71.1818ZM343.218 70.8068L343.15 71.267C343.101 71.5909 343.028 71.9375 342.928 72.3068C342.831 72.6761 342.731 73.0241 342.626 73.3509C342.52 73.6776 342.434 73.9375 342.366 74.1307H341.599C341.635 73.9489 341.684 73.7088 341.743 73.4105C341.803 73.1122 341.863 72.7784 341.922 72.4091C341.985 72.0426 342.036 71.6676 342.076 71.2841L342.127 70.8068H343.218ZM347.654 72.1193C347.012 72.1193 346.465 71.9446 346.013 71.5952C345.562 71.2429 345.217 70.733 344.978 70.0653C344.739 69.3949 344.62 68.5852 344.62 67.6364C344.62 66.6932 344.739 65.8878 344.978 65.2202C345.219 64.5497 345.566 64.0384 346.018 63.6861C346.472 63.331 347.018 63.1534 347.654 63.1534C348.29 63.1534 348.834 63.331 349.286 63.6861C349.741 64.0384 350.087 64.5497 350.326 65.2202C350.567 65.8878 350.688 66.6932 350.688 67.6364C350.688 68.5852 350.569 69.3949 350.33 70.0653C350.092 70.733 349.746 71.2429 349.295 71.5952C348.843 71.9446 348.296 72.1193 347.654 72.1193ZM347.654 71.1818C348.29 71.1818 348.785 70.875 349.137 70.2614C349.489 69.6477 349.665 68.7727 349.665 67.6364C349.665 66.8807 349.584 66.2372 349.422 65.706C349.263 65.1747 349.033 64.7699 348.732 64.4915C348.434 64.2131 348.074 64.0739 347.654 64.0739C347.023 64.0739 346.53 64.3849 346.175 65.0071C345.82 65.6264 345.643 66.5028 345.643 67.6364C345.643 68.392 345.722 69.0341 345.881 69.5625C346.04 70.0909 346.269 70.4929 346.567 70.7685C346.868 71.044 347.231 71.1818 347.654 71.1818ZM355.202 72.1193C354.56 72.1193 354.013 71.9446 353.561 71.5952C353.11 71.2429 352.765 70.733 352.526 70.0653C352.287 69.3949 352.168 68.5852 352.168 67.6364C352.168 66.6932 352.287 65.8878 352.526 65.2202C352.767 64.5497 353.114 64.0384 353.566 63.6861C354.02 63.331 354.566 63.1534 355.202 63.1534C355.838 63.1534 356.382 63.331 356.834 63.6861C357.289 64.0384 357.635 64.5497 357.874 65.2202C358.115 65.8878 358.236 66.6932 358.236 67.6364C358.236 68.5852 358.117 69.3949 357.878 70.0653C357.64 70.733 357.294 71.2429 356.843 71.5952C356.391 71.9446 355.844 72.1193 355.202 72.1193ZM355.202 71.1818C355.838 71.1818 356.333 70.875 356.685 70.2614C357.037 69.6477 357.213 68.7727 357.213 67.6364C357.213 66.8807 357.132 66.2372 356.97 65.706C356.811 65.1747 356.581 64.7699 356.28 64.4915C355.982 64.2131 355.622 64.0739 355.202 64.0739C354.571 64.0739 354.078 64.3849 353.723 65.0071C353.368 65.6264 353.191 66.5028 353.191 67.6364C353.191 68.392 353.27 69.0341 353.429 69.5625C353.588 70.0909 353.817 70.4929 354.115 70.7685C354.416 71.044 354.779 71.1818 355.202 71.1818Z" fill="#6C6C6C"/>
<path d="M324.152 109.273V118H323.096V110.381H323.044L320.914 111.795V110.722L323.096 109.273H324.152ZM326.506 116.21V115.341L330.341 109.273H330.972V110.619H330.546L327.648 115.205V115.273H332.813V116.21H326.506ZM330.614 118V115.946V115.541V109.273H331.619V118H330.614ZM337.304 118.119C336.662 118.119 336.115 117.945 335.663 117.595C335.212 117.243 334.867 116.733 334.628 116.065C334.389 115.395 334.27 114.585 334.27 113.636C334.27 112.693 334.389 111.888 334.628 111.22C334.869 110.55 335.216 110.038 335.668 109.686C336.122 109.331 336.668 109.153 337.304 109.153C337.94 109.153 338.484 109.331 338.936 109.686C339.391 110.038 339.737 110.55 339.976 111.22C340.217 111.888 340.338 112.693 340.338 113.636C340.338 114.585 340.219 115.395 339.98 116.065C339.742 116.733 339.396 117.243 338.945 117.595C338.493 117.945 337.946 118.119 337.304 118.119ZM337.304 117.182C337.94 117.182 338.435 116.875 338.787 116.261C339.139 115.648 339.315 114.773 339.315 113.636C339.315 112.881 339.234 112.237 339.073 111.706C338.913 111.175 338.683 110.77 338.382 110.491C338.084 110.213 337.725 110.074 337.304 110.074C336.673 110.074 336.181 110.385 335.825 111.007C335.47 111.626 335.293 112.503 335.293 113.636C335.293 114.392 335.372 115.034 335.531 115.562C335.69 116.091 335.919 116.493 336.217 116.768C336.519 117.044 336.881 117.182 337.304 117.182ZM343.218 116.807L343.15 117.267C343.101 117.591 343.028 117.938 342.928 118.307C342.831 118.676 342.731 119.024 342.626 119.351C342.52 119.678 342.434 119.938 342.366 120.131H341.599C341.635 119.949 341.684 119.709 341.743 119.411C341.803 119.112 341.863 118.778 341.922 118.409C341.985 118.043 342.036 117.668 342.076 117.284L342.127 116.807H343.218ZM347.654 118.119C347.012 118.119 346.465 117.945 346.013 117.595C345.562 117.243 345.217 116.733 344.978 116.065C344.739 115.395 344.62 114.585 344.62 113.636C344.62 112.693 344.739 111.888 344.978 111.22C345.219 110.55 345.566 110.038 346.018 109.686C346.472 109.331 347.018 109.153 347.654 109.153C348.29 109.153 348.834 109.331 349.286 109.686C349.741 110.038 350.087 110.55 350.326 111.22C350.567 111.888 350.688 112.693 350.688 113.636C350.688 114.585 350.569 115.395 350.33 116.065C350.092 116.733 349.746 117.243 349.295 117.595C348.843 117.945 348.296 118.119 347.654 118.119ZM347.654 117.182C348.29 117.182 348.785 116.875 349.137 116.261C349.489 115.648 349.665 114.773 349.665 113.636C349.665 112.881 349.584 112.237 349.422 111.706C349.263 111.175 349.033 110.77 348.732 110.491C348.434 110.213 348.074 110.074 347.654 110.074C347.023 110.074 346.53 110.385 346.175 111.007C345.82 111.626 345.643 112.503 345.643 113.636C345.643 114.392 345.722 115.034 345.881 115.562C346.04 116.091 346.269 116.493 346.567 116.768C346.868 117.044 347.231 117.182 347.654 117.182ZM355.202 118.119C354.56 118.119 354.013 117.945 353.561 117.595C353.11 117.243 352.765 116.733 352.526 116.065C352.287 115.395 352.168 114.585 352.168 113.636C352.168 112.693 352.287 111.888 352.526 111.22C352.767 110.55 353.114 110.038 353.566 109.686C354.02 109.331 354.566 109.153 355.202 109.153C355.838 109.153 356.382 109.331 356.834 109.686C357.289 110.038 357.635 110.55 357.874 111.22C358.115 111.888 358.236 112.693 358.236 113.636C358.236 114.585 358.117 115.395 357.878 116.065C357.64 116.733 357.294 117.243 356.843 117.595C356.391 117.945 355.844 118.119 355.202 118.119ZM355.202 117.182C355.838 117.182 356.333 116.875 356.685 116.261C357.037 115.648 357.213 114.773 357.213 113.636C357.213 112.881 357.132 112.237 356.97 111.706C356.811 111.175 356.581 110.77 356.28 110.491C355.982 110.213 355.622 110.074 355.202 110.074C354.571 110.074 354.078 110.385 353.723 111.007C353.368 111.626 353.191 112.503 353.191 113.636C353.191 114.392 353.27 115.034 353.429 115.562C353.588 116.091 353.817 116.493 354.115 116.768C354.416 117.044 354.779 117.182 355.202 117.182Z" fill="#6C6C6C"/>
<path d="M324.211 155.273V164H323.154V156.381H323.103L320.972 157.795V156.722L323.154 155.273H324.211ZM329.718 164.119C329.155 164.119 328.654 164.023 328.213 163.83C327.776 163.636 327.428 163.368 327.169 163.024C326.914 162.678 326.775 162.276 326.752 161.818H327.826C327.848 162.099 327.945 162.342 328.115 162.547C328.286 162.749 328.509 162.905 328.785 163.016C329.06 163.126 329.365 163.182 329.701 163.182C330.076 163.182 330.408 163.116 330.698 162.986C330.988 162.855 331.215 162.673 331.38 162.44C331.544 162.207 331.627 161.938 331.627 161.631C331.627 161.31 331.547 161.027 331.388 160.783C331.229 160.536 330.996 160.342 330.689 160.203C330.383 160.064 330.008 159.994 329.564 159.994H328.865V159.057H329.564C329.911 159.057 330.215 158.994 330.476 158.869C330.74 158.744 330.946 158.568 331.094 158.341C331.245 158.114 331.32 157.847 331.32 157.54C331.32 157.244 331.255 156.987 331.124 156.768C330.993 156.55 330.809 156.379 330.57 156.257C330.334 156.135 330.056 156.074 329.735 156.074C329.434 156.074 329.15 156.129 328.883 156.24C328.618 156.348 328.402 156.506 328.235 156.713C328.067 156.918 327.976 157.165 327.962 157.455H326.939C326.956 156.997 327.094 156.597 327.353 156.253C327.611 155.906 327.949 155.636 328.367 155.443C328.787 155.25 329.249 155.153 329.752 155.153C330.292 155.153 330.755 155.263 331.141 155.482C331.527 155.697 331.824 155.983 332.032 156.338C332.239 156.693 332.343 157.077 332.343 157.489C332.343 157.98 332.213 158.399 331.955 158.746C331.699 159.092 331.351 159.332 330.911 159.466V159.534C331.462 159.625 331.892 159.859 332.202 160.237C332.512 160.612 332.667 161.077 332.667 161.631C332.667 162.105 332.537 162.531 332.279 162.909C332.023 163.284 331.674 163.58 331.231 163.795C330.787 164.011 330.283 164.119 329.718 164.119ZM337.304 164.119C336.662 164.119 336.115 163.945 335.663 163.595C335.212 163.243 334.867 162.733 334.628 162.065C334.389 161.395 334.27 160.585 334.27 159.636C334.27 158.693 334.389 157.888 334.628 157.22C334.869 156.55 335.216 156.038 335.668 155.686C336.122 155.331 336.668 155.153 337.304 155.153C337.94 155.153 338.484 155.331 338.936 155.686C339.391 156.038 339.737 156.55 339.976 157.22C340.217 157.888 340.338 158.693 340.338 159.636C340.338 160.585 340.219 161.395 339.98 162.065C339.742 162.733 339.396 163.243 338.945 163.595C338.493 163.945 337.946 164.119 337.304 164.119ZM337.304 163.182C337.94 163.182 338.435 162.875 338.787 162.261C339.139 161.648 339.315 160.773 339.315 159.636C339.315 158.881 339.234 158.237 339.073 157.706C338.913 157.175 338.683 156.77 338.382 156.491C338.084 156.213 337.725 156.074 337.304 156.074C336.673 156.074 336.181 156.385 335.825 157.007C335.47 157.626 335.293 158.503 335.293 159.636C335.293 160.392 335.372 161.034 335.531 161.562C335.69 162.091 335.919 162.493 336.217 162.768C336.519 163.044 336.881 163.182 337.304 163.182ZM343.218 162.807L343.15 163.267C343.101 163.591 343.028 163.938 342.928 164.307C342.831 164.676 342.731 165.024 342.626 165.351C342.52 165.678 342.434 165.938 342.366 166.131H341.599C341.635 165.949 341.684 165.709 341.743 165.411C341.803 165.112 341.863 164.778 341.922 164.409C341.985 164.043 342.036 163.668 342.076 163.284L342.127 162.807H343.218ZM347.654 164.119C347.012 164.119 346.465 163.945 346.013 163.595C345.562 163.243 345.217 162.733 344.978 162.065C344.739 161.395 344.62 160.585 344.62 159.636C344.62 158.693 344.739 157.888 344.978 157.22C345.219 156.55 345.566 156.038 346.018 155.686C346.472 155.331 347.018 155.153 347.654 155.153C348.29 155.153 348.834 155.331 349.286 155.686C349.741 156.038 350.087 156.55 350.326 157.22C350.567 157.888 350.688 158.693 350.688 159.636C350.688 160.585 350.569 161.395 350.33 162.065C350.092 162.733 349.746 163.243 349.295 163.595C348.843 163.945 348.296 164.119 347.654 164.119ZM347.654 163.182C348.29 163.182 348.785 162.875 349.137 162.261C349.489 161.648 349.665 160.773 349.665 159.636C349.665 158.881 349.584 158.237 349.422 157.706C349.263 157.175 349.033 156.77 348.732 156.491C348.434 156.213 348.074 156.074 347.654 156.074C347.023 156.074 346.53 156.385 346.175 157.007C345.82 157.626 345.643 158.503 345.643 159.636C345.643 160.392 345.722 161.034 345.881 161.562C346.04 162.091 346.269 162.493 346.567 162.768C346.868 163.044 347.231 163.182 347.654 163.182ZM355.202 164.119C354.56 164.119 354.013 163.945 353.561 163.595C353.11 163.243 352.765 162.733 352.526 162.065C352.287 161.395 352.168 160.585 352.168 159.636C352.168 158.693 352.287 157.888 352.526 157.22C352.767 156.55 353.114 156.038 353.566 155.686C354.02 155.331 354.566 155.153 355.202 155.153C355.838 155.153 356.382 155.331 356.834 155.686C357.289 156.038 357.635 156.55 357.874 157.22C358.115 157.888 358.236 158.693 358.236 159.636C358.236 160.585 358.117 161.395 357.878 162.065C357.64 162.733 357.294 163.243 356.843 163.595C356.391 163.945 355.844 164.119 355.202 164.119ZM355.202 163.182C355.838 163.182 356.333 162.875 356.685 162.261C357.037 161.648 357.213 160.773 357.213 159.636C357.213 158.881 357.132 158.237 356.97 157.706C356.811 157.175 356.581 156.77 356.28 156.491C355.982 156.213 355.622 156.074 355.202 156.074C354.571 156.074 354.078 156.385 353.723 157.007C353.368 157.626 353.191 158.503 353.191 159.636C353.191 160.392 353.27 161.034 353.429 161.562C353.588 162.091 353.817 162.493 354.115 162.768C354.416 163.044 354.779 163.182 355.202 163.182Z" fill="#6C6C6C"/>
<path d="M324.586 201.273V210H323.529V202.381H323.478L321.347 203.795V202.722L323.529 201.273H324.586ZM327.144 210V209.233L330.025 206.08C330.363 205.71 330.641 205.389 330.86 205.116C331.079 204.841 331.24 204.582 331.346 204.341C331.454 204.097 331.508 203.841 331.508 203.574C331.508 203.267 331.434 203.001 331.286 202.777C331.141 202.553 330.942 202.379 330.689 202.257C330.436 202.135 330.152 202.074 329.837 202.074C329.502 202.074 329.209 202.143 328.959 202.283C328.712 202.419 328.52 202.611 328.384 202.858C328.25 203.105 328.184 203.395 328.184 203.727H327.178C327.178 203.216 327.296 202.767 327.532 202.381C327.767 201.994 328.088 201.693 328.495 201.477C328.904 201.261 329.363 201.153 329.871 201.153C330.383 201.153 330.836 201.261 331.231 201.477C331.625 201.693 331.935 201.984 332.16 202.351C332.384 202.717 332.496 203.125 332.496 203.574C332.496 203.895 332.438 204.209 332.321 204.516C332.208 204.82 332.009 205.159 331.725 205.534C331.444 205.906 331.053 206.361 330.553 206.898L328.593 208.994V209.062H332.65V210H327.144ZM337.304 210.119C336.662 210.119 336.115 209.945 335.663 209.595C335.212 209.243 334.867 208.733 334.628 208.065C334.389 207.395 334.27 206.585 334.27 205.636C334.27 204.693 334.389 203.888 334.628 203.22C334.869 202.55 335.216 202.038 335.668 201.686C336.122 201.331 336.668 201.153 337.304 201.153C337.94 201.153 338.484 201.331 338.936 201.686C339.391 202.038 339.737 202.55 339.976 203.22C340.217 203.888 340.338 204.693 340.338 205.636C340.338 206.585 340.219 207.395 339.98 208.065C339.742 208.733 339.396 209.243 338.945 209.595C338.493 209.945 337.946 210.119 337.304 210.119ZM337.304 209.182C337.94 209.182 338.435 208.875 338.787 208.261C339.139 207.648 339.315 206.773 339.315 205.636C339.315 204.881 339.234 204.237 339.073 203.706C338.913 203.175 338.683 202.77 338.382 202.491C338.084 202.213 337.725 202.074 337.304 202.074C336.673 202.074 336.181 202.385 335.825 203.007C335.47 203.626 335.293 204.503 335.293 205.636C335.293 206.392 335.372 207.034 335.531 207.562C335.69 208.091 335.919 208.493 336.217 208.768C336.519 209.044 336.881 209.182 337.304 209.182ZM343.218 208.807L343.15 209.267C343.101 209.591 343.028 209.938 342.928 210.307C342.831 210.676 342.731 211.024 342.626 211.351C342.52 211.678 342.434 211.938 342.366 212.131H341.599C341.635 211.949 341.684 211.709 341.743 211.411C341.803 211.112 341.863 210.778 341.922 210.409C341.985 210.043 342.036 209.668 342.076 209.284L342.127 208.807H343.218ZM347.654 210.119C347.012 210.119 346.465 209.945 346.013 209.595C345.562 209.243 345.217 208.733 344.978 208.065C344.739 207.395 344.62 206.585 344.62 205.636C344.62 204.693 344.739 203.888 344.978 203.22C345.219 202.55 345.566 202.038 346.018 201.686C346.472 201.331 347.018 201.153 347.654 201.153C348.29 201.153 348.834 201.331 349.286 201.686C349.741 202.038 350.087 202.55 350.326 203.22C350.567 203.888 350.688 204.693 350.688 205.636C350.688 206.585 350.569 207.395 350.33 208.065C350.092 208.733 349.746 209.243 349.295 209.595C348.843 209.945 348.296 210.119 347.654 210.119ZM347.654 209.182C348.29 209.182 348.785 208.875 349.137 208.261C349.489 207.648 349.665 206.773 349.665 205.636C349.665 204.881 349.584 204.237 349.422 203.706C349.263 203.175 349.033 202.77 348.732 202.491C348.434 202.213 348.074 202.074 347.654 202.074C347.023 202.074 346.53 202.385 346.175 203.007C345.82 203.626 345.643 204.503 345.643 205.636C345.643 206.392 345.722 207.034 345.881 207.562C346.04 208.091 346.269 208.493 346.567 208.768C346.868 209.044 347.231 209.182 347.654 209.182ZM355.202 210.119C354.56 210.119 354.013 209.945 353.561 209.595C353.11 209.243 352.765 208.733 352.526 208.065C352.287 207.395 352.168 206.585 352.168 205.636C352.168 204.693 352.287 203.888 352.526 203.22C352.767 202.55 353.114 202.038 353.566 201.686C354.02 201.331 354.566 201.153 355.202 201.153C355.838 201.153 356.382 201.331 356.834 201.686C357.289 202.038 357.635 202.55 357.874 203.22C358.115 203.888 358.236 204.693 358.236 205.636C358.236 206.585 358.117 207.395 357.878 208.065C357.64 208.733 357.294 209.243 356.843 209.595C356.391 209.945 355.844 210.119 355.202 210.119ZM355.202 209.182C355.838 209.182 356.333 208.875 356.685 208.261C357.037 207.648 357.213 206.773 357.213 205.636C357.213 204.881 357.132 204.237 356.97 203.706C356.811 203.175 356.581 202.77 356.28 202.491C355.982 202.213 355.622 202.074 355.202 202.074C354.571 202.074 354.078 202.385 353.723 203.007C353.368 203.626 353.191 204.503 353.191 205.636C353.191 206.392 353.27 207.034 353.429 207.562C353.588 208.091 353.817 208.493 354.115 208.768C354.416 209.044 354.779 209.182 355.202 209.182Z" fill="#6C6C6C"/>
<path d="M326.273 247.273V256H325.217V248.381H325.165L323.035 249.795V248.722L325.217 247.273H326.273ZM331.9 247.273V256H330.843V248.381H330.792L328.661 249.795V248.722L330.843 247.273H331.9ZM337.304 256.119C336.662 256.119 336.115 255.945 335.663 255.595C335.212 255.243 334.867 254.733 334.628 254.065C334.389 253.395 334.27 252.585 334.27 251.636C334.27 250.693 334.389 249.888 334.628 249.22C334.869 248.55 335.216 248.038 335.668 247.686C336.122 247.331 336.668 247.153 337.304 247.153C337.94 247.153 338.484 247.331 338.936 247.686C339.391 248.038 339.737 248.55 339.976 249.22C340.217 249.888 340.338 250.693 340.338 251.636C340.338 252.585 340.219 253.395 339.98 254.065C339.742 254.733 339.396 255.243 338.945 255.595C338.493 255.945 337.946 256.119 337.304 256.119ZM337.304 255.182C337.94 255.182 338.435 254.875 338.787 254.261C339.139 253.648 339.315 252.773 339.315 251.636C339.315 250.881 339.234 250.237 339.073 249.706C338.913 249.175 338.683 248.77 338.382 248.491C338.084 248.213 337.725 248.074 337.304 248.074C336.673 248.074 336.181 248.385 335.825 249.007C335.47 249.626 335.293 250.503 335.293 251.636C335.293 252.392 335.372 253.034 335.531 253.562C335.69 254.091 335.919 254.493 336.217 254.768C336.519 255.044 336.881 255.182 337.304 255.182ZM343.218 254.807L343.15 255.267C343.101 255.591 343.028 255.938 342.928 256.307C342.831 256.676 342.731 257.024 342.626 257.351C342.52 257.678 342.434 257.938 342.366 258.131H341.599C341.635 257.949 341.684 257.709 341.743 257.411C341.803 257.112 341.863 256.778 341.922 256.409C341.985 256.043 342.036 255.668 342.076 255.284L342.127 254.807H343.218ZM347.654 256.119C347.012 256.119 346.465 255.945 346.013 255.595C345.562 255.243 345.217 254.733 344.978 254.065C344.739 253.395 344.62 252.585 344.62 251.636C344.62 250.693 344.739 249.888 344.978 249.22C345.219 248.55 345.566 248.038 346.018 247.686C346.472 247.331 347.018 247.153 347.654 247.153C348.29 247.153 348.834 247.331 349.286 247.686C349.741 248.038 350.087 248.55 350.326 249.22C350.567 249.888 350.688 250.693 350.688 251.636C350.688 252.585 350.569 253.395 350.33 254.065C350.092 254.733 349.746 255.243 349.295 255.595C348.843 255.945 348.296 256.119 347.654 256.119ZM347.654 255.182C348.29 255.182 348.785 254.875 349.137 254.261C349.489 253.648 349.665 252.773 349.665 251.636C349.665 250.881 349.584 250.237 349.422 249.706C349.263 249.175 349.033 248.77 348.732 248.491C348.434 248.213 348.074 248.074 347.654 248.074C347.023 248.074 346.53 248.385 346.175 249.007C345.82 249.626 345.643 250.503 345.643 251.636C345.643 252.392 345.722 253.034 345.881 253.562C346.04 254.091 346.269 254.493 346.567 254.768C346.868 255.044 347.231 255.182 347.654 255.182ZM355.202 256.119C354.56 256.119 354.013 255.945 353.561 255.595C353.11 255.243 352.765 254.733 352.526 254.065C352.287 253.395 352.168 252.585 352.168 251.636C352.168 250.693 352.287 249.888 352.526 249.22C352.767 248.55 353.114 248.038 353.566 247.686C354.02 247.331 354.566 247.153 355.202 247.153C355.838 247.153 356.382 247.331 356.834 247.686C357.289 248.038 357.635 248.55 357.874 249.22C358.115 249.888 358.236 250.693 358.236 251.636C358.236 252.585 358.117 253.395 357.878 254.065C357.64 254.733 357.294 255.243 356.843 255.595C356.391 255.945 355.844 256.119 355.202 256.119ZM355.202 255.182C355.838 255.182 356.333 254.875 356.685 254.261C357.037 253.648 357.213 252.773 357.213 251.636C357.213 250.881 357.132 250.237 356.97 249.706C356.811 249.175 356.581 248.77 356.28 248.491C355.982 248.213 355.622 248.074 355.202 248.074C354.571 248.074 354.078 248.385 353.723 249.007C353.368 249.626 353.191 250.503 353.191 251.636C353.191 252.392 353.27 253.034 353.429 253.562C353.588 254.091 353.817 254.493 354.115 254.768C354.416 255.044 354.779 255.182 355.202 255.182Z" fill="#6C6C6C"/>
<path d="M324.352 293.273V302H323.295V294.381H323.244L321.113 295.795V294.722L323.295 293.273H324.352ZM329.756 302.119C329.114 302.119 328.567 301.945 328.115 301.595C327.664 301.243 327.319 300.733 327.08 300.065C326.841 299.395 326.722 298.585 326.722 297.636C326.722 296.693 326.841 295.888 327.08 295.22C327.321 294.55 327.668 294.038 328.12 293.686C328.574 293.331 329.12 293.153 329.756 293.153C330.392 293.153 330.936 293.331 331.388 293.686C331.843 294.038 332.189 294.55 332.428 295.22C332.669 295.888 332.79 296.693 332.79 297.636C332.79 298.585 332.671 299.395 332.432 300.065C332.194 300.733 331.848 301.243 331.397 301.595C330.945 301.945 330.398 302.119 329.756 302.119ZM329.756 301.182C330.392 301.182 330.887 300.875 331.239 300.261C331.591 299.648 331.767 298.773 331.767 297.636C331.767 296.881 331.686 296.237 331.525 295.706C331.365 295.175 331.135 294.77 330.834 294.491C330.536 294.213 330.177 294.074 329.756 294.074C329.125 294.074 328.633 294.385 328.277 295.007C327.922 295.626 327.745 296.503 327.745 297.636C327.745 298.392 327.824 299.034 327.983 299.562C328.142 300.091 328.371 300.493 328.669 300.768C328.971 301.044 329.333 301.182 329.756 301.182ZM337.304 302.119C336.662 302.119 336.115 301.945 335.663 301.595C335.212 301.243 334.867 300.733 334.628 300.065C334.389 299.395 334.27 298.585 334.27 297.636C334.27 296.693 334.389 295.888 334.628 295.22C334.869 294.55 335.216 294.038 335.668 293.686C336.122 293.331 336.668 293.153 337.304 293.153C337.94 293.153 338.484 293.331 338.936 293.686C339.391 294.038 339.737 294.55 339.976 295.22C340.217 295.888 340.338 296.693 340.338 297.636C340.338 298.585 340.219 299.395 339.98 300.065C339.742 300.733 339.396 301.243 338.945 301.595C338.493 301.945 337.946 302.119 337.304 302.119ZM337.304 301.182C337.94 301.182 338.435 300.875 338.787 300.261C339.139 299.648 339.315 298.773 339.315 297.636C339.315 296.881 339.234 296.237 339.073 295.706C338.913 295.175 338.683 294.77 338.382 294.491C338.084 294.213 337.725 294.074 337.304 294.074C336.673 294.074 336.181 294.385 335.825 295.007C335.47 295.626 335.293 296.503 335.293 297.636C335.293 298.392 335.372 299.034 335.531 299.562C335.69 300.091 335.919 300.493 336.217 300.768C336.519 301.044 336.881 301.182 337.304 301.182ZM343.218 300.807L343.15 301.267C343.101 301.591 343.028 301.938 342.928 302.307C342.831 302.676 342.731 303.024 342.626 303.351C342.52 303.678 342.434 303.938 342.366 304.131H341.599C341.635 303.949 341.684 303.709 341.743 303.411C341.803 303.112 341.863 302.778 341.922 302.409C341.985 302.043 342.036 301.668 342.076 301.284L342.127 300.807H343.218ZM347.654 302.119C347.012 302.119 346.465 301.945 346.013 301.595C345.562 301.243 345.217 300.733 344.978 300.065C344.739 299.395 344.62 298.585 344.62 297.636C344.62 296.693 344.739 295.888 344.978 295.22C345.219 294.55 345.566 294.038 346.018 293.686C346.472 293.331 347.018 293.153 347.654 293.153C348.29 293.153 348.834 293.331 349.286 293.686C349.741 294.038 350.087 294.55 350.326 295.22C350.567 295.888 350.688 296.693 350.688 297.636C350.688 298.585 350.569 299.395 350.33 300.065C350.092 300.733 349.746 301.243 349.295 301.595C348.843 301.945 348.296 302.119 347.654 302.119ZM347.654 301.182C348.29 301.182 348.785 300.875 349.137 300.261C349.489 299.648 349.665 298.773 349.665 297.636C349.665 296.881 349.584 296.237 349.422 295.706C349.263 295.175 349.033 294.77 348.732 294.491C348.434 294.213 348.074 294.074 347.654 294.074C347.023 294.074 346.53 294.385 346.175 295.007C345.82 295.626 345.643 296.503 345.643 297.636C345.643 298.392 345.722 299.034 345.881 299.562C346.04 300.091 346.269 300.493 346.567 300.768C346.868 301.044 347.231 301.182 347.654 301.182ZM355.202 302.119C354.56 302.119 354.013 301.945 353.561 301.595C353.11 301.243 352.765 300.733 352.526 300.065C352.287 299.395 352.168 298.585 352.168 297.636C352.168 296.693 352.287 295.888 352.526 295.22C352.767 294.55 353.114 294.038 353.566 293.686C354.02 293.331 354.566 293.153 355.202 293.153C355.838 293.153 356.382 293.331 356.834 293.686C357.289 294.038 357.635 294.55 357.874 295.22C358.115 295.888 358.236 296.693 358.236 297.636C358.236 298.585 358.117 299.395 357.878 300.065C357.64 300.733 357.294 301.243 356.843 301.595C356.391 301.945 355.844 302.119 355.202 302.119ZM355.202 301.182C355.838 301.182 356.333 300.875 356.685 300.261C357.037 299.648 357.213 298.773 357.213 297.636C357.213 296.881 357.132 296.237 356.97 295.706C356.811 295.175 356.581 294.77 356.28 294.491C355.982 294.213 355.622 294.074 355.202 294.074C354.571 294.074 354.078 294.385 353.723 295.007C353.368 295.626 353.191 296.503 353.191 297.636C353.191 298.392 353.27 299.034 353.429 299.562C353.588 300.091 353.817 300.493 354.115 300.768C354.416 301.044 354.779 301.182 355.202 301.182Z" fill="#6C6C6C"/>
<path d="M329.7 339.153C330.058 339.156 330.416 339.224 330.773 339.358C331.131 339.491 331.458 339.713 331.754 340.023C332.049 340.33 332.286 340.749 332.465 341.28C332.644 341.811 332.734 342.477 332.734 343.278C332.734 344.054 332.66 344.743 332.512 345.345C332.367 345.945 332.157 346.45 331.881 346.862C331.609 347.274 331.276 347.587 330.884 347.8C330.495 348.013 330.055 348.119 329.563 348.119C329.075 348.119 328.639 348.023 328.255 347.83C327.874 347.634 327.562 347.362 327.318 347.016C327.076 346.666 326.921 346.261 326.853 345.801H327.893C327.987 346.202 328.173 346.533 328.451 346.794C328.732 347.053 329.103 347.182 329.563 347.182C330.237 347.182 330.768 346.888 331.157 346.3C331.549 345.712 331.745 344.881 331.745 343.807H331.677C331.518 344.045 331.329 344.251 331.11 344.425C330.891 344.598 330.648 344.732 330.381 344.825C330.114 344.919 329.83 344.966 329.529 344.966C329.029 344.966 328.57 344.842 328.153 344.595C327.738 344.345 327.406 344.003 327.156 343.568C326.908 343.131 326.785 342.631 326.785 342.068C326.785 341.534 326.904 341.045 327.143 340.602C327.384 340.156 327.722 339.801 328.157 339.537C328.595 339.273 329.109 339.145 329.7 339.153ZM329.7 340.091C329.342 340.091 329.019 340.18 328.732 340.359C328.448 340.536 328.222 340.774 328.055 341.075C327.89 341.374 327.808 341.705 327.808 342.068C327.808 342.432 327.887 342.763 328.046 343.061C328.208 343.357 328.428 343.592 328.707 343.768C328.988 343.942 329.308 344.028 329.666 344.028C329.935 344.028 330.187 343.976 330.42 343.871C330.653 343.763 330.856 343.616 331.029 343.432C331.205 343.244 331.343 343.033 331.443 342.797C331.542 342.558 331.592 342.31 331.592 342.051C331.592 341.71 331.509 341.391 331.345 341.092C331.183 340.794 330.958 340.553 330.671 340.368C330.387 340.183 330.063 340.091 329.7 340.091ZM337.304 348.119C336.662 348.119 336.115 347.945 335.663 347.595C335.212 347.243 334.867 346.733 334.628 346.065C334.389 345.395 334.27 344.585 334.27 343.636C334.27 342.693 334.389 341.888 334.628 341.22C334.869 340.55 335.216 340.038 335.668 339.686C336.122 339.331 336.668 339.153 337.304 339.153C337.94 339.153 338.484 339.331 338.936 339.686C339.391 340.038 339.737 340.55 339.976 341.22C340.217 341.888 340.338 342.693 340.338 343.636C340.338 344.585 340.219 345.395 339.98 346.065C339.742 346.733 339.396 347.243 338.945 347.595C338.493 347.945 337.946 348.119 337.304 348.119ZM337.304 347.182C337.94 347.182 338.435 346.875 338.787 346.261C339.139 345.648 339.315 344.773 339.315 343.636C339.315 342.881 339.234 342.237 339.073 341.706C338.913 341.175 338.683 340.77 338.382 340.491C338.084 340.213 337.725 340.074 337.304 340.074C336.673 340.074 336.181 340.385 335.825 341.007C335.47 341.626 335.293 342.503 335.293 343.636C335.293 344.392 335.372 345.034 335.531 345.562C335.69 346.091 335.919 346.493 336.217 346.768C336.519 347.044 336.881 347.182 337.304 347.182ZM343.218 346.807L343.15 347.267C343.101 347.591 343.028 347.938 342.928 348.307C342.831 348.676 342.731 349.024 342.626 349.351C342.52 349.678 342.434 349.938 342.366 350.131H341.599C341.635 349.949 341.684 349.709 341.743 349.411C341.803 349.112 341.863 348.778 341.922 348.409C341.985 348.043 342.036 347.668 342.076 347.284L342.127 346.807H343.218ZM347.654 348.119C347.012 348.119 346.465 347.945 346.013 347.595C345.562 347.243 345.216 346.733 344.978 346.065C344.739 345.395 344.62 344.585 344.62 343.636C344.62 342.693 344.739 341.888 344.978 341.22C345.219 340.55 345.566 340.038 346.018 339.686C346.472 339.331 347.018 339.153 347.654 339.153C348.29 339.153 348.834 339.331 349.286 339.686C349.741 340.038 350.087 340.55 350.326 341.22C350.567 341.888 350.688 342.693 350.688 343.636C350.688 344.585 350.569 345.395 350.33 346.065C350.091 346.733 349.746 347.243 349.295 347.595C348.843 347.945 348.296 348.119 347.654 348.119ZM347.654 347.182C348.29 347.182 348.785 346.875 349.137 346.261C349.489 345.648 349.665 344.773 349.665 343.636C349.665 342.881 349.584 342.237 349.422 341.706C349.263 341.175 349.033 340.77 348.732 340.491C348.434 340.213 348.074 340.074 347.654 340.074C347.023 340.074 346.53 340.385 346.175 341.007C345.82 341.626 345.643 342.503 345.643 343.636C345.643 344.392 345.722 345.034 345.881 345.562C346.04 346.091 346.269 346.493 346.567 346.768C346.868 347.044 347.231 347.182 347.654 347.182ZM355.202 348.119C354.56 348.119 354.013 347.945 353.561 347.595C353.11 347.243 352.764 346.733 352.526 346.065C352.287 345.395 352.168 344.585 352.168 343.636C352.168 342.693 352.287 341.888 352.526 341.22C352.767 340.55 353.114 340.038 353.566 339.686C354.02 339.331 354.566 339.153 355.202 339.153C355.838 339.153 356.382 339.331 356.834 339.686C357.289 340.038 357.635 340.55 357.874 341.22C358.115 341.888 358.236 342.693 358.236 343.636C358.236 344.585 358.117 345.395 357.878 346.065C357.639 346.733 357.294 347.243 356.843 347.595C356.391 347.945 355.844 348.119 355.202 348.119ZM355.202 347.182C355.838 347.182 356.333 346.875 356.685 346.261C357.037 345.648 357.213 344.773 357.213 343.636C357.213 342.881 357.132 342.237 356.97 341.706C356.811 341.175 356.581 340.77 356.28 340.491C355.982 340.213 355.622 340.074 355.202 340.074C354.571 340.074 354.078 340.385 353.723 341.007C353.368 341.626 353.191 342.503 353.191 343.636C353.191 344.392 353.27 345.034 353.429 345.562C353.588 346.091 353.817 346.493 354.115 346.768C354.416 347.044 354.779 347.182 355.202 347.182Z" fill="#6C6C6C"/>
<path d="M329.81 394.119C329.225 394.119 328.708 394.016 328.259 393.808C327.813 393.598 327.465 393.31 327.215 392.943C326.965 392.574 326.842 392.153 326.845 391.682C326.842 391.312 326.914 390.972 327.062 390.659C327.21 390.344 327.411 390.081 327.667 389.871C327.925 389.658 328.214 389.523 328.532 389.466V389.415C328.114 389.307 327.782 389.072 327.535 388.712C327.288 388.348 327.166 387.935 327.168 387.472C327.166 387.028 327.278 386.632 327.505 386.283C327.732 385.933 328.045 385.658 328.443 385.456C328.843 385.254 329.299 385.153 329.81 385.153C330.316 385.153 330.768 385.254 331.166 385.456C331.563 385.658 331.876 385.933 332.103 386.283C332.333 386.632 332.45 387.028 332.452 387.472C332.45 387.935 332.323 388.348 332.073 388.712C331.826 389.072 331.498 389.307 331.089 389.415V389.466C331.404 389.523 331.688 389.658 331.941 389.871C332.194 390.081 332.396 390.344 332.546 390.659C332.697 390.972 332.773 391.312 332.776 391.682C332.773 392.153 332.646 392.574 332.393 392.943C332.143 393.31 331.795 393.598 331.349 393.808C330.906 394.016 330.393 394.119 329.81 394.119ZM329.81 393.182C330.205 393.182 330.546 393.118 330.833 392.99C331.12 392.862 331.342 392.682 331.498 392.449C331.654 392.216 331.734 391.943 331.737 391.631C331.734 391.301 331.648 391.01 331.481 390.757C331.313 390.504 331.085 390.305 330.795 390.161C330.508 390.016 330.18 389.943 329.81 389.943C329.438 389.943 329.106 390.016 328.813 390.161C328.523 390.305 328.295 390.504 328.127 390.757C327.962 391.01 327.881 391.301 327.884 391.631C327.881 391.943 327.957 392.216 328.11 392.449C328.266 392.682 328.489 392.862 328.779 392.99C329.069 393.118 329.413 393.182 329.81 393.182ZM329.81 389.04C330.123 389.04 330.4 388.977 330.641 388.852C330.886 388.727 331.077 388.553 331.217 388.328C331.356 388.104 331.427 387.841 331.43 387.54C331.427 387.244 331.357 386.987 331.221 386.768C331.085 386.547 330.896 386.376 330.654 386.257C330.413 386.135 330.131 386.074 329.81 386.074C329.484 386.074 329.198 386.135 328.954 386.257C328.71 386.376 328.521 386.547 328.387 386.768C328.254 386.987 328.188 387.244 328.191 387.54C328.188 387.841 328.255 388.104 328.391 388.328C328.531 388.553 328.722 388.727 328.967 388.852C329.211 388.977 329.492 389.04 329.81 389.04ZM337.304 394.119C336.662 394.119 336.115 393.945 335.663 393.595C335.212 393.243 334.867 392.733 334.628 392.065C334.389 391.395 334.27 390.585 334.27 389.636C334.27 388.693 334.389 387.888 334.628 387.22C334.869 386.55 335.216 386.038 335.668 385.686C336.122 385.331 336.668 385.153 337.304 385.153C337.94 385.153 338.484 385.331 338.936 385.686C339.391 386.038 339.737 386.55 339.976 387.22C340.217 387.888 340.338 388.693 340.338 389.636C340.338 390.585 340.219 391.395 339.98 392.065C339.742 392.733 339.396 393.243 338.945 393.595C338.493 393.945 337.946 394.119 337.304 394.119ZM337.304 393.182C337.94 393.182 338.435 392.875 338.787 392.261C339.139 391.648 339.315 390.773 339.315 389.636C339.315 388.881 339.234 388.237 339.073 387.706C338.913 387.175 338.683 386.77 338.382 386.491C338.084 386.213 337.725 386.074 337.304 386.074C336.673 386.074 336.181 386.385 335.825 387.007C335.47 387.626 335.293 388.503 335.293 389.636C335.293 390.392 335.372 391.034 335.531 391.562C335.69 392.091 335.919 392.493 336.217 392.768C336.519 393.044 336.881 393.182 337.304 393.182ZM343.218 392.807L343.15 393.267C343.101 393.591 343.028 393.938 342.928 394.307C342.831 394.676 342.731 395.024 342.626 395.351C342.52 395.678 342.434 395.938 342.366 396.131H341.599C341.635 395.949 341.684 395.709 341.743 395.411C341.803 395.112 341.863 394.778 341.922 394.409C341.985 394.043 342.036 393.668 342.076 393.284L342.127 392.807H343.218ZM347.654 394.119C347.012 394.119 346.465 393.945 346.013 393.595C345.562 393.243 345.216 392.733 344.978 392.065C344.739 391.395 344.62 390.585 344.62 389.636C344.62 388.693 344.739 387.888 344.978 387.22C345.219 386.55 345.566 386.038 346.018 385.686C346.472 385.331 347.018 385.153 347.654 385.153C348.29 385.153 348.834 385.331 349.286 385.686C349.741 386.038 350.087 386.55 350.326 387.22C350.567 387.888 350.688 388.693 350.688 389.636C350.688 390.585 350.569 391.395 350.33 392.065C350.091 392.733 349.746 393.243 349.295 393.595C348.843 393.945 348.296 394.119 347.654 394.119ZM347.654 393.182C348.29 393.182 348.785 392.875 349.137 392.261C349.489 391.648 349.665 390.773 349.665 389.636C349.665 388.881 349.584 388.237 349.422 387.706C349.263 387.175 349.033 386.77 348.732 386.491C348.434 386.213 348.074 386.074 347.654 386.074C347.023 386.074 346.53 386.385 346.175 387.007C345.82 387.626 345.643 388.503 345.643 389.636C345.643 390.392 345.722 391.034 345.881 391.562C346.04 392.091 346.269 392.493 346.567 392.768C346.868 393.044 347.231 393.182 347.654 393.182ZM355.202 394.119C354.56 394.119 354.013 393.945 353.561 393.595C353.11 393.243 352.764 392.733 352.526 392.065C352.287 391.395 352.168 390.585 352.168 389.636C352.168 388.693 352.287 387.888 352.526 387.22C352.767 386.55 353.114 386.038 353.566 385.686C354.02 385.331 354.566 385.153 355.202 385.153C355.838 385.153 356.382 385.331 356.834 385.686C357.289 386.038 357.635 386.55 357.874 387.22C358.115 387.888 358.236 388.693 358.236 389.636C358.236 390.585 358.117 391.395 357.878 392.065C357.639 392.733 357.294 393.243 356.843 393.595C356.391 393.945 355.844 394.119 355.202 394.119ZM355.202 393.182C355.838 393.182 356.333 392.875 356.685 392.261C357.037 391.648 357.213 390.773 357.213 389.636C357.213 388.881 357.132 388.237 356.97 387.706C356.811 387.175 356.581 386.77 356.28 386.491C355.982 386.213 355.622 386.074 355.202 386.074C354.571 386.074 354.078 386.385 353.723 387.007C353.368 387.626 353.191 388.503 353.191 389.636C353.191 390.392 353.27 391.034 353.429 391.562C353.588 392.091 353.817 392.493 354.115 392.768C354.416 393.044 354.779 393.182 355.202 393.182Z" fill="#6C6C6C"/>
<path d="M40.9716 425.273V434H39.9148V426.381H39.8636L37.733 427.795V426.722L39.9148 425.273H40.9716ZM46.3761 434.119C45.7341 434.119 45.1872 433.945 44.7355 433.595C44.2838 433.243 43.9386 432.733 43.7 432.065C43.4614 431.395 43.342 430.585 43.342 429.636C43.342 428.693 43.4614 427.888 43.7 427.22C43.9415 426.55 44.2881 426.038 44.7398 425.686C45.1943 425.331 45.7398 425.153 46.3761 425.153C47.0125 425.153 47.5565 425.331 48.0082 425.686C48.4628 426.038 48.8094 426.55 49.048 427.22C49.2895 427.888 49.4102 428.693 49.4102 429.636C49.4102 430.585 49.2909 431.395 49.0523 432.065C48.8136 432.733 48.4685 433.243 48.0167 433.595C47.565 433.945 47.0182 434.119 46.3761 434.119ZM46.3761 433.182C47.0125 433.182 47.5068 432.875 47.8591 432.261C48.2114 431.648 48.3875 430.773 48.3875 429.636C48.3875 428.881 48.3065 428.237 48.1446 427.706C47.9855 427.175 47.7554 426.77 47.4542 426.491C47.156 426.213 46.7966 426.074 46.3761 426.074C45.7454 426.074 45.2525 426.385 44.8974 427.007C44.5423 427.626 44.3648 428.503 44.3648 429.636C44.3648 430.392 44.4443 431.034 44.6034 431.562C44.7625 432.091 44.9912 432.493 45.2895 432.768C45.5906 433.044 45.9528 433.182 46.3761 433.182ZM53.0207 434.153C52.6059 434.153 52.2295 434.075 51.8915 433.919C51.5534 433.76 51.2849 433.531 51.0861 433.233C50.8872 432.932 50.7878 432.568 50.7878 432.142C50.7878 431.767 50.8616 431.463 51.0094 431.23C51.1571 430.994 51.3545 430.81 51.6017 430.676C51.8488 430.543 52.1216 430.443 52.4199 430.378C52.721 430.31 53.0236 430.256 53.3275 430.216C53.7253 430.165 54.0477 430.126 54.2949 430.101C54.5449 430.072 54.7267 430.026 54.8403 429.96C54.9568 429.895 55.015 429.781 55.015 429.619V429.585C55.015 429.165 54.9 428.838 54.6699 428.605C54.4426 428.372 54.0974 428.256 53.6344 428.256C53.1542 428.256 52.7778 428.361 52.5051 428.571C52.2324 428.781 52.0406 429.006 51.9298 429.244L50.9753 428.903C51.1457 428.506 51.373 428.196 51.6571 427.974C51.944 427.75 52.2565 427.594 52.5946 427.506C52.9355 427.415 53.2707 427.369 53.6003 427.369C53.8105 427.369 54.052 427.395 54.3247 427.446C54.6003 427.494 54.8659 427.595 55.1216 427.749C55.3801 427.902 55.5946 428.134 55.765 428.443C55.9355 428.753 56.0207 429.168 56.0207 429.688V434H55.015V433.114H54.9639C54.8957 433.256 54.7821 433.408 54.623 433.57C54.4639 433.732 54.2522 433.869 53.988 433.983C53.7238 434.097 53.4014 434.153 53.0207 434.153ZM53.1741 433.25C53.5719 433.25 53.9071 433.172 54.1798 433.016C54.4554 432.859 54.6628 432.658 54.802 432.411C54.944 432.163 55.015 431.903 55.015 431.631V430.71C54.9724 430.761 54.8787 430.808 54.7338 430.851C54.5917 430.891 54.427 430.926 54.2395 430.957C54.0548 430.986 53.8744 431.011 53.6983 431.034C53.525 431.054 53.3844 431.071 53.2764 431.085C53.015 431.119 52.7707 431.175 52.5434 431.251C52.319 431.325 52.1372 431.437 51.998 431.588C51.8616 431.736 51.7934 431.937 51.7934 432.193C51.7934 432.543 51.9227 432.807 52.1812 432.986C52.4426 433.162 52.7736 433.25 53.1741 433.25ZM57.9043 434V427.455H58.8759V428.477H58.9611C59.0975 428.128 59.3176 427.857 59.6216 427.663C59.9256 427.467 60.2907 427.369 60.7168 427.369C61.1486 427.369 61.508 427.467 61.7949 427.663C62.0847 427.857 62.3105 428.128 62.4725 428.477H62.5407C62.7083 428.139 62.9597 427.871 63.2949 427.672C63.6302 427.47 64.0321 427.369 64.5009 427.369C65.0861 427.369 65.5648 427.553 65.937 427.919C66.3091 428.283 66.4952 428.849 66.4952 429.619V434H65.4895V429.619C65.4895 429.136 65.3574 428.791 65.0932 428.584C64.829 428.376 64.5179 428.273 64.16 428.273C63.6998 428.273 63.3432 428.412 63.0904 428.69C62.8375 428.966 62.7111 429.315 62.7111 429.739V434H61.6884V429.517C61.6884 429.145 61.5676 428.845 61.3262 428.618C61.0847 428.388 60.7736 428.273 60.3929 428.273C60.1316 428.273 59.8873 428.342 59.66 428.482C59.4355 428.621 59.2537 428.814 59.1145 429.061C58.9782 429.305 58.91 429.588 58.91 429.909V434H57.9043ZM81.7021 425.273V434H80.6453V426.381H80.5942L78.4635 427.795V426.722L80.6453 425.273H81.7021ZM87.3282 425.273V434H86.2714V426.381H86.2203L84.0896 427.795V426.722L86.2714 425.273H87.3282ZM95.2524 434.153C94.8376 434.153 94.4612 434.075 94.1231 433.919C93.785 433.76 93.5166 433.531 93.3177 433.233C93.1188 432.932 93.0194 432.568 93.0194 432.142C93.0194 431.767 93.0933 431.463 93.241 431.23C93.3887 430.994 93.5862 430.81 93.8333 430.676C94.0805 430.543 94.3532 430.443 94.6515 430.378C94.9527 430.31 95.2552 430.256 95.5592 430.216C95.9569 430.165 96.2794 430.126 96.5265 430.101C96.7765 430.072 96.9583 430.026 97.072 429.96C97.1885 429.895 97.2467 429.781 97.2467 429.619V429.585C97.2467 429.165 97.1316 428.838 96.9015 428.605C96.6742 428.372 96.3291 428.256 95.866 428.256C95.3859 428.256 95.0095 428.361 94.7367 428.571C94.464 428.781 94.2723 429.006 94.1615 429.244L93.2069 428.903C93.3774 428.506 93.6046 428.196 93.8887 427.974C94.1757 427.75 94.4882 427.594 94.8262 427.506C95.1671 427.415 95.5024 427.369 95.8319 427.369C96.0421 427.369 96.2836 427.395 96.5563 427.446C96.8319 427.494 97.0975 427.595 97.3532 427.749C97.6117 427.902 97.8262 428.134 97.9967 428.443C98.1671 428.753 98.2524 429.168 98.2524 429.688V434H97.2467V433.114H97.1956C97.1274 433.256 97.0137 433.408 96.8546 433.57C96.6956 433.732 96.4839 433.869 96.2197 433.983C95.9555 434.097 95.6331 434.153 95.2524 434.153ZM95.4058 433.25C95.8035 433.25 96.1387 433.172 96.4115 433.016C96.687 432.859 96.8944 432.658 97.0336 432.411C97.1757 432.163 97.2467 431.903 97.2467 431.631V430.71C97.2041 430.761 97.1103 430.808 96.9654 430.851C96.8234 430.891 96.6586 430.926 96.4711 430.957C96.2865 430.986 96.1061 431.011 95.9299 431.034C95.7566 431.054 95.616 431.071 95.5081 431.085C95.2467 431.119 95.0024 431.175 94.7751 431.251C94.5507 431.325 94.3688 431.437 94.2296 431.588C94.0933 431.736 94.0251 431.937 94.0251 432.193C94.0251 432.543 94.1544 432.807 94.4129 432.986C94.6742 433.162 95.0052 433.25 95.4058 433.25ZM100.136 434V427.455H101.108V428.477H101.193C101.329 428.128 101.549 427.857 101.853 427.663C102.157 427.467 102.522 427.369 102.948 427.369C103.38 427.369 103.74 427.467 104.027 427.663C104.316 427.857 104.542 428.128 104.704 428.477H104.772C104.94 428.139 105.191 427.871 105.527 427.672C105.862 427.47 106.264 427.369 106.733 427.369C107.318 427.369 107.796 427.553 108.169 427.919C108.541 428.283 108.727 428.849 108.727 429.619V434H107.721V429.619C107.721 429.136 107.589 428.791 107.325 428.584C107.061 428.376 106.75 428.273 106.392 428.273C105.931 428.273 105.575 428.412 105.322 428.69C105.069 428.966 104.943 429.315 104.943 429.739V434H103.92V429.517C103.92 429.145 103.799 428.845 103.558 428.618C103.316 428.388 103.005 428.273 102.625 428.273C102.363 428.273 102.119 428.342 101.892 428.482C101.667 428.621 101.485 428.814 101.346 429.061C101.21 429.305 101.142 429.588 101.142 429.909V434H100.136ZM127.357 425.273V434H126.3V426.381H126.249L124.118 427.795V426.722L126.3 425.273H127.357ZM129.915 434V433.233L132.795 430.08C133.133 429.71 133.412 429.389 133.631 429.116C133.849 428.841 134.011 428.582 134.116 428.341C134.224 428.097 134.278 427.841 134.278 427.574C134.278 427.267 134.204 427.001 134.057 426.777C133.912 426.553 133.713 426.379 133.46 426.257C133.207 426.135 132.923 426.074 132.608 426.074C132.273 426.074 131.98 426.143 131.73 426.283C131.483 426.419 131.291 426.611 131.155 426.858C131.021 427.105 130.954 427.395 130.954 427.727H129.949C129.949 427.216 130.067 426.767 130.303 426.381C130.538 425.994 130.859 425.693 131.266 425.477C131.675 425.261 132.133 425.153 132.642 425.153C133.153 425.153 133.606 425.261 134.001 425.477C134.396 425.693 134.706 425.984 134.93 426.351C135.155 426.717 135.267 427.125 135.267 427.574C135.267 427.895 135.209 428.209 135.092 428.516C134.979 428.82 134.78 429.159 134.496 429.534C134.214 429.906 133.824 430.361 133.324 430.898L131.364 432.994V433.062H135.42V434H129.915ZM142.595 434.153C142.18 434.153 141.803 434.075 141.465 433.919C141.127 433.76 140.859 433.531 140.66 433.233C140.461 432.932 140.362 432.568 140.362 432.142C140.362 431.767 140.435 431.463 140.583 431.23C140.731 430.994 140.928 430.81 141.175 430.676C141.423 430.543 141.695 430.443 141.994 430.378C142.295 430.31 142.597 430.256 142.901 430.216C143.299 430.165 143.622 430.126 143.869 430.101C144.119 430.072 144.3 430.026 144.414 429.96C144.531 429.895 144.589 429.781 144.589 429.619V429.585C144.589 429.165 144.474 428.838 144.244 428.605C144.016 428.372 143.671 428.256 143.208 428.256C142.728 428.256 142.352 428.361 142.079 428.571C141.806 428.781 141.614 429.006 141.504 429.244L140.549 428.903C140.72 428.506 140.947 428.196 141.231 427.974C141.518 427.75 141.83 427.594 142.168 427.506C142.509 427.415 142.845 427.369 143.174 427.369C143.384 427.369 143.626 427.395 143.899 427.446C144.174 427.494 144.44 427.595 144.695 427.749C144.954 427.902 145.168 428.134 145.339 428.443C145.509 428.753 145.595 429.168 145.595 429.688V434H144.589V433.114H144.538C144.47 433.256 144.356 433.408 144.197 433.57C144.038 433.732 143.826 433.869 143.562 433.983C143.298 434.097 142.975 434.153 142.595 434.153ZM142.748 433.25C143.146 433.25 143.481 433.172 143.754 433.016C144.029 432.859 144.237 432.658 144.376 432.411C144.518 432.163 144.589 431.903 144.589 431.631V430.71C144.546 430.761 144.452 430.808 144.308 430.851C144.166 430.891 144.001 430.926 143.813 430.957C143.629 430.986 143.448 431.011 143.272 431.034C143.099 431.054 142.958 431.071 142.85 431.085C142.589 431.119 142.345 431.175 142.117 431.251C141.893 431.325 141.711 431.437 141.572 431.588C141.435 431.736 141.367 431.937 141.367 432.193C141.367 432.543 141.497 432.807 141.755 432.986C142.016 433.162 142.347 433.25 142.748 433.25ZM147.478 434V427.455H148.45V428.477H148.535C148.671 428.128 148.891 427.857 149.195 427.663C149.499 427.467 149.864 427.369 150.291 427.369C150.722 427.369 151.082 427.467 151.369 427.663C151.659 427.857 151.884 428.128 152.046 428.477H152.114C152.282 428.139 152.534 427.871 152.869 427.672C153.204 427.47 153.606 427.369 154.075 427.369C154.66 427.369 155.139 427.553 155.511 427.919C155.883 428.283 156.069 428.849 156.069 429.619V434H155.063V429.619C155.063 429.136 154.931 428.791 154.667 428.584C154.403 428.376 154.092 428.273 153.734 428.273C153.274 428.273 152.917 428.412 152.664 428.69C152.411 428.966 152.285 429.315 152.285 429.739V434H151.262V429.517C151.262 429.145 151.141 428.845 150.9 428.618C150.659 428.388 150.347 428.273 149.967 428.273C149.705 428.273 149.461 428.342 149.234 428.482C149.009 428.621 148.828 428.814 148.688 429.061C148.552 429.305 148.484 429.588 148.484 429.909V434H147.478ZM171.276 425.273V434H170.219V426.381H170.168L168.037 427.795V426.722L170.219 425.273H171.276ZM177.274 436.455V427.455H178.246V428.494H178.365C178.439 428.381 178.541 428.236 178.672 428.06C178.805 427.881 178.996 427.722 179.243 427.582C179.493 427.44 179.831 427.369 180.257 427.369C180.808 427.369 181.294 427.507 181.714 427.783C182.135 428.058 182.463 428.449 182.699 428.955C182.934 429.46 183.052 430.057 183.052 430.744C183.052 431.438 182.934 432.038 182.699 432.547C182.463 433.053 182.136 433.445 181.719 433.723C181.301 433.999 180.819 434.136 180.274 434.136C179.853 434.136 179.517 434.067 179.264 433.928C179.011 433.786 178.817 433.625 178.68 433.446C178.544 433.264 178.439 433.114 178.365 432.994H178.28V436.455H177.274ZM178.263 430.727C178.263 431.222 178.335 431.658 178.48 432.036C178.625 432.411 178.836 432.705 179.115 432.918C179.393 433.128 179.734 433.233 180.138 433.233C180.558 433.233 180.909 433.122 181.19 432.901C181.474 432.676 181.687 432.375 181.829 431.997C181.974 431.616 182.047 431.193 182.047 430.727C182.047 430.267 181.976 429.852 181.834 429.483C181.694 429.111 181.483 428.817 181.199 428.601C180.917 428.382 180.564 428.273 180.138 428.273C179.728 428.273 179.385 428.376 179.106 428.584C178.828 428.788 178.618 429.075 178.476 429.445C178.334 429.811 178.263 430.239 178.263 430.727ZM184.634 434V427.455H185.606V428.477H185.691C185.828 428.128 186.048 427.857 186.352 427.663C186.656 427.467 187.021 427.369 187.447 427.369C187.879 427.369 188.238 427.467 188.525 427.663C188.815 427.857 189.041 428.128 189.203 428.477H189.271C189.438 428.139 189.69 427.871 190.025 427.672C190.36 427.47 190.762 427.369 191.231 427.369C191.816 427.369 192.295 427.553 192.667 427.919C193.039 428.283 193.225 428.849 193.225 429.619V434H192.22V429.619C192.22 429.136 192.088 428.791 191.823 428.584C191.559 428.376 191.248 428.273 190.89 428.273C190.43 428.273 190.073 428.412 189.821 428.69C189.568 428.966 189.441 429.315 189.441 429.739V434H188.419V429.517C188.419 429.145 188.298 428.845 188.056 428.618C187.815 428.388 187.504 428.273 187.123 428.273C186.862 428.273 186.617 428.342 186.39 428.482C186.166 428.621 185.984 428.814 185.845 429.061C185.708 429.305 185.64 429.588 185.64 429.909V434H184.634ZM208.787 434V433.233L211.668 430.08C212.006 429.71 212.284 429.389 212.503 429.116C212.722 428.841 212.884 428.582 212.989 428.341C213.097 428.097 213.151 427.841 213.151 427.574C213.151 427.267 213.077 427.001 212.929 426.777C212.784 426.553 212.585 426.379 212.333 426.257C212.08 426.135 211.796 426.074 211.48 426.074C211.145 426.074 210.852 426.143 210.602 426.283C210.355 426.419 210.163 426.611 210.027 426.858C209.894 427.105 209.827 427.395 209.827 427.727H208.821C208.821 427.216 208.939 426.767 209.175 426.381C209.411 425.994 209.732 425.693 210.138 425.477C210.547 425.261 211.006 425.153 211.514 425.153C212.026 425.153 212.479 425.261 212.874 425.477C213.269 425.693 213.578 425.984 213.803 426.351C214.027 426.717 214.139 427.125 214.139 427.574C214.139 427.895 214.081 428.209 213.965 428.516C213.851 428.82 213.652 429.159 213.368 429.534C213.087 429.906 212.696 430.361 212.196 430.898L210.236 432.994V433.062H214.293V434H208.787ZM219.541 436.455V427.455H220.512V428.494H220.632C220.706 428.381 220.808 428.236 220.938 428.06C221.072 427.881 221.262 427.722 221.509 427.582C221.759 427.44 222.098 427.369 222.524 427.369C223.075 427.369 223.561 427.507 223.981 427.783C224.402 428.058 224.73 428.449 224.965 428.955C225.201 429.46 225.319 430.057 225.319 430.744C225.319 431.438 225.201 432.038 224.965 432.547C224.73 433.053 224.403 433.445 223.985 433.723C223.568 433.999 223.086 434.136 222.541 434.136C222.12 434.136 221.784 434.067 221.531 433.928C221.278 433.786 221.083 433.625 220.947 433.446C220.811 433.264 220.706 433.114 220.632 432.994H220.546V436.455H219.541ZM220.529 430.727C220.529 431.222 220.602 431.658 220.747 432.036C220.892 432.411 221.103 432.705 221.382 432.918C221.66 433.128 222.001 433.233 222.404 433.233C222.825 433.233 223.176 433.122 223.457 432.901C223.741 432.676 223.954 432.375 224.096 431.997C224.241 431.616 224.313 431.193 224.313 430.727C224.313 430.267 224.242 429.852 224.1 429.483C223.961 429.111 223.75 428.817 223.465 428.601C223.184 428.382 222.831 428.273 222.404 428.273C221.995 428.273 221.652 428.376 221.373 428.584C221.095 428.788 220.884 429.075 220.742 429.445C220.6 429.811 220.529 430.239 220.529 430.727ZM226.901 434V427.455H227.873V428.477H227.958C228.094 428.128 228.315 427.857 228.619 427.663C228.923 427.467 229.288 427.369 229.714 427.369C230.146 427.369 230.505 427.467 230.792 427.663C231.082 427.857 231.307 428.128 231.469 428.477H231.538C231.705 428.139 231.957 427.871 232.292 427.672C232.627 427.47 233.029 427.369 233.498 427.369C234.083 427.369 234.562 427.553 234.934 427.919C235.306 428.283 235.492 428.849 235.492 429.619V434H234.486V429.619C234.486 429.136 234.354 428.791 234.09 428.584C233.826 428.376 233.515 428.273 233.157 428.273C232.697 428.273 232.34 428.412 232.087 428.69C231.834 428.966 231.708 429.315 231.708 429.739V434H230.685V429.517C230.685 429.145 230.565 428.845 230.323 428.618C230.082 428.388 229.771 428.273 229.39 428.273C229.129 428.273 228.884 428.342 228.657 428.482C228.432 428.621 228.251 428.814 228.111 429.061C227.975 429.305 227.907 429.588 227.907 429.909V434H226.901Z" fill="#6C6C6C"/>
<path d="M253.9 434.119C253.258 434.119 252.712 433.945 252.26 433.595C251.808 433.243 251.463 432.733 251.224 432.065C250.986 431.395 250.866 430.585 250.866 429.636C250.866 428.693 250.986 427.888 251.224 427.22C251.466 426.55 251.812 426.038 252.264 425.686C252.719 425.331 253.264 425.153 253.9 425.153C254.537 425.153 255.081 425.331 255.533 425.686C255.987 426.038 256.334 426.55 256.572 427.22C256.814 427.888 256.935 428.693 256.935 429.636C256.935 430.585 256.815 431.395 256.577 432.065C256.338 432.733 255.993 433.243 255.541 433.595C255.089 433.945 254.543 434.119 253.9 434.119ZM253.9 433.182C254.537 433.182 255.031 432.875 255.383 432.261C255.736 431.648 255.912 430.773 255.912 429.636C255.912 428.881 255.831 428.237 255.669 427.706C255.51 427.175 255.28 426.77 254.979 426.491C254.68 426.213 254.321 426.074 253.9 426.074C253.27 426.074 252.777 426.385 252.422 427.007C252.067 427.626 251.889 428.503 251.889 429.636C251.889 430.392 251.969 431.034 252.128 431.562C252.287 432.091 252.516 432.493 252.814 432.768C253.115 433.044 253.477 433.182 253.9 433.182ZM261.551 434.119C260.988 434.119 260.487 434.023 260.046 433.83C259.609 433.636 259.261 433.368 259.002 433.024C258.747 432.678 258.608 432.276 258.585 431.818H259.659C259.681 432.099 259.778 432.342 259.948 432.547C260.119 432.749 260.342 432.905 260.618 433.016C260.893 433.126 261.198 433.182 261.534 433.182C261.909 433.182 262.241 433.116 262.531 432.986C262.821 432.855 263.048 432.673 263.213 432.44C263.377 432.207 263.46 431.938 263.46 431.631C263.46 431.31 263.38 431.027 263.221 430.783C263.062 430.536 262.829 430.342 262.522 430.203C262.216 430.064 261.841 429.994 261.397 429.994H260.698V429.057H261.397C261.744 429.057 262.048 428.994 262.309 428.869C262.573 428.744 262.779 428.568 262.927 428.341C263.078 428.114 263.153 427.847 263.153 427.54C263.153 427.244 263.088 426.987 262.957 426.768C262.826 426.55 262.642 426.379 262.403 426.257C262.167 426.135 261.889 426.074 261.568 426.074C261.267 426.074 260.983 426.129 260.716 426.24C260.451 426.348 260.235 426.506 260.068 426.713C259.9 426.918 259.809 427.165 259.795 427.455H258.772C258.789 426.997 258.927 426.597 259.186 426.253C259.444 425.906 259.782 425.636 260.2 425.443C260.62 425.25 261.082 425.153 261.585 425.153C262.125 425.153 262.588 425.263 262.974 425.482C263.36 425.697 263.657 425.983 263.865 426.338C264.072 426.693 264.176 427.077 264.176 427.489C264.176 427.98 264.046 428.399 263.788 428.746C263.532 429.092 263.184 429.332 262.744 429.466V429.534C263.295 429.625 263.725 429.859 264.035 430.237C264.345 430.612 264.5 431.077 264.5 431.631C264.5 432.105 264.37 432.531 264.112 432.909C263.856 433.284 263.507 433.58 263.064 433.795C262.62 434.011 262.116 434.119 261.551 434.119ZM267.041 432.884C266.83 432.884 266.65 432.808 266.499 432.658C266.349 432.507 266.273 432.327 266.273 432.116C266.273 431.906 266.349 431.726 266.499 431.575C266.65 431.425 266.83 431.349 267.041 431.349C267.251 431.349 267.431 431.425 267.582 431.575C267.732 431.726 267.808 431.906 267.808 432.116C267.808 432.256 267.772 432.384 267.701 432.5C267.633 432.616 267.541 432.71 267.424 432.781C267.31 432.849 267.183 432.884 267.041 432.884ZM267.041 428.469C266.83 428.469 266.65 428.393 266.499 428.243C266.349 428.092 266.273 427.912 266.273 427.702C266.273 427.491 266.349 427.311 266.499 427.161C266.65 427.01 266.83 426.935 267.041 426.935C267.251 426.935 267.431 427.01 267.582 427.161C267.732 427.311 267.808 427.491 267.808 427.702C267.808 427.841 267.772 427.969 267.701 428.085C267.633 428.202 267.541 428.295 267.424 428.366C267.31 428.435 267.183 428.469 267.041 428.469ZM269.439 432.21V431.341L273.274 425.273H273.905V426.619H273.478L270.581 431.205V431.273H275.745V432.21H269.439ZM273.547 434V431.946V431.541V425.273H274.552V434H273.547ZM280.118 434.119C279.618 434.119 279.167 434.02 278.767 433.821C278.366 433.622 278.045 433.349 277.804 433.003C277.562 432.656 277.43 432.261 277.407 431.818H278.43C278.47 432.213 278.649 432.54 278.967 432.798C279.288 433.054 279.672 433.182 280.118 433.182C280.476 433.182 280.794 433.098 281.072 432.93C281.353 432.763 281.574 432.533 281.733 432.24C281.895 431.945 281.976 431.611 281.976 431.239C281.976 430.858 281.892 430.518 281.724 430.22C281.559 429.919 281.332 429.682 281.042 429.509C280.753 429.335 280.422 429.247 280.049 429.244C279.782 429.241 279.508 429.283 279.227 429.368C278.946 429.45 278.714 429.557 278.532 429.688L277.544 429.568L278.072 425.273H282.606V426.21H278.959L278.652 428.784H278.703C278.882 428.642 279.106 428.524 279.376 428.43C279.646 428.337 279.927 428.29 280.22 428.29C280.754 428.29 281.23 428.418 281.648 428.673C282.068 428.926 282.398 429.273 282.636 429.713C282.878 430.153 282.998 430.656 282.998 431.222C282.998 431.778 282.873 432.276 282.623 432.713C282.376 433.148 282.035 433.491 281.601 433.744C281.166 433.994 280.672 434.119 280.118 434.119ZM285.489 432.884C285.279 432.884 285.099 432.808 284.948 432.658C284.797 432.507 284.722 432.327 284.722 432.116C284.722 431.906 284.797 431.726 284.948 431.575C285.099 431.425 285.279 431.349 285.489 431.349C285.699 431.349 285.88 431.425 286.03 431.575C286.181 431.726 286.256 431.906 286.256 432.116C286.256 432.256 286.221 432.384 286.15 432.5C286.082 432.616 285.989 432.71 285.873 432.781C285.759 432.849 285.631 432.884 285.489 432.884ZM285.489 428.469C285.279 428.469 285.099 428.393 284.948 428.243C284.797 428.092 284.722 427.912 284.722 427.702C284.722 427.491 284.797 427.311 284.948 427.161C285.099 427.01 285.279 426.935 285.489 426.935C285.699 426.935 285.88 427.01 286.03 427.161C286.181 427.311 286.256 427.491 286.256 427.702C286.256 427.841 286.221 427.969 286.15 428.085C286.082 428.202 285.989 428.295 285.873 428.366C285.759 428.435 285.631 428.469 285.489 428.469ZM290.938 434.119C290.296 434.119 289.75 433.945 289.298 433.595C288.846 433.243 288.501 432.733 288.262 432.065C288.024 431.395 287.904 430.585 287.904 429.636C287.904 428.693 288.024 427.888 288.262 427.22C288.504 426.55 288.85 426.038 289.302 425.686C289.757 425.331 290.302 425.153 290.938 425.153C291.575 425.153 292.119 425.331 292.571 425.686C293.025 426.038 293.372 426.55 293.61 427.22C293.852 427.888 293.973 428.693 293.973 429.636C293.973 430.585 293.853 431.395 293.615 432.065C293.376 432.733 293.031 433.243 292.579 433.595C292.127 433.945 291.581 434.119 290.938 434.119ZM290.938 433.182C291.575 433.182 292.069 432.875 292.421 432.261C292.774 431.648 292.95 430.773 292.95 429.636C292.95 428.881 292.869 428.237 292.707 427.706C292.548 427.175 292.318 426.77 292.017 426.491C291.718 426.213 291.359 426.074 290.938 426.074C290.308 426.074 289.815 426.385 289.46 427.007C289.105 427.626 288.927 428.503 288.927 429.636C288.927 430.392 289.007 431.034 289.166 431.562C289.325 432.091 289.554 432.493 289.852 432.768C290.153 433.044 290.515 433.182 290.938 433.182ZM298.418 425.153C298.776 425.156 299.134 425.224 299.492 425.358C299.85 425.491 300.177 425.713 300.472 426.023C300.768 426.33 301.005 426.749 301.184 427.28C301.363 427.811 301.452 428.477 301.452 429.278C301.452 430.054 301.379 430.743 301.231 431.345C301.086 431.945 300.876 432.45 300.6 432.862C300.327 433.274 299.995 433.587 299.603 433.8C299.214 434.013 298.773 434.119 298.282 434.119C297.793 434.119 297.357 434.023 296.974 433.83C296.593 433.634 296.281 433.362 296.036 433.016C295.795 432.666 295.64 432.261 295.572 431.801H296.611C296.705 432.202 296.891 432.533 297.17 432.794C297.451 433.053 297.822 433.182 298.282 433.182C298.955 433.182 299.486 432.888 299.876 432.3C300.268 431.712 300.464 430.881 300.464 429.807H300.396C300.236 430.045 300.048 430.251 299.829 430.425C299.61 430.598 299.367 430.732 299.1 430.825C298.833 430.919 298.549 430.966 298.248 430.966C297.748 430.966 297.289 430.842 296.871 430.595C296.457 430.345 296.124 430.003 295.874 429.568C295.627 429.131 295.504 428.631 295.504 428.068C295.504 427.534 295.623 427.045 295.861 426.602C296.103 426.156 296.441 425.801 296.876 425.537C297.313 425.273 297.827 425.145 298.418 425.153ZM298.418 426.091C298.06 426.091 297.738 426.18 297.451 426.359C297.167 426.536 296.941 426.774 296.773 427.075C296.609 427.374 296.526 427.705 296.526 428.068C296.526 428.432 296.606 428.763 296.765 429.061C296.927 429.357 297.147 429.592 297.425 429.768C297.707 429.942 298.026 430.028 298.384 430.028C298.654 430.028 298.906 429.976 299.138 429.871C299.371 429.763 299.575 429.616 299.748 429.432C299.924 429.244 300.062 429.033 300.161 428.797C300.261 428.558 300.31 428.31 300.31 428.051C300.31 427.71 300.228 427.391 300.063 427.092C299.901 426.794 299.677 426.553 299.39 426.368C299.106 426.183 298.782 426.091 298.418 426.091Z" fill="#35B431"/>
<path d="M308 230L312.243 234.243V225.757L308 230Z" fill="#35B431"/>
<path d="M325.583 225.273V234H324.526V226.381H324.475L322.344 227.795V226.722L324.526 225.273H325.583ZM331.209 225.273V234H330.152V226.381H330.101L327.97 227.795V226.722L330.152 225.273H331.209ZM336.716 234.119C336.153 234.119 335.652 234.023 335.212 233.83C334.774 233.636 334.426 233.368 334.168 233.024C333.912 232.678 333.773 232.276 333.75 231.818H334.824C334.847 232.099 334.943 232.342 335.114 232.547C335.284 232.749 335.507 232.905 335.783 233.016C336.058 233.126 336.364 233.182 336.699 233.182C337.074 233.182 337.406 233.116 337.696 232.986C337.986 232.855 338.213 232.673 338.378 232.44C338.543 232.207 338.625 231.938 338.625 231.631C338.625 231.31 338.545 231.027 338.386 230.783C338.227 230.536 337.994 230.342 337.688 230.203C337.381 230.064 337.006 229.994 336.563 229.994H335.864V229.057H336.563C336.909 229.057 337.213 228.994 337.474 228.869C337.739 228.744 337.945 228.568 338.092 228.341C338.243 228.114 338.318 227.847 338.318 227.54C338.318 227.244 338.253 226.987 338.122 226.768C337.992 226.55 337.807 226.379 337.568 226.257C337.332 226.135 337.054 226.074 336.733 226.074C336.432 226.074 336.148 226.129 335.881 226.24C335.617 226.348 335.401 226.506 335.233 226.713C335.065 226.918 334.974 227.165 334.96 227.455H333.938C333.955 226.997 334.092 226.597 334.351 226.253C334.609 225.906 334.947 225.636 335.365 225.443C335.786 225.25 336.247 225.153 336.75 225.153C337.29 225.153 337.753 225.263 338.139 225.482C338.526 225.697 338.822 225.983 339.03 226.338C339.237 226.693 339.341 227.077 339.341 227.489C339.341 227.98 339.212 228.399 338.953 228.746C338.697 229.092 338.349 229.332 337.909 229.466V229.534C338.46 229.625 338.891 229.859 339.2 230.237C339.51 230.612 339.665 231.077 339.665 231.631C339.665 232.105 339.536 232.531 339.277 232.909C339.021 233.284 338.672 233.58 338.229 233.795C337.786 234.011 337.281 234.119 336.716 234.119ZM342.703 232.807L342.635 233.267C342.587 233.591 342.513 233.938 342.413 234.307C342.317 234.676 342.216 235.024 342.111 235.351C342.006 235.678 341.919 235.938 341.851 236.131H341.084C341.121 235.949 341.169 235.709 341.229 235.411C341.288 235.112 341.348 234.778 341.408 234.409C341.47 234.043 341.521 233.668 341.561 233.284L341.612 232.807H342.703ZM347.139 234.119C346.497 234.119 345.95 233.945 345.499 233.595C345.047 233.243 344.702 232.733 344.463 232.065C344.225 231.395 344.105 230.585 344.105 229.636C344.105 228.693 344.225 227.888 344.463 227.22C344.705 226.55 345.051 226.038 345.503 225.686C345.958 225.331 346.503 225.153 347.139 225.153C347.776 225.153 348.32 225.331 348.771 225.686C349.226 226.038 349.573 226.55 349.811 227.22C350.053 227.888 350.173 228.693 350.173 229.636C350.173 230.585 350.054 231.395 349.815 232.065C349.577 232.733 349.232 233.243 348.78 233.595C348.328 233.945 347.781 234.119 347.139 234.119ZM347.139 233.182C347.776 233.182 348.27 232.875 348.622 232.261C348.975 231.648 349.151 230.773 349.151 229.636C349.151 228.881 349.07 228.237 348.908 227.706C348.749 227.175 348.519 226.77 348.217 226.491C347.919 226.213 347.56 226.074 347.139 226.074C346.509 226.074 346.016 226.385 345.661 227.007C345.306 227.626 345.128 228.503 345.128 229.636C345.128 230.392 345.208 231.034 345.367 231.562C345.526 232.091 345.754 232.493 346.053 232.768C346.354 233.044 346.716 233.182 347.139 233.182ZM354.687 234.119C354.045 234.119 353.498 233.945 353.047 233.595C352.595 233.243 352.25 232.733 352.011 232.065C351.773 231.395 351.653 230.585 351.653 229.636C351.653 228.693 351.773 227.888 352.011 227.22C352.253 226.55 352.599 226.038 353.051 225.686C353.506 225.331 354.051 225.153 354.687 225.153C355.324 225.153 355.868 225.331 356.319 225.686C356.774 226.038 357.121 226.55 357.359 227.22C357.601 227.888 357.721 228.693 357.721 229.636C357.721 230.585 357.602 231.395 357.363 232.065C357.125 232.733 356.78 233.243 356.328 233.595C355.876 233.945 355.329 234.119 354.687 234.119ZM354.687 233.182C355.324 233.182 355.818 232.875 356.17 232.261C356.523 231.648 356.699 230.773 356.699 229.636C356.699 228.881 356.618 228.237 356.456 227.706C356.297 227.175 356.067 226.77 355.765 226.491C355.467 226.213 355.108 226.074 354.687 226.074C354.057 226.074 353.564 226.385 353.209 227.007C352.854 227.626 352.676 228.503 352.676 229.636C352.676 230.392 352.756 231.034 352.915 231.562C353.074 232.091 353.302 232.493 353.601 232.768C353.902 233.044 354.264 233.182 354.687 233.182Z" fill="#35B431"/>
<line x1="302.625" y1="230.375" x2="0.375" y2="230.375" stroke="#35B431" stroke-width="0.75" stroke-linecap="round" stroke-dasharray="3 3"/>
<line x1="272.625" y1="413.625" x2="272.625" y2="111.375" stroke="#35B431" stroke-width="0.75" stroke-linecap="round" stroke-dasharray="3 3"/>
</svg>
