<svg width="14" height="16" viewBox="0 0 14 16" fill="none" xmlns="http://www.w3.org/2000/svg">
<path d="M1.95293 6.2534H8.85972C9.02916 6.2534 9.16668 6.12328 9.16668 5.96253C9.16668 5.80196 9.02916 5.67165 8.85972 5.67165H1.95293C1.78328 5.67165 1.64596 5.80196 1.64596 5.96253C1.64596 6.12328 1.78349 6.2534 1.95293 6.2534ZM1.95293 4.61636H8.85972C9.02916 4.61636 9.16668 4.48624 9.16668 4.32549C9.16668 4.16493 9.02916 4.03461 8.85972 4.03461H1.95293C1.78328 4.03461 1.64596 4.16493 1.64596 4.32549C1.64596 4.48624 1.78349 4.61636 1.95293 4.61636ZM1.95293 7.72096H7.63184C7.80129 7.72096 7.93881 7.59084 7.93881 7.43008C7.93881 7.26952 7.80129 7.13921 7.63184 7.13921H1.95293C1.78328 7.13921 1.64596 7.26952 1.64596 7.43008C1.64596 7.59084 1.78349 7.72096 1.95293 7.72096ZM5.58539 8.60676H1.95293C1.78328 8.60676 1.64596 8.73708 1.64596 8.89764C1.64596 9.0582 1.78328 9.18851 1.95293 9.18851H5.58539C5.75504 9.18851 5.89236 9.0582 5.89236 8.89764C5.89236 8.73708 5.75504 8.60676 5.58539 8.60676ZM4.57178 10.0739H1.95293C1.78328 10.0739 1.64596 10.2042 1.64596 10.3648C1.64596 10.5254 1.78328 10.6557 1.95293 10.6557H4.57178C4.74143 10.6557 4.87875 10.5254 4.87875 10.3648C4.87875 10.2042 4.74143 10.0739 4.57178 10.0739ZM11.4364 10.4569L9.30993 12.8314L7.95129 11.8072C7.81909 11.7071 7.6255 11.7278 7.52011 11.8537C7.41451 11.9792 7.43661 12.1624 7.56922 12.2623L9.16034 13.4622C9.21662 13.5049 9.28415 13.5254 9.35148 13.5254C9.43866 13.5254 9.52502 13.4903 9.5858 13.4229L11.9044 10.8333C12.0139 10.7108 11.9984 10.5273 11.8688 10.4234C11.7393 10.3192 11.5459 10.3344 11.4364 10.4569ZM10.8129 8.01997V3.04623C10.8129 2.96943 10.7809 2.89594 10.7236 2.84126L7.8414 0.0860987C7.78389 0.0310266 7.70552 0 7.62366 0H0.306968C0.137317 0 0 0.130311 0 0.290874V13.6239C0 13.7845 0.137317 13.9148 0.306968 13.9148H5.97503C6.70848 15.157 8.10928 16 9.71554 16C12.0782 16 14 14.1787 14 11.94C14 10.0611 12.6446 8.48091 10.8129 8.01997ZM7.93062 0.997697L9.76916 2.75535H7.93062V0.997697ZM5.6961 13.3331H0.613937V0.581748H7.31648V3.04623C7.31648 3.20679 7.45401 3.3371 7.62345 3.3371H10.1987V7.9075C10.0397 7.89044 9.87885 7.87977 9.71554 7.87977C7.35291 7.87977 5.43068 9.70123 5.43068 11.94C5.43088 12.43 5.52747 12.8979 5.6961 13.3331ZM9.71575 15.4183C7.6916 15.4183 6.04482 13.858 6.04482 11.94C6.04482 10.022 7.6916 8.46152 9.71575 8.46152C11.7399 8.46152 13.3863 10.022 13.3863 11.94C13.3863 13.858 11.7397 15.4183 9.71575 15.4183Z" fill="#222222"/>
</svg>
