<svg width="17" height="16" viewBox="0 0 17 16" fill="none" xmlns="http://www.w3.org/2000/svg">
<path d="M11.3946 0.00169123C11.3404 0.00825514 11.2901 0.0328823 11.2521 0.0714442L0.595981 10.5027C0.524386 10.3762 0.479373 10.229 0.479379 10.0715V5.11268C0.47978 5.07956 0.472973 5.04673 0.459409 5.01638C0.445845 4.98603 0.425836 4.95885 0.400711 4.93665C0.375587 4.91446 0.345924 4.89775 0.313694 4.88765C0.281464 4.87754 0.247406 4.87428 0.213784 4.87806C0.154696 4.88407 0.100027 4.91145 0.0604858 4.95485C0.0209443 4.99825 -0.000621032 5.05453 1.362e-05 5.11268V10.0715C-1.10479e-05 10.8125 0.616302 11.4158 1.37333 11.4158H6.43905C6.50262 11.4158 6.56358 11.3911 6.60853 11.3471C6.65348 11.3031 6.67873 11.2434 6.67873 11.1812C6.67873 11.119 6.65348 11.0593 6.60853 11.0153C6.56358 10.9713 6.50262 10.9466 6.43905 10.9466H1.37333C1.21104 10.9465 1.06274 10.9036 0.932832 10.8324L11.589 0.401186C11.6249 0.367206 11.649 0.323044 11.6579 0.274932C11.6668 0.226819 11.66 0.17718 11.6385 0.133035C11.6171 0.0888913 11.582 0.0524693 11.5382 0.0289013C11.4945 0.00533339 11.4442 -0.0041837 11.3946 0.00169123ZM10.5396 4.58002C10.5081 4.58127 10.4772 4.58857 10.4486 4.60151C10.42 4.61445 10.3943 4.63278 10.3729 4.65545C10.3515 4.67812 10.335 4.70469 10.3241 4.73364C10.3132 4.76258 10.3083 4.79334 10.3096 4.82416C10.3108 4.85497 10.3183 4.88524 10.3315 4.91323C10.3447 4.94122 10.3635 4.96639 10.3866 4.9873C10.4098 5.0082 10.4369 5.02443 10.4665 5.03507C10.4961 5.0457 10.5275 5.05053 10.559 5.04927H15.6247C15.7859 5.04927 15.935 5.09311 16.0652 5.16341L5.40906 15.5947C5.38536 15.6159 5.3663 15.6417 5.35303 15.6704C5.33976 15.6991 5.33257 15.7301 5.33188 15.7616C5.33118 15.7931 5.33701 15.8244 5.349 15.8536C5.36099 15.8828 5.3789 15.9094 5.40165 15.9317C5.4244 15.9539 5.45152 15.9714 5.48137 15.9832C5.51123 15.9949 5.5432 16.0006 5.57536 15.9999C5.60753 15.9993 5.63922 15.9922 5.66853 15.9792C5.69784 15.9663 5.72417 15.9476 5.74591 15.9244L16.4021 5.49315C16.4768 5.62097 16.5251 5.76431 16.5251 5.92435V10.8832C16.5208 10.9161 16.5237 10.9495 16.5336 10.9812C16.5435 11.013 16.5602 11.0422 16.5825 11.0672C16.6049 11.0921 16.6324 11.112 16.6633 11.1257C16.6942 11.1394 16.7277 11.1465 16.7616 11.1465C16.7955 11.1465 16.829 11.1394 16.8599 11.1257C16.8907 11.112 16.9183 11.0921 16.9407 11.0672C16.963 11.0422 16.9797 11.013 16.9896 10.9812C16.9995 10.9495 17.0024 10.9161 16.998 10.8832V5.92435C16.998 5.18334 16.3817 4.58 15.6247 4.58002H10.559C10.5525 4.57977 10.546 4.57977 10.5396 4.58002Z" fill="#222222"/>
</svg>
