<svg width="30" height="30" viewBox="0 0 30 30" fill="none" xmlns="http://www.w3.org/2000/svg">
<path d="M10.034 15.932H12.051M10.034 11.898H16.085M10.034 19.966H12.051M19.1105 24H21.6318M16.085 19.966H16.0951M16.085 15.932H16.0951M20.119 24H10.8408C9.14637 24 8.29915 24 7.65196 23.6702C7.08267 23.3802 6.61983 22.9173 6.32976 22.348C6 21.7009 6 20.8536 6 19.1592V8.62749C6 7.7144 6 7.25785 6.19182 6.9931C6.35914 6.76215 6.61642 6.61284 6.89996 6.58215C7.225 6.54696 7.62139 6.77347 8.41418 7.22649L8.72919 7.40649C9.02099 7.57324 9.16689 7.65661 9.32184 7.68926C9.45895 7.71814 9.60057 7.71814 9.73768 7.68926C9.89263 7.65661 10.0385 7.57324 10.3303 7.40649L12.2589 6.30443C12.5507 6.13768 12.6966 6.05431 12.8516 6.02167C12.9887 5.99278 13.1303 5.99278 13.2674 6.02167C13.4224 6.05431 13.5683 6.13768 13.8601 6.30443L15.7887 7.40649C16.0805 7.57323 16.2264 7.65661 16.3814 7.68926C16.5185 7.71814 16.6601 7.71814 16.7972 7.68926C16.9521 7.65661 17.098 7.57323 17.3898 7.40649L17.7049 7.22649C18.4976 6.77347 18.894 6.54696 19.2191 6.58215C19.5026 6.61284 19.7599 6.76215 19.9272 6.9931C20.119 7.25785 20.119 7.7144 20.119 8.62749V16.9405M20.119 15.932H24.153V21.983C24.153 23.097 23.25 24 22.136 24C21.0221 24 20.119 23.097 20.119 21.983V15.932Z" stroke="#5C6777" stroke-linecap="round" stroke-linejoin="round"/>
</svg>
