<svg width="74" height="50" viewBox="0 0 74 50" fill="none" xmlns="http://www.w3.org/2000/svg">
<path d="M49.7236 21.9398L40.9094 21.0191L37.2824 13.1772C37.2326 13.0694 37.1219 13 37 13C36.8781 13 36.7674 13.0694 36.7176 13.1772L33.0906 21.0191L24.2764 21.9398C24.1551 21.9524 24.0529 22.033 24.0151 22.1453C23.9775 22.2578 24.0114 22.3812 24.1019 22.4604L30.6745 28.2276L28.854 36.6383C28.8289 36.7541 28.8762 36.8733 28.9749 36.9427C29.0737 37.0122 29.2053 37.0188 29.3108 36.9602L37 32.6825L44.6892 36.9602C44.737 36.9868 44.7902 37 44.8432 37C44.9073 37 44.971 36.9807 45.0251 36.9427C45.1238 36.8733 45.1711 36.7541 45.146 36.6383L43.3255 28.2276L49.8981 22.4604C49.9886 22.3812 50.0225 22.2578 49.9849 22.1453C49.9471 22.033 49.8449 21.9524 49.7236 21.9398ZM42.7784 27.8983C42.6968 27.9698 42.6606 28.0779 42.6832 28.1824L44.3986 36.1067L37.154 32.0765C37.1064 32.05 37.0532 32.0367 37 32.0367C36.9468 32.0367 36.8936 32.05 36.846 32.0765L29.6014 36.1067L31.3168 28.1824C31.3394 28.0779 31.3032 27.9698 31.2216 27.8983L25.0289 22.4646L33.3335 21.5972C33.4429 21.5857 33.5378 21.5189 33.5828 21.4217L37 14.0333L40.4172 21.4217C40.4622 21.5189 40.5571 21.5857 40.6665 21.5972L48.9711 22.4646L42.7784 27.8983Z" fill="#6C6C6C"/>
<rect x="0.25" y="0.25" width="73.5" height="49.5" rx="3.75" stroke="#6C6C6C" stroke-width="0.5"/>
</svg>
