<svg width="30" height="30" viewBox="0 0 30 30" fill="none" xmlns="http://www.w3.org/2000/svg">
<path d="M19.2222 15H14.7778M19.2222 19.4444H14.7778M10.3333 15H10.3444M10.3333 19.4444H10.3444M19.2222 7.22222C21.0632 7.22222 22.5556 8.71461 22.5556 10.5556V19.6667C22.5556 21.5335 22.5556 22.4669 22.1922 23.18C21.8727 23.8072 21.3627 24.3171 20.7355 24.6367C20.0225 25 19.0891 25 17.2222 25H12.3333C10.4665 25 9.53307 25 8.82003 24.6367C8.19282 24.3171 7.68289 23.8072 7.36331 23.18C7 22.4669 7 21.5335 7 19.6667V10.5556C7 8.71461 8.49238 7.22222 10.3333 7.22222M10.3333 9.44444H19.2222V6.89679C19.2222 6.39373 19.0224 5.91127 18.6667 5.55556C18.3109 5.19984 17.8285 5 17.3254 5H12.2301C11.7271 5 11.2446 5.19984 10.8889 5.55556C10.5332 5.91127 10.3333 6.39373 10.3333 6.89679V9.44444Z" stroke="#001C46" stroke-linecap="round" stroke-linejoin="round"/>
</svg>
