<svg width="30" height="30" viewBox="0 0 30 30" fill="none" xmlns="http://www.w3.org/2000/svg">
<path d="M17.3043 24V17.834H13.1936V24M22.4426 12.4677V19.0672C22.4426 20.7938 22.4426 21.6572 22.1066 22.3167C21.811 22.8968 21.3394 23.3684 20.7593 23.664C20.0998 24 19.2365 24 17.5098 24H12.9881C11.2615 24 10.3982 24 9.73867 23.664C9.15857 23.3684 8.68693 22.8968 8.39135 22.3167C8.05533 21.6572 8.05533 20.7938 8.05533 19.0672V12.467M24.4979 14.751L18.9144 8.54802C17.6446 7.13728 17.0096 6.43191 16.2619 6.1715C15.6051 5.94278 14.8903 5.94283 14.2336 6.17165C13.4859 6.43217 12.851 7.13763 11.5814 8.54856L6 14.751" stroke="#5C6777" stroke-linecap="round" stroke-linejoin="round"/>
</svg>
