<svg width="30" height="30" viewBox="0 0 30 30" fill="none" xmlns="http://www.w3.org/2000/svg">
<path d="M15.4263 21.6698C16.8292 22.4228 18.2122 23.1585 19.5646 23.8584C20.5396 24.3654 21.754 23.432 21.6177 22.3061C21.4215 20.7496 21.1936 19.1855 20.9425 17.6151C22.113 16.4858 23.2832 15.3708 24.4342 14.2879C25.273 13.5047 24.7737 12.1317 23.6116 11.9358C22.0121 11.6733 20.4152 11.4137 18.8219 11.1637C18.0925 9.71146 17.3646 8.25261 16.6569 6.79561C16.1414 5.7348 14.7112 5.7348 14.1958 6.79561C13.4881 8.25224 12.7601 9.71109 12.0307 11.1637C10.4374 11.4137 8.84052 11.6733 7.24102 11.9358C6.07858 12.1317 5.57929 13.5047 6.41807 14.2879C7.56909 15.3708 8.73926 16.4858 9.9098 17.6151C9.65868 19.1858 9.43076 20.75 9.2345 22.3061C9.09864 23.432 10.3126 24.3654 11.288 23.8584C12.6404 23.1585 14.0234 22.4231 15.4263 21.6698Z" stroke="#5C6777"/>
</svg>
