<svg width="30" height="30" viewBox="0 0 30 30" fill="none" xmlns="http://www.w3.org/2000/svg">
<path d="M8.97432 23.2839C8.94704 23.5587 9.14768 23.8036 9.42248 23.8309C9.69727 23.8582 9.94215 23.6575 9.96943 23.3827L8.97432 23.2839ZM20.0306 23.3827C20.0579 23.6575 20.3027 23.8582 20.5775 23.8309C20.8523 23.8036 21.053 23.5587 21.0257 23.2839L20.0306 23.3827ZM24.5 15C24.5 20.2467 20.2467 24.5 15 24.5V25.5C20.799 25.5 25.5 20.799 25.5 15H24.5ZM15 24.5C9.75329 24.5 5.5 20.2467 5.5 15H4.5C4.5 20.799 9.20101 25.5 15 25.5V24.5ZM5.5 15C5.5 9.75329 9.75329 5.5 15 5.5V4.5C9.20101 4.5 4.5 9.20101 4.5 15H5.5ZM15 5.5C20.2467 5.5 24.5 9.75329 24.5 15H25.5C25.5 9.20101 20.799 4.5 15 4.5V5.5ZM16.7222 12.7778C16.7222 13.7289 15.9512 14.5 15 14.5V15.5C16.5034 15.5 17.7222 14.2812 17.7222 12.7778H16.7222ZM15 14.5C14.0488 14.5 13.2778 13.7289 13.2778 12.7778H12.2778C12.2778 14.2812 13.4966 15.5 15 15.5V14.5ZM13.2778 12.7778C13.2778 11.8266 14.0488 11.0556 15 11.0556V10.0556C13.4966 10.0556 12.2778 11.2743 12.2778 12.7778H13.2778ZM15 11.0556C15.9512 11.0556 16.7222 11.8266 16.7222 12.7778H17.7222C17.7222 11.2743 16.5034 10.0556 15 10.0556V11.0556ZM9.96943 23.3827C10.223 20.8285 12.3788 18.8333 15 18.8333V17.8333C11.8597 17.8333 9.2782 20.2233 8.97432 23.2839L9.96943 23.3827ZM15 18.8333C17.6212 18.8333 19.777 20.8285 20.0306 23.3827L21.0257 23.2839C20.7218 20.2233 18.1403 17.8333 15 17.8333V18.8333Z" fill="#001C46"/>
</svg>
