<svg width="14" height="16" viewBox="0 0 14 16" fill="none" xmlns="http://www.w3.org/2000/svg">
<path d="M11.6987 10.3504C10.452 9.30181 8.73604 8.70068 6.99777 8.70068C5.2595 8.70068 3.54357 9.30181 2.29684 10.3504C0.790935 11.6159 0 13.46 0 15.6837C0 15.86 0.138525 16.0001 0.312799 16.0001H13.6872C13.8615 16.0001 14 15.86 14 15.6837C14 13.46 13.2091 11.6159 11.6987 10.3504ZM0.630067 15.3674C0.701564 13.4781 1.41206 11.9188 2.69901 10.8385C3.83402 9.88034 5.40249 9.33345 7.00223 9.33345C8.59751 9.33345 10.166 9.88034 11.3055 10.8385C12.5924 11.9188 13.3029 13.4826 13.3744 15.3674H0.630067Z" fill="#C2C2C2"/>
<path d="M6.99755 7.71977C9.10224 7.71977 10.8137 5.9887 10.8137 3.85989C10.8137 1.73107 9.10224 0 6.99755 0C4.89286 0 3.1814 1.73107 3.1814 3.85989C3.18587 5.9887 4.89732 7.71977 6.99755 7.71977ZM6.99755 0.632768C8.75816 0.632768 10.1881 2.0791 10.1881 3.85989C10.1881 5.64068 8.75816 7.08701 6.99755 7.08701C5.23693 7.08701 3.807 5.64068 3.807 3.85989C3.81146 2.0791 5.2414 0.632768 6.99755 0.632768Z" fill="#C2C2C2"/>
</svg>
