<svg width="18" height="18" viewBox="0 0 18 18" fill="none" xmlns="http://www.w3.org/2000/svg">
<path d="M16.8193 6.95986L11.0561 6.34609L8.68466 1.11816C8.65206 1.04629 8.57973 1 8.5 1C8.42027 1 8.34794 1.04629 8.31534 1.11816L5.94388 6.34609L0.180727 6.95986C0.101389 6.96826 0.0345981 7.02197 0.00989751 7.09688C-0.0147043 7.17188 0.00742746 7.2541 0.0666102 7.30693L4.36413 11.1518L3.17375 16.7589C3.15735 16.836 3.18828 16.9155 3.25279 16.9618C3.31741 17.0081 3.40347 17.0125 3.47243 16.9734L8.5 14.1217L13.5276 16.9734C13.5588 16.9912 13.5936 17 13.6282 17C13.6701 17 13.7118 16.9871 13.7472 16.9618C13.8117 16.9155 13.8426 16.836 13.8262 16.7589L12.6359 11.1518L16.9334 7.30693C16.9926 7.2541 17.0147 7.17188 16.9901 7.09688C16.9654 7.02197 16.8986 6.96826 16.8193 6.95986ZM12.2782 10.9322C12.2249 10.9799 12.2011 11.052 12.216 11.1216L13.3376 16.4045L8.60068 13.7177C8.56956 13.7 8.53478 13.6911 8.5 13.6911C8.46522 13.6911 8.43044 13.7 8.39932 13.7177L3.66243 16.4045L4.78404 11.1216C4.79886 11.052 4.77514 10.9799 4.72179 10.9322L0.672764 7.30977L6.10266 6.73145C6.17419 6.72383 6.23624 6.6793 6.26568 6.61445L8.5 1.68887L10.7343 6.61445C10.7638 6.6793 10.8258 6.72383 10.8973 6.73145L16.3272 7.30977L12.2782 10.9322Z" fill="#6C6C6C"/>
</svg>
